<?xml version="1.0" encoding="utf-8"?>
<!-- Generator: Adobe Illustrator 23.0.4, SVG Export Plug-In . SVG Version: 6.00 Build 0)  -->
<svg version="1.1" id="图层_1" xmlns="http://www.w3.org/2000/svg" xmlns:xlink="http://www.w3.org/1999/xlink" x="0px" y="0px"
	 viewBox="0 0 192 192" style="enable-background:new 0 0 192 192;" xml:space="preserve">
<style type="text/css">
	.st0{fill:#0C1E3D;}
	.st1{opacity:0.1;}
	.st2{fill:#FFFFFF;}
	.st3{opacity:0.9;}
</style>
<g>
	<g>
		<polygon class="st0" points="166.8,0 0,0 0,192 56.9,192 88.1,192 192,192 192,18.9 192,0 		"/>
	</g>
	<g class="st1">
		<polygon class="st2" points="108.3,28.6 56.9,192 88.1,192 139.4,28.6 		"/>
	</g>
	<g class="st1">
		<polygon class="st2" points="150.5,150.9 192,18.9 192,0 166.8,0 119.3,150.9 		"/>
	</g>
	<g>
		<g>
			<path class="st2" d="M34.7,99.5c0,0.5,0.2,0.8,0.5,1c0.3,0.2,0.7,0.3,1.1,0.3v1.4h-12v-1.4c1.1,0,1.7-0.5,1.7-1.4v-35
				c0-0.9-0.6-1.4-1.7-1.4v-1.4h12v1.4c-0.4,0-0.8,0.1-1.1,0.3c-0.3,0.2-0.5,0.6-0.5,1v14.7l16-12.6c0.7-0.6,1.3-1.1,1.7-1.5
				c0.4-0.4,0.6-0.7,0.6-1c0-0.4-0.1-0.6-0.3-0.8c-0.2-0.2-0.5-0.2-0.8-0.2v-1.4h16.2v1.4c-0.9,0-1.8,0.4-2.8,1.2L47.6,78.4
				l16.2,18.7c0.7,0.8,1.4,1.5,2.3,2.3c0.9,0.7,1.8,1.2,2.7,1.5v1.4H54.5v-1.4c0.7,0,1-0.2,1-0.5c0-0.3-0.4-0.8-1.1-1.7L41.2,83.5
				l-6.5,5V99.5z"/>
			<path class="st2" d="M119.7,63.1c-1,0-1.8,0.4-2.2,1.1c-0.5,0.7-0.8,1.4-1,1.8l-13.7,30c-0.5,1-0.9,1.9-1.2,2.5
				c-0.3,0.6-0.5,1.1-0.5,1.3c0,0.3,0.1,0.5,0.2,0.6c0.1,0.2,0.3,0.3,0.5,0.5v1.4H90.1v-1.4c0.5-0.2,0.7-0.6,0.7-1.1
				c0-0.3-0.2-0.8-0.6-1.6c-0.4-0.8-0.9-1.8-1.4-3L74.9,65.1c-0.3-0.6-0.6-1-1.1-1.2c-0.5-0.3-1.1-0.5-2-0.8v-1.4h13.8v1.4
				c-0.4,0-0.7,0.1-1,0.3c-0.3,0.2-0.5,0.5-0.5,1c0,0.6,0.2,1.3,0.7,2.2c0.4,0.9,1,2,1.6,3.2l9.9,21.2l9.6-20.9
				c0.6-1.3,1.2-2.5,1.7-3.6c0.5-1.1,0.8-1.8,0.8-2.2c0-0.8-0.7-1.2-2.2-1.2v-1.4h13.5V63.1z"/>
			<path class="st2" d="M148.3,61.7c2.4,0,4.7,0.2,6.9,0.6c2.2,0.4,4.2,1,5.9,1.9c1.7,0.8,3.1,2,4.1,3.3c1,1.4,1.5,3,1.5,5.1
				c0,2.4-0.7,4.3-2.2,5.6c-1.5,1.3-3.3,2.3-5.3,3v0.2c2.4,0.7,4.5,1.9,6.1,3.4c1.7,1.6,2.5,3.8,2.5,6.7c0,1.5-0.3,3-1,4.3
				c-0.7,1.3-1.7,2.5-3,3.4s-2.9,1.7-4.8,2.3c-1.9,0.5-4.1,0.8-6.5,0.8h-28.3v-1.4c1.4,0,2.2-0.5,2.2-1.4v-35c0-0.9-0.7-1.4-2.2-1.4
				v-1.4H148.3z M149.8,77.6c2.3,0,4.2-0.3,5.7-0.9c1.5-0.6,2.3-1.8,2.3-3.7s-0.8-3.2-2.3-3.7c-1.5-0.6-3.4-0.9-5.7-0.9h-14.7v9.3
				H149.8z M149.8,95.2c3.2,0,5.6-0.5,7-1.5c1.4-1,2.1-2.3,2.1-4s-0.7-3-2.1-4c-1.4-1-3.7-1.5-7-1.5h-14.7v11H149.8z"/>
		</g>
		<g class="st3">
			<path class="st2" d="M74.9,129.7v-0.5c0.7,0,1.1-0.2,1.1-0.5v-13.7c0-0.4-0.4-0.5-1.1-0.5v-0.5h10.6c1.9,0,3.4,0.4,4.5,1.1
				c1.1,0.7,1.7,1.9,1.7,3.6c0,1.7-0.6,2.9-1.7,3.6c-1.1,0.7-2.6,1.1-4.5,1.1h-6.1v5.4c0,0.4,0.3,0.5,1,0.5v0.5H74.9z M85.8,120.5
				c0.7,0,1.2-0.1,1.7-0.4c0.5-0.3,0.7-0.8,0.7-1.5c0-0.8-0.2-1.3-0.7-1.5c-0.5-0.3-1-0.4-1.7-0.4h-6.4v3.9H85.8z"/>
			<path class="st2" d="M105.4,113.8c1,0,1.8,0.1,2.6,0.3c0.8,0.2,1.5,0.4,2,0.8c0.6,0.4,1,0.9,1.3,1.4c0.3,0.6,0.5,1.3,0.5,2.2
				c0,1.3-0.4,2.3-1.2,3c-0.8,0.7-1.8,1.2-3.2,1.4l4,5.7c0.1,0.2,0.3,0.3,0.5,0.4c0.2,0,0.4,0.1,0.5,0.1v0.5h-5.6v-0.5
				c0.2,0,0.3,0,0.5-0.1c0.1-0.1,0.2-0.1,0.2-0.2c0-0.1,0-0.2-0.1-0.3c-0.1-0.1-0.2-0.3-0.4-0.5l-3.3-4.7h-4.3v5.4
				c0,0.2,0.1,0.3,0.2,0.4c0.1,0.1,0.4,0.1,0.7,0.1v0.5h-5.2v-0.5c0.6,0,0.9-0.2,0.9-0.5v-13.7c0-0.4-0.3-0.5-0.9-0.5v-0.5H105.4z
				 M104.6,120.9c0.7,0,1.3-0.1,1.8-0.2c0.5-0.1,0.9-0.3,1.1-0.5c0.3-0.2,0.5-0.4,0.6-0.7c0.1-0.3,0.2-0.6,0.2-0.9
				c0-0.3-0.1-0.6-0.2-0.9c-0.1-0.3-0.3-0.5-0.6-0.7c-0.3-0.2-0.7-0.4-1.1-0.5c-0.5-0.1-1.1-0.2-1.8-0.2h-5.2v4.5H104.6z"/>
			<path class="st2" d="M116.9,129.1c0.5,0,0.8-0.2,0.8-0.5v-13.7c0-0.4-0.3-0.5-0.8-0.5v-0.5h5v0.5c-0.5,0-0.8,0.2-0.8,0.5v13.7
				c0,0.4,0.3,0.5,0.8,0.5v0.5h-5V129.1z"/>
			<path class="st2" d="M127.1,129.1c0.2,0,0.3,0,0.4-0.1c0.1-0.1,0.2-0.2,0.2-0.4v-13.7c0-0.2-0.1-0.3-0.2-0.4
				c-0.1-0.1-0.3-0.1-0.4-0.1v-0.5h5.6v0.5c-0.1,0-0.2,0-0.3,0.1c-0.1,0.1-0.2,0.2-0.2,0.3c0,0.1,0,0.2,0.1,0.4
				c0.1,0.2,0.2,0.3,0.3,0.5l4.3,7.8l4.3-7.7c0.1-0.3,0.2-0.5,0.3-0.6s0.1-0.3,0.1-0.4c0-0.2-0.1-0.3-0.4-0.3v-0.5h5.6v0.5
				c-0.2,0-0.3,0-0.4,0.1c-0.1,0.1-0.2,0.2-0.2,0.4v13.7c0,0.2,0.1,0.3,0.2,0.4c0.1,0.1,0.3,0.1,0.4,0.1v0.5h-4.7v-0.5
				c0.5,0,0.8-0.2,0.8-0.5v-10h-0.1l-6.1,11.1h-0.1l-5.9-11.1h-0.1v10c0,0.4,0.3,0.5,0.8,0.5v0.5h-4.5V129.1z"/>
			<path class="st2" d="M167,117.1c0-0.2-0.1-0.4-0.3-0.5c-0.2-0.1-0.5-0.2-0.9-0.2h-9.8v3.7h5.9c0.4,0,0.7-0.1,0.9-0.2
				c0.2-0.1,0.3-0.4,0.3-0.9h0.5v4.7h-0.5c0-0.5-0.1-0.8-0.3-0.9c-0.2-0.1-0.5-0.2-0.9-0.2h-5.9v4.2h10.1c0.3,0,0.5-0.1,0.7-0.2
				c0.2-0.1,0.3-0.3,0.3-0.6h0.5v4.1h-0.5c0-0.3-0.1-0.5-0.3-0.5c-0.2,0-0.4-0.1-0.7-0.1h-14v-0.5c0.1,0,0.3,0,0.4-0.1
				c0.1-0.1,0.2-0.2,0.2-0.4v-13.7c0-0.2-0.1-0.3-0.2-0.4c-0.1-0.1-0.2-0.1-0.4-0.1v-0.5h13.7c0.4,0,0.7-0.1,0.9-0.2
				c0.2-0.1,0.3-0.3,0.3-0.5h0.5v4H167z"/>
		</g>
	</g>
</g>
</svg>
