<?xml version="1.0" encoding="UTF-8"?>
<svg width="82px" height="62px" viewBox="0 0 82 62" version="1.1" xmlns="http://www.w3.org/2000/svg" xmlns:xlink="http://www.w3.org/1999/xlink">
    <!-- Generator: Sketch 59.1 (86144) - https://sketch.com -->
    <title>bankcard-f</title>
    <desc>beforeMount with Sketch.</desc>
    <defs>
        <linearGradient x1="0%" y1="21.4158239%" x2="100%" y2="74.4252864%" id="linearGradient-1">
            <stop stop-color="#DB351F" offset="0%"></stop>
            <stop stop-color="#7F0F00" offset="100%"></stop>
        </linearGradient>
    </defs>
    <g id="页面-1" stroke="none" stroke-width="1" fill="none" fill-rule="evenodd">
        <g id="bankcard-f" fill="url(#linearGradient-1)" fill-rule="nonzero">
            <path d="M82,48.2222222 L82,55.1111111 C82,58.9 78.925,62 75.1666667,62 L6.83333331,62 C3.075,62 0,58.9 0,55.1111111 L0,48.2222222 L82,48.2222222 Z M75.1666667,0 C78.925,0 82,3.1 82,6.88888886 L82,37.8888889 L75.592,37.888 L70.726,28.668 L76.134,23.13 L73.248,23.13 L66.67,29.864 L66.67,23.13 L64.252,23.13 L64.251,37.888 L60.793,37.888 L60.794,23.13 L58.48,23.13 L58.48,34.778 L52.032,23.13 L48.938,23.13 L48.937,37.888 L46.272,37.888 L41.294,23 L38.85,23 L33.87,37.888 L31.1306078,37.8890248 C31.7937426,37.1147372 32.142,36.0385681 32.142,34.648 C32.142,32.594 31.154,31.216 29.594,30.644 C30.946,30.15 31.752,29.11 31.752,27.212 C31.752,23.988619 29.6212086,23.1685726 26.7624558,23.13135 L20,23.13 L19.999,37.888 L0,37.8888889 L0,6.88888886 C0,3.1 3.075,0 6.83333331,0 L75.1666667,0 Z M43.062,35.532 L43.852,37.888 L36.228,37.888 L37.004,35.532 L43.062,35.532 Z M51.278,26.484 L57.588,37.888 L51.277,37.888 L51.278,26.484 Z M69.01,30.41 L72.943,37.888 L66.669,37.888 L66.67,32.802 L69.01,30.41 Z M26.994,31.788 C28.84,31.788 29.724,32.932 29.724,34.596 C29.724,36.104 28.944,37.378 26.994,37.378 L22.418,37.378 L22.418,31.788 L26.994,31.788 Z M40.02,26.484 L42.386,33.504 L37.68,33.504 L40.02,26.484 Z M26.604,25.158 C28.502,25.158 29.334,25.86 29.334,27.42 C29.334,29.032 28.346,29.682 26.604,29.682 L22.418,29.682 L22.418,25.158 L26.604,25.158 Z M71.0666667,10.3333333 L58.7666667,10.3333333 C58.425,10.3333333 58.0833333,10.6777778 58.0833333,11.0222222 L58.0833333,16.1888889 C58.0833333,16.8777777 58.425,17.2222222 58.7666667,17.2222222 L70.725,17.2222222 C71.4083333,17.2222222 71.75,16.8777777 71.75,16.5333333 L71.75,11.0222222 C71.75,10.6777777 71.4083333,10.3333333 71.0666667,10.3333333 Z" id="形状结合"></path>
        </g>
    </g>
</svg>