<svg xmlns="http://www.w3.org/2000/svg" width="127" height="20" viewBox="0 0 127 20">
    <defs>
        <linearGradient id="hjb5djaqfa" x1="0%" x2="100%" y1="21.225%" y2="74.589%">
            <stop offset="0%" stop-color="#DB351F"/>
            <stop offset="100%" stop-color="#7F0F00"/>
        </linearGradient>
    </defs>
    <g fill="none" fill-rule="evenodd">
        <g>
            <g>
                <path fill="url(#hjb5djaqfa)" fill-rule="nonzero" d="M26.364 15.556v2.222C26.364 19 25.375 20 24.167 20H2.197C.989 20 0 19 0 17.778v-2.222h26.364zM24.167 0c1.208 0 2.197 1 2.197 2.222v10h-2.06l-1.565-2.974 1.739-1.787h-.928l-2.115 2.173V7.46h-.777l-.001 4.761h-1.112v-4.76h-.743v3.757L16.729 7.46h-.995l-.001 4.761h-.856l-1.6-4.803h-.786l-1.602 4.803h-.88c.213-.249.325-.596.325-1.045 0-.663-.318-1.107-.82-1.292.435-.16.695-.495.695-1.107 0-1.04-.686-1.304-1.605-1.316H6.43v4.76H0v-10C0 1 .989 0 2.197 0h21.97zM13.845 11.462l.253.76h-2.451l.25-.76h1.948zm2.641-2.919l2.029 3.679h-2.029V8.543zm5.701 1.267l1.265 2.412h-2.018v-1.64l.753-.772zm-13.508.444c.593 0 .877.37.877.906 0 .486-.25.897-.877.897H7.208v-1.803h1.47zm4.188-1.71l.76 2.264h-1.513l.753-2.265zm-4.314-.429c.61 0 .878.227.878.73 0 .52-.318.73-.878.73H7.208v-1.46h1.345z" transform="translate(-821 -285) translate(821 285)"/>
                <text fill="#000" font-family="PingFangSC-Medium, PingFang SC" font-size="14" font-weight="400" transform="translate(-821 -285) translate(821 285)">
                    <tspan x="33" y="19">Bank Transfer</tspan>
                </text>
            </g>
        </g>
    </g>
</svg>
