<svg xmlns="http://www.w3.org/2000/svg" xmlns:xlink="http://www.w3.org/1999/xlink" width="450" height="535" viewBox="0 0 450 535">
    <defs>
        <linearGradient id="prefix__e" x1="50%" x2="48.685%" y1="0%" y2="100.738%">
            <stop offset="0%" stop-color="#FFF"/>
            <stop offset="100%" stop-color="#FFF" stop-opacity="0"/>
            <stop offset="100%" stop-color="#D7341E"/>
        </linearGradient>
        <linearGradient id="prefix__h" x1="50%" x2="48.678%" y1="0%" y2="100.738%">
            <stop offset="0%" stop-color="#FFF"/>
            <stop offset="100%" stop-color="#FFF" stop-opacity="0"/>
            <stop offset="100%" stop-color="#D7341E"/>
        </linearGradient>
        <linearGradient id="prefix__k" x1="50%" x2="50%" y1="0%" y2="100%">
            <stop offset="0%" stop-color="#DB351F" stop-opacity=".705"/>
            <stop offset="66.472%" stop-color="#DB351F" stop-opacity="0"/>
            <stop offset="100%" stop-color="#DB351F" stop-opacity="0"/>
        </linearGradient>
        <linearGradient id="prefix__l" x1="50%" x2="50%" y1="0%" y2="100%">
            <stop offset="0%" stop-color="#F6F8FA"/>
            <stop offset="100%" stop-color="#FBFCFD" stop-opacity=".363"/>
        </linearGradient>
        <linearGradient id="prefix__m" x1="-2.949%" x2="89.515%" y1="48.127%" y2="50%">
            <stop offset="0%" stop-color="#FFF"/>
            <stop offset="100%" stop-color="#FBFCFD" stop-opacity="0"/>
        </linearGradient>
        <linearGradient id="prefix__p" x1="-2.949%" x2="89.515%" y1="49.736%" y2="50%">
            <stop offset="0%" stop-color="#DB351F"/>
            <stop offset="100%" stop-color="#FBFCFD" stop-opacity="0"/>
        </linearGradient>
        <linearGradient id="prefix__q" x1="-2.949%" x2="50%" y1="49.736%" y2="50.264%">
            <stop offset="0%" stop-color="#DB351F"/>
            <stop offset="100%" stop-color="#FBFCFD" stop-opacity="0"/>
        </linearGradient>
        <linearGradient id="prefix__r" x1="50%" x2="50%" y1="0%" y2="100%">
            <stop offset="0%" stop-color="#DB351F" stop-opacity=".705"/>
            <stop offset="66.472%" stop-color="#DB351F" stop-opacity="0"/>
            <stop offset="100%" stop-color="#DB351F" stop-opacity="0"/>
        </linearGradient>
        <linearGradient id="prefix__s" x1="50%" x2="50%" y1="0%" y2="100%">
            <stop offset="0%" stop-color="#DB351F" stop-opacity=".705"/>
            <stop offset="100%" stop-color="#DB351F" stop-opacity="0"/>
        </linearGradient>
        <filter id="prefix__c" width="136.5%" height="120.9%" x="-16.9%" y="-15.7%" filterUnits="objectBoundingBox">
            <feOffset dx="10" dy="-100" in="SourceAlpha" result="shadowOffsetOuter1"/>
            <feGaussianBlur in="shadowOffsetOuter1" result="shadowBlurOuter1" stdDeviation="30"/>
            <feColorMatrix in="shadowBlurOuter1" values="0 0 0 0 0 0 0 0 0 0 0 0 0 0 0 0 0 0 0.2 0"/>
        </filter>
        <filter id="prefix__f" width="136.4%" height="120.9%" x="-14.3%" y="-15.7%" filterUnits="objectBoundingBox">
            <feOffset dx="30" dy="-100" in="SourceAlpha" result="shadowOffsetOuter1"/>
            <feGaussianBlur in="shadowOffsetOuter1" result="shadowBlurOuter1" stdDeviation="30"/>
            <feColorMatrix in="shadowBlurOuter1" values="0 0 0 0 0 0 0 0 0 0 0 0 0 0 0 0 0 0 0.3 0"/>
        </filter>
        <filter id="prefix__i" width="179.7%" height="292.9%" x="-39.9%" y="-82.9%" filterUnits="objectBoundingBox">
            <feOffset dy="10" in="SourceAlpha" result="shadowOffsetOuter1"/>
            <feGaussianBlur in="shadowOffsetOuter1" result="shadowBlurOuter1" stdDeviation="20"/>
            <feColorMatrix in="shadowBlurOuter1" values="0 0 0 0 0.858823529 0 0 0 0 0.207843137 0 0 0 0 0.121568627 0 0 0 0.126584353 0"/>
        </filter>
        <filter id="prefix__n" width="179.7%" height="292.9%" x="-39.9%" y="-82.9%" filterUnits="objectBoundingBox">
            <feOffset dy="10" in="SourceAlpha" result="shadowOffsetOuter1"/>
            <feGaussianBlur in="shadowOffsetOuter1" result="shadowBlurOuter1" stdDeviation="20"/>
            <feColorMatrix in="shadowBlurOuter1" values="0 0 0 0 0.858823529 0 0 0 0 0.207843137 0 0 0 0 0.121568627 0 0 0 0.126584353 0"/>
        </filter>
        <path id="prefix__d" d="M766.821 -1106L305 422 611.179 422 1073 -1106z"/>
        <path id="prefix__g" d="M38.523 -197L-424.5 1331 -117.523 1331 345.5 -197z"/>
        <path id="prefix__j" d="M155 0c4.418 0 8 3.582 8 8v21.483l.097-.046-.097 9.745V49c0 .45-.037.89-.108 1.32l-.12 12.01c-.01 1.105-.915 1.991-2.02 1.98-.432-.004-.851-.148-1.195-.411L150.545 57H8c-4.418 0-8-3.582-8-8V8c0-4.418 3.582-8 8-8h147z"/>
        <path id="prefix__o" d="M155 0c4.418 0 8 3.582 8 8v21.483l.097-.046-.097 9.745V49c0 .45-.037.89-.108 1.32l-.12 12.01c-.01 1.105-.915 1.991-2.02 1.98-.432-.004-.851-.148-1.195-.411L150.545 57H8c-4.418 0-8-3.582-8-8V8c0-4.418 3.582-8 8-8h147z"/>
        <rect id="prefix__a" width="450" height="535" x="0" y="0" rx="15"/>
    </defs>
    <g fill="none" fill-rule="evenodd">
        <mask id="prefix__b" fill="#fff">
            <use xlink:href="#prefix__a"/>
        </mask>
        <use fill="#FFF" xlink:href="#prefix__a"/>
        <g mask="url(#prefix__b)" opacity=".15">
            <use fill="#000" filter="url(#prefix__c)" xlink:href="#prefix__d"/>
            <use fill="url(#prefix__e)" xlink:href="#prefix__d"/>
        </g>
        <g mask="url(#prefix__b)" opacity=".15">
            <use fill="#000" filter="url(#prefix__f)" xlink:href="#prefix__g"/>
            <use fill="url(#prefix__h)" xlink:href="#prefix__g"/>
        </g>
        <g mask="url(#prefix__b)">
            <g transform="translate(267 349)">
                <use fill="#000" filter="url(#prefix__i)" xlink:href="#prefix__j"/>
                <use fill="#FFF" xlink:href="#prefix__j"/>
            </g>
        </g>
        <g mask="url(#prefix__b)" opacity=".5">
            <g transform="translate(247 291)">
                <rect width="197" height="299" x="85" fill="url(#prefix__k)" rx="15"/>
                <rect width="183" height="299" x="97" y="19" fill="url(#prefix__l)" rx="15"/>
                <rect width="155" height="30" x="116" y="91" fill="url(#prefix__m)" opacity=".575" rx="15"/>
                <rect width="155" height="30" x="116" y="131" fill="url(#prefix__m)" opacity=".575" rx="15"/>
                <g transform="translate(0 39)">
                    <use fill="#000" filter="url(#prefix__n)" xlink:href="#prefix__o"/>
                    <use fill="#FFF" xlink:href="#prefix__o"/>
                    <rect width="110" height="8" x="53" y="13" fill="url(#prefix__p)" rx="4"/>
                    <rect width="110" height="8" x="53" y="31" fill="url(#prefix__q)" rx="4"/>
                </g>
                <rect width="37" height="4" x="165" y="8" fill="#FFF" rx="2"/>
            </g>
        </g>
        <g fill-rule="nonzero" mask="url(#prefix__b)">
            <g>
                <path fill="url(#prefix__r)" d="M13.869 34C.622 26.308-.111 15.292.01 5.662c0 0 9.804-1.462 14.302-5.662 4.39 4.2 14.149 5.662 14.149 5.662-.123 9.63-1.148 20.661-14.593 28.338z" transform="translate(260 341)"/>
                <path fill="#FFF" d="M13.768 31.846C2.236 25.14 1.595 15.505 1.701 7.103c0 0 8.524-1.28 12.45-4.95 3.818 3.67 12.31 4.95 12.31 4.95-.106 8.402-.992 18.037-12.693 24.743z" transform="translate(260 341)"/>
                <path fill="url(#prefix__s)" d="M13.875 30.308C3.574 24.327 2.993 15.747 3.085 8.259c0 0 7.626-1.138 11.126-4.413 3.408 3.275 11.02 4.413 11.02 4.413-.092 7.488-.887 16.068-11.356 22.049z" transform="translate(260 341)"/>
                <path fill="#FFF" d="M18.295 11.711c.359-.403.976-.438 1.379-.078.369.33.429.876.16 1.275l-.082.105-5.806 6.507c-.33.37-.88.43-1.279.156l-.105-.082-3.933-3.558c-.4-.362-.43-.98-.069-1.38.332-.367.878-.424 1.275-.152l.105.082 3.203 2.898 5.152-5.773z" transform="translate(260 341)"/>
            </g>
        </g>
    </g>
</svg>
