<svg xmlns="http://www.w3.org/2000/svg" width="19" height="19" viewBox="0 0 19 19">
    <g fill="none" fill-rule="evenodd">
        <g>
            <g>
                <path d="M0 0H21V21H0z" transform="translate(-131 -138) translate(130 137)"/>
                <path fill="#13171A" d="M13.5 1.5c1.657 0 3 1.343 3 3 1.657 0 3 1.343 3 3v9c0 1.657-1.343 3-3 3h-9c-1.305 0-2.403-.838-2.817-2H4.5c-1.657 0-3-1.343-3-3v-10c0-1.657 1.343-3 3-3zm3 4.6h-9c-.728 0-1.326.555-1.394 1.265L6.1 7.5v9c0 .728.555 1.325 1.265 1.394l.135.005h9c.727 0 1.326-.554 1.393-1.264l.007-.135v-9c0-.728-.556-1.326-1.266-1.394L16.5 6.1zm-3-3h-9c-.728 0-1.326.555-1.394 1.265L3.1 4.5v10c0 .728.555 1.325 1.265 1.394l.135.005V7.5c0-1.657 1.343-3 3-3h7.4c0-.728-.556-1.326-1.266-1.394L13.5 3.1zm1.7 9.8c.441 0 .8.357.8.8 0 .442-.359.8-.8.8H8.8c-.442 0-.8-.358-.8-.8 0-.442.358-.8.8-.8zm0-3.4c.441 0 .8.358.8.8 0 .442-.359.8-.8.8H8.8c-.442 0-.8-.358-.8-.8 0-.442.358-.8.8-.8z" transform="translate(-131 -138) translate(130 137)"/>
            </g>
        </g>
    </g>
</svg>
