<svg xmlns="http://www.w3.org/2000/svg" width="16" height="16" viewBox="0 0 16 16">
    <g fill="none" fill-rule="evenodd">
        <g fill="#DB351F" fill-rule="nonzero">
            <g>
                <path d="M80 255c4.418 0 8 3.582 8 8s-3.582 8-8 8-8-3.582-8-8 3.582-8 8-8zm0 1.28c-3.711 0-6.72 3.009-6.72 6.72s3.009 6.72 6.72 6.72 6.72-3.009 6.72-6.72-3.009-6.72-6.72-6.72zm-.024 2.944h.046c.327 0 .596.244.635.56l.005.08.001 4.618 1.526-1.679c.218-.24.576-.276.836-.097l.068.054c.24.218.276.576.097.836l-.054.068-2.64 2.904c-.117.129-.262.194-.41.208l-.086.002h-.002l-.086-.002c-.118-.01-.234-.055-.336-.138l-.074-.07-2.64-2.904-.054-.068c-.159-.23-.148-.54.025-.758l.072-.078.069-.054c.23-.159.54-.148.758.025l.078.072 1.525 1.679.001-4.618.005-.08c.04-.316.309-.56.635-.56z" transform="translate(-72 -255)"/>
            </g>
        </g>
    </g>
</svg>
