<svg xmlns="http://www.w3.org/2000/svg" width="26" height="26" viewBox="0 0 26 26">
    <g fill="none">
        <path fill="#FBBC05" d="M5.443 12.98c0-.842.144-1.65.398-2.407L1.378 7.234C.48 9.017.015 10.984.018 12.98c0 2.065.489 4.013 1.357 5.742l4.462-3.344c-.26-.773-.393-1.582-.394-2.398"/>
        <path fill="#EA4335" d="M13.283 5.316c1.868 0 3.556.648 4.883 1.71l3.86-3.774C19.673 1.248 16.658.01 13.282.01 8.041.01 3.535 2.945 1.378 7.234l4.466 3.339c1.028-3.058 3.96-5.257 7.44-5.257"/>
        <path fill="#34A853" d="M13.283 20.644c-3.48 0-6.412-2.198-7.442-5.256l-4.463 3.338c2.156 4.29 6.662 7.224 11.905 7.224 3.235 0 6.323-1.124 8.643-3.232l-4.239-3.208c-1.195.737-2.7 1.134-4.405 1.134"/>
        <path fill="#4285F4" d="M25.945 12.98c0-.766-.122-1.592-.302-2.358h-12.36v5.011h7.114c-.355 1.71-1.323 3.023-2.709 3.877l4.238 3.208c2.435-2.213 4.019-5.51 4.019-9.738"/>
    </g>
</svg>
