<svg xmlns="http://www.w3.org/2000/svg" width="26" height="26" viewBox="0 0 26 26">
    <path fill="#A3AEB7" d="M5.823 15.388c1.03 3.058 3.961 5.256 7.442 5.256l.361-.006c1.437-.048 2.72-.385 3.783-.975l.26-.153 4.239 3.208c-2.32 2.108-5.408 3.232-8.643 3.232-5.243 0-9.749-2.934-11.905-7.224zm19.802-4.766c.18.766.302 1.592.302 2.358 0 4.229-1.584 7.525-4.02 9.738l-4.236-3.208c1.385-.854 2.353-2.168 2.708-3.877h-7.115v-5.01zM1.36 7.234l4.463 3.339c-.254.757-.397 1.565-.397 2.407 0 .816.133 1.625.393 2.398l-4.461 3.344C.488 16.993 0 15.045 0 12.98c-.003-1.995.463-3.963 1.36-5.746zM13.265.01c3.376 0 6.39 1.238 8.742 3.242l-3.859 3.773c-1.326-1.06-3.014-1.709-4.883-1.709-3.48 0-6.411 2.199-7.44 5.257L1.36 7.234C3.518 2.945 8.023.01 13.265.01z"/>
</svg>
