<svg xmlns="http://www.w3.org/2000/svg" width="16" height="16" viewBox="0 0 16 16">
    <g fill="none" fill-rule="evenodd">
        <g fill="#657787" fill-rule="nonzero">
            <g>
                <g>
                    <path d="M8 0c4.418 0 8 3.582 8 8s-3.582 8-8 8-8-3.582-8-8 3.582-8 8-8zm0 1.28C4.289 1.28 1.28 4.289 1.28 8S4.289 14.72 8 14.72s6.72-3.009 6.72-6.72S11.711 1.28 8 1.28zm.768 4.442v.217c0 .495-.085.9-.256 1.216-.162.342-.644.87-1.446 1.587l-.218.244c-.239.307-.358.618-.358.934 0 .435.123.785.37 1.05.257.256.62.384 1.089.384.58 0 .998-.184 1.254-.55.23-.308.346-.743.346-1.306h1.344c0 .93-.269 1.664-.807 2.201-.537.546-1.28.82-2.227.82-.828 0-1.493-.227-1.997-.679-.512-.444-.768-1.054-.768-1.83 0-.623.163-1.144.487-1.562.11-.137.47-.47 1.075-.998.239-.197.418-.419.538-.666.136-.247.204-.53.204-.845v-.217h1.37zM8.09 3.2c.264 0 .486.09.665.269.18.179.269.397.269.653 0 .273-.09.49-.269.652-.17.171-.392.256-.665.256-.282 0-.508-.085-.679-.256-.179-.162-.269-.38-.269-.652 0-.256.094-.478.282-.666.188-.17.41-.256.666-.256z" transform="translate(-55 -272) rotate(-180 35.5 144)"/>
                </g>
            </g>
        </g>
    </g>
</svg>
