<svg xmlns="http://www.w3.org/2000/svg" xmlns:xlink="http://www.w3.org/1999/xlink" width="135" height="216" viewBox="0 0 135 216">
    <defs>
        <path id="8mdn0dubya" d="M0 0H21V21H0z"/>
        <path id="7fftjnf6uc" d="M0 0H16V16H0z"/>
        <path id="4gqz1mxdze" d="M0 0H16V16H0z"/>
        <path id="f6fv9vyh0g" d="M0 0H16V16H0z"/>
        <path id="xhqwho5qri" d="M0 0H20V20H0z"/>
        <path id="7hv7iurtak" d="M0 0L17.965 0 17.965 17.965 0 17.965z"/>
        <path id="mstastgqpn" d="M0 0L17.965 0 17.965 17.965 0 17.965z"/>
        <path id="063nthjw2p" d="M0 0L17.965 0 17.965 17.965 0 17.965z"/>
        <path id="p08i0d8bgr" d="M0 0L17.965 0 17.965 17.965 0 17.965z"/>
        <path id="r1pb0np8pt" d="M0 0L17.965 0 17.965 17.965 0 17.965z"/>
        <path id="5f1nt7ssvv" d="M0 0L20.959 0 20.959 20.959 0 20.959z"/>
        <path id="pwycyq5ufC" d="M0.292 5.333L-11.333 42 -3.626 42 8 5.333z"/>
        <path id="pj6y2fuoxF" d="M22.959 -20.667L11.333 16 19.041 16 30.667 -20.667z"/>
        <linearGradient id="d3ie7j6m6l" x1="12.441%" x2="75.673%" y1=".003%" y2="99.997%">
            <stop offset="0%" stop-color="#EF6542"/>
            <stop offset="100%" stop-color="#C9240E"/>
        </linearGradient>
        <linearGradient id="ypf59heedw" x1="12.441%" x2="75.673%" y1=".003%" y2="99.997%">
            <stop offset="0%" stop-color="#EF6542"/>
            <stop offset="100%" stop-color="#C9240E"/>
        </linearGradient>
        <linearGradient id="aoa34cqjoy" x1="20.865%" x2="67.798%" y1="11.872%" y2="100%">
            <stop offset="0%" stop-color="#FC8263"/>
            <stop offset="100%" stop-color="#D1301B"/>
        </linearGradient>
        <linearGradient id="f4h7tu2gtD" x1="48.96%" x2="59.619%" y1="16.992%" y2="56.422%">
            <stop offset="0%" stop-color="#F97C5E" stop-opacity=".404"/>
            <stop offset="100%" stop-color="#FF1F00"/>
        </linearGradient>
        <linearGradient id="ur9ox5gbcG" x1="46.681%" x2="40.651%" y1="54.175%" y2="100%">
            <stop offset="0%" stop-color="#FF2E11"/>
            <stop offset="100%" stop-color="#F97C5E" stop-opacity="0"/>
        </linearGradient>
        <filter id="f9dx6hpaxB" width="565.5%" height="372.7%" x="-232.8%" y="-68.2%" filterUnits="objectBoundingBox">
            <feOffset dy="30" in="SourceAlpha" result="shadowOffsetOuter1"/>
            <feGaussianBlur in="shadowOffsetOuter1" result="shadowBlurOuter1" stdDeviation="10"/>
            <feColorMatrix in="shadowBlurOuter1" values="0 0 0 0 0 0 0 0 0 0 0 0 0 0 0 0 0 0 1 0"/>
        </filter>
        <filter id="lavs87r9sE" width="513.8%" height="318.2%" x="-258.6%" y="-163.6%" filterUnits="objectBoundingBox">
            <feOffset dx="-10" dy="-20" in="SourceAlpha" result="shadowOffsetOuter1"/>
            <feGaussianBlur in="shadowOffsetOuter1" result="shadowBlurOuter1" stdDeviation="10"/>
            <feColorMatrix in="shadowBlurOuter1" values="0 0 0 0 0.731148098 0 0 0 0 0 0 0 0 0 0 0 0 0 1 0"/>
        </filter>
        <circle id="5nwntploiz" cx="10" cy="10" r="10"/>
    </defs>
    <g fill="none" fill-rule="evenodd">
        <mask id="320b9or44b" fill="#fff">
            <use xlink:href="#8mdn0dubya"/>
        </mask>
        <path fill="#13171A" fill-rule="nonzero" d="M11.28.35l7.35 4.48c.298.182.48.506.48.855v13.188c0 1.105-.895 2-2 2H3.89c-1.105 0-2-.895-2-2V5.685c0-.35.182-.673.48-.854L9.72.349c.479-.292 1.081-.292 1.56 0zm-.779 1.398L3.49 6.022v12.851c0 .193.137.355.32.392l.08.008h13.22c.193 0 .355-.137.392-.32l.008-.08V6.021l-7.009-4.273zM10.5 7.63c2.21 0 4 1.79 4 4s-1.79 4-4 4-4-1.79-4-4 1.79-4 4-4zm0 1.6c-1.325 0-2.4 1.075-2.4 2.4s1.075 2.4 2.4 2.4 2.4-1.075 2.4-2.4-1.075-2.4-2.4-2.4z" mask="url(#320b9or44b)"/>
        <g transform="translate(111)">
            <mask id="gho8nktdud" fill="#fff">
                <use xlink:href="#7fftjnf6uc"/>
            </mask>
            <g fill="#657786" mask="url(#gho8nktdud)">
                <path d="M4.5 14l7.374-7.375-2.5-2.5L2 11.5v2.27c0 .126.103.229.229.229H4.5zm8.094-8.094l1.218-1.218c.125-.123.192-.294.188-.468 0-.189-.063-.344-.188-.469L12.25 2.187c-.124-.124-.294-.191-.468-.187-.188 0-.344.063-.469.188l-1.22 1.218 2.501 2.5z"/>
            </g>
        </g>
        <g transform="translate(111 17)">
            <mask id="u44c1bvezf" fill="#fff">
                <use xlink:href="#4gqz1mxdze"/>
            </mask>
            <path fill="#657786" fill-rule="nonzero" d="M14.567 12.733v-2.9H16V6.9H8.495c-.319-.842-.853-1.535-1.604-2.081C6.141 4.273 5.3 4 4.367 4c-1.206 0-2.235.426-3.088 1.28C.426 6.131 0 7.16 0 8.366c0 1.205.426 2.234 1.28 3.087.852.853 1.881 1.28 3.087 1.28.932 0 1.774-.273 2.524-.82.75-.545 1.285-1.239 1.604-2.08h3.138v2.9h2.934zm-10.2-2.9c-.41 0-.762-.136-1.058-.409-.273-.295-.41-.648-.41-1.057 0-.41.143-.756.427-1.04.285-.285.631-.427 1.04-.427.41 0 .757.142 1.041.426.285.285.427.631.427 1.04 0 .41-.142.757-.427 1.041-.284.285-.63.427-1.04.427z" mask="url(#u44c1bvezf)"/>
        </g>
        <g transform="translate(111 34)">
            <mask id="kihyiozydh" fill="#fff">
                <use xlink:href="#f6fv9vyh0g"/>
            </mask>
            <path fill="#657786" fill-rule="nonzero" d="M7.986 11.157l4.958-4.926h-2.843V2H5.87v4.231H3.06l4.926 4.926zM12.944 14v-1.421H3.06V14h9.884z" mask="url(#kihyiozydh)"/>
        </g>
        <g transform="translate(44 181)">
            <mask id="lkqfr6bkmj" fill="#fff">
                <use xlink:href="#xhqwho5qri"/>
            </mask>
            <path fill="#657786" fill-rule="nonzero" d="M10.194 13.736l5.47-5.434c.118-.117.118-.307.002-.424-.057-.057-.133-.089-.213-.089h-2.826V2.8c0-.166-.135-.3-.3-.3h-4.69c-.165 0-.3.134-.3.3v4.99H4.55c-.165 0-.3.134-.3.3 0 .079.032.155.088.211l5.434 5.434c.116.117.306.117.423 0zm5.986 2.876c0-.491-.397-.889-.888-.889H4.713c-.49 0-.888.398-.888.889 0 .49.398.888.888.888h10.579c.49 0 .888-.398.888-.888z" mask="url(#lkqfr6bkmj)" transform="rotate(-180 10.003 10)"/>
        </g>
        <g>
            <path d="M0 0H21V21H0z" transform="translate(22)"/>
            <path fill="#DB351F" d="M11.28.35l7.35 4.48c.298.182.48.506.48.855v13.188c0 1.105-.895 2-2 2H3.89c-1.105 0-2-.895-2-2V5.685c0-.35.182-.673.48-.854L9.72.349c.479-.292 1.081-.292 1.56 0zm-.78 7.023c-2.21 0-4 1.791-4 4 0 2.21 1.79 4 4 4s4-1.79 4-4c0-2.209-1.79-4-4-4z" transform="translate(22)"/>
        </g>
        <g>
            <path d="M0 0H21V21H0z" transform="translate(0 44)"/>
            <path fill="#13171A" fill-rule="nonzero" d="M20.5 15.5c0 1.657-1.343 3-3 3h-14c-1.657 0-3-1.343-3-3v-10c0-1.657 1.343-3 3-3h14c1.657 0 3 1.343 3 3v10zm-3-11.4h-14c-.728 0-1.326.555-1.394 1.265L2.1 5.5v10c0 .728.555 1.326 1.265 1.394l.135.006h14c.728 0 1.326-.555 1.394-1.265l.006-.135-.001-4.062H11.3c-.442 0-.8-.358-.8-.8 0-.441.358-.8.8-.8h7.599L18.9 5.5c0-.728-.555-1.326-1.265-1.394L17.5 4.1z" transform="translate(0 44)"/>
        </g>
        <g>
            <path d="M0 0H21V21H0z" transform="translate(22 44)"/>
            <path fill="#DB351F" d="M17.5 2.5c1.657 0 3 1.343 3 3v10c0 1.657-1.343 3-3 3h-14c-1.657 0-3-1.343-3-3v-10c0-1.657 1.343-3 3-3h14zm1 6.6h-6.6c-.773 0-1.4.627-1.4 1.4 0 .773.627 1.4 1.4 1.4h6.6c.22 0 .4-.18.4-.4v-2c0-.22-.18-.4-.4-.4z" transform="translate(22 44)"/>
        </g>
        <g>
            <path d="M0 0H21V21H0z" transform="translate(0 66)"/>
            <path fill="#13171A" fill-rule="nonzero" d="M12.502 18.5c0 1.105-.896 2-2 2-1.105 0-2-.895-2-2zm-.987-18c3.314 0 6 2.686 6 6v6.218c0 .068.014.134.04.196l1.652 3.89c.108.255-.011.548-.265.656-.062.026-.128.04-.196.04H2.25c-.276 0-.5-.224-.5-.5 0-.066.013-.13.038-.191l1.69-4.08c.024-.06.037-.126.037-.191V6.5c0-3.314 2.687-6 6-6h2zm0 1.6h-2c-2.358 0-4.283 1.856-4.395 4.187l-.005.213v6.038c0 .22-.034.439-.102.648l-.057.155L3.895 15.9h13.19l-1.003-2.361c-.088-.208-.142-.428-.16-.652l-.007-.169V6.5c0-2.359-1.855-4.284-4.187-4.395l-.213-.005z" transform="translate(0 66)"/>
        </g>
        <g>
            <path d="M0 0H21V21H0z" transform="translate(22 66)"/>
            <path fill="#DB351F" d="M12.502 18.5c0 1.105-.896 2-2 2-1.105 0-2-.895-2-2zm-.987-18c3.314 0 6 2.686 6 6v6.218c0 .068.014.134.04.196l1.652 3.89c.108.255-.011.548-.265.656-.062.026-.128.04-.196.04H2.25c-.276 0-.5-.224-.5-.5 0-.066.013-.13.038-.191l1.69-4.08c.024-.06.037-.126.037-.191V6.5c0-3.314 2.687-6 6-6h2z" transform="translate(22 66)"/>
        </g>
        <g>
            <path d="M0 0H21V21H0z" transform="translate(0 88)"/>
            <path fill="#13171A" fill-rule="nonzero" d="M16.7.58c1.105 0 2 .895 2 2v16.844c0 .552-.448 1-1 1-.236 0-.465-.084-.646-.236L10.5 14.643l-6.554 5.545c-.422.356-1.053.304-1.41-.118-.152-.18-.236-.41-.236-.646V2.58c0-1.105.895-2 2-2h12.4zm0 1.6H4.3c-.193 0-.355.137-.392.32l-.008.08v15.55l5.567-4.709c.556-.471 1.355-.502 1.944-.094l.122.094 5.567 4.71V2.58c0-.193-.137-.355-.32-.392l-.08-.008z" transform="translate(0 88)"/>
        </g>
        <g>
            <path d="M0 0H21V21H0z" transform="translate(22 88)"/>
            <path fill="#DB351F" d="M16.7.58c1.105 0 2 .895 2 2v16.844c0 .552-.448 1-1 1-.236 0-.465-.084-.646-.236L10.5 14.643l-6.554 5.545c-.422.356-1.053.304-1.41-.118-.152-.18-.236-.41-.236-.646V2.58c0-1.105.895-2 2-2h12.4zm-2 3H6.3c-.442 0-.8.358-.8.8 0 .442.358.8.8.8h8.4c.442 0 .8-.358.8-.8 0-.442-.358-.8-.8-.8z" transform="translate(22 88)"/>
        </g>
        <g>
            <path d="M0 0H21V21H0z" transform="translate(0 110)"/>
            <path fill="#13171A" fill-rule="nonzero" d="M16.5 1.2c1.657 0 3 1.343 3 3v12.6c0 1.657-1.343 3-3 3h-12c-1.657 0-3-1.343-3-3V4.2c0-1.657 1.343-3 3-3h12zm0 1.6h-12c-.728 0-1.326.555-1.394 1.265L3.1 4.2v12.6c0 .728.555 1.326 1.265 1.394l.135.006h12c.728 0 1.326-.555 1.394-1.265l.006-.135V4.2c0-.728-.555-1.326-1.265-1.394L16.5 2.8zm-9.3 9.4c.442 0 .8.358.8.8 0 .442-.358.8-.8.8H5.8c-.442 0-.8-.358-.8-.8 0-.442.358-.8.8-.8h1.4zm8 0c.442 0 .8.358.8.8 0 .442-.358.8-.8.8H9.8c-.442 0-.8-.358-.8-.8 0-.442.358-.8.8-.8h5.4zm0-5c.442 0 .8.358.8.8 0 .442-.358.8-.8.8H5.8c-.442 0-.8-.358-.8-.8 0-.442.358-.8.8-.8h9.4z" transform="translate(0 110)"/>
        </g>
        <g>
            <path d="M0 0H21V21H0z" transform="translate(0 22)"/>
            <path stroke="#13171A" stroke-width="1.6" d="M3.5 1.8c-1.215 0-2.2.985-2.2 2.2v12.6c0 1.215.985 2.2 2.2 2.2h14c1.215 0 2.2-.985 2.2-2.2V4c0-1.215-.985-2.2-2.2-2.2h-14z" transform="translate(0 22)"/>
            <path stroke="#13171A" stroke-linecap="round" stroke-linejoin="round" stroke-width="2" d="M5 12.528L7.825 8.994 11.837 12.528 15.531 8" transform="translate(0 22)"/>
        </g>
        <g>
            <path d="M0 0H21V21H0z" transform="translate(22 22)"/>
            <path fill="#DB351F" d="M3.5 1h14c1.657 0 3 1.343 3 3v12.6c0 1.657-1.343 3-3 3h-14c-1.657 0-3-1.343-3-3V4c0-1.657 1.343-3 3-3z" transform="translate(22 22)"/>
            <path stroke="#FFF" stroke-linecap="round" stroke-linejoin="round" stroke-width="2" d="M5 12.528L7.825 8.994 11.837 12.528 15.531 8" transform="translate(22 22)"/>
        </g>
        <g>
            <path d="M0 0H21V21H0z" transform="translate(22 110)"/>
            <path fill="#DB351F" d="M16.5 1.2c1.657 0 3 1.343 3 3v12.6c0 1.657-1.343 3-3 3h-12c-1.657 0-3-1.343-3-3V4.2c0-1.657 1.343-3 3-3h12zM7.2 12H5.8c-.442 0-.8.358-.8.8 0 .442.358.8.8.8h1.4c.442 0 .8-.358.8-.8 0-.442-.358-.8-.8-.8zm8 0H9.8c-.442 0-.8.358-.8.8 0 .442.358.8.8.8h5.4c.442 0 .8-.358.8-.8 0-.442-.358-.8-.8-.8zm0-5H5.8c-.442 0-.8.358-.8.8 0 .442.358.8.8.8h9.4c.442 0 .8-.358.8-.8 0-.442-.358-.8-.8-.8z" transform="translate(22 110)"/>
        </g>
        <g>
            <path d="M0 0H21V21H0z" transform="translate(0 132)"/>
            <path fill="#13171A" fill-rule="nonzero" d="M12.488.5c.274 0 .44.108.499.324l.018.099.375 2.629c.476.2.932.45 1.368.75l.323.236 2.488-.986c.246-.083.433-.045.56.113l.05.074 2.019 3.475c.11.219.087.414-.067.585l-.074.072-2.113 1.643c.063.376.094.704.094.986 0 .211-.017.449-.052.713l-.042.273 2.113 1.643c.192.164.252.353.18.565l-.039.092-2.019 3.475c-.11.219-.279.294-.508.226l-.102-.039-2.488-.986c-.451.326-.902.601-1.353.827l-.338.16-.375 2.628c-.028.247-.163.386-.406.416l-.11.007H8.497c-.247 0-.41-.108-.488-.324l-.029-.099-.375-2.629c-.476-.2-.932-.45-1.367-.75l-.323-.236-2.489.986c-.246.083-.433.045-.56-.113l-.05-.074-2.019-3.475c-.11-.219-.087-.414.067-.585l.074-.072 2.113-1.643c-.031-.376-.047-.704-.047-.986 0-.211.009-.449.026-.713l.02-.273L.94 7.871c-.192-.164-.251-.353-.18-.565l.04-.092 2.018-3.475c.137-.219.31-.294.519-.226l.091.039 2.489.986c.45-.326.901-.601 1.352-.827l.338-.16L7.98.924c.055-.247.194-.386.416-.416l.1-.007h3.991zM11.43 2.247H9.56l-.36 2.51-.883.392c-.36.16-.725.363-1.097.611l-.28.195-.777.56-2.386-.945-.917 1.578 2.014 1.568-.079.943c-.028.33-.041.612-.041.841 0 .172.008.373.023.602l.018.239.079.943-2.015 1.566.918 1.579 2.416-.956.786.6c.332.255.676.468 1.035.641l.271.123.912.384.363 2.53h1.87l.358-2.507.883-.393c.36-.16.726-.363 1.097-.611l.28-.195.777-.56 2.388.946.916-1.58-2.09-1.625.172-1.027c.048-.287.07-.522.07-.699 0-.142-.014-.32-.044-.533l-.026-.166-.171-1.027 2.09-1.625-.917-1.579-2.417.957-.786-.6c-.333-.255-.677-.468-1.036-.641l-.27-.123-.913-.384-.36-2.532zm-.932 4.429c2.113 0 3.825 1.712 3.825 3.824s-1.712 3.824-3.825 3.824c-2.112 0-3.824-1.712-3.824-3.824s1.712-3.824 3.824-3.824zm0 1.748c-1.146 0-2.075.93-2.075 2.076 0 1.147.929 2.076 2.075 2.076 1.147 0 2.076-.93 2.076-2.076 0-1.147-.929-2.076-2.076-2.076z" transform="translate(0 132)"/>
        </g>
        <g>
            <path d="M0 0H21V21H0z" transform="translate(22 132)"/>
            <path fill="#DB351F" fill-rule="nonzero" d="M12.488 20.5c.313 0 .486-.14.517-.423l.375-2.629c.564-.25 1.127-.579 1.69-.986l2.489.986c.282.126.485.063.61-.187l2.019-3.475c.125-.25.078-.47-.14-.657l-2.114-1.643c.063-.376.094-.704.094-.986 0-.282-.031-.61-.094-.986l2.113-1.643c.22-.188.266-.407.141-.657l-2.019-3.475c-.125-.219-.328-.281-.61-.187l-2.488.986c-.532-.407-1.096-.736-1.69-.986l-.376-2.63C12.974.642 12.8.5 12.488.5h-3.99c-.282 0-.454.14-.517.423l-.375 2.629c-.564.25-1.127.579-1.69.986l-2.489-.986c-.25-.126-.453-.063-.61.187L.798 7.214c-.125.25-.078.47.141.657l2.113 1.643c-.031.376-.047.704-.047.986 0 .282.016.61.047.986L.939 13.129c-.219.188-.266.407-.14.657l2.018 3.475c.125.219.329.281.61.187l2.489-.986c.532.407 1.095.736 1.69.986l.375 2.63c.063.281.235.422.517.422h3.99zm-1.995-6.479c-.954 0-1.776-.344-2.465-1.033C7.34 12.3 6.995 11.47 6.995 10.5s.345-1.8 1.033-2.488c.689-.689 1.51-1.033 2.465-1.033.955 0 1.776.344 2.465 1.033.688.688 1.033 1.518 1.033 2.488s-.345 1.8-1.033 2.488c-.689.689-1.51 1.033-2.465 1.033z" transform="translate(22 132)"/>
        </g>
        <g>
            <path d="M0 0H21V21H0z" transform="rotate(90 -66.5 87.5)"/>
            <g transform="rotate(90 -66.5 87.5) translate(.5 .5)">
                <circle cx="10" cy="10" r="9.2" stroke="#13171A" stroke-width="1.6"/>
                <path fill="#13171A" fill-rule="nonzero" d="M7.62 4.462c.273-.3.72-.345 1.045-.122l.085.068 3.63 3.3c.514.467.226 1.303-.431 1.385l-.107.007H4c-.442 0-.8-.358-.8-.8 0-.408.305-.744.7-.794L4 7.5l5.772-.001-2.098-1.907c-.3-.272-.345-.72-.122-1.045l.068-.085zM12.384 15.538c-.273.3-.72.345-1.045.122l-.086-.068-3.63-3.3c-.514-.467-.225-1.303.432-1.385l.107-.007h7.842c.441 0 .8.358.8.8 0 .408-.306.744-.7.794l-.1.006H10.23l2.099 1.908c.3.272.345.72.121 1.045l-.067.085z"/>
            </g>
        </g>
        <g>
            <path d="M0 0H21V21H0z" transform="rotate(90 -55.5 98.5)"/>
            <path fill="#DB351F" d="M10.5.5c5.523 0 10 4.477 10 10s-4.477 10-10 10-10-4.477-10-10 4.477-10 10-10zm6.004 10.9H8.662l-.107.007c-.657.082-.946.918-.432 1.385l3.63 3.3.086.068c.324.223.772.178 1.045-.122l.067-.085c.224-.325.178-.773-.121-1.045L10.73 13h5.774l.1-.006c.394-.05.7-.386.7-.794 0-.442-.359-.8-.8-.8zm-7.34-6.56c-.324-.223-.771-.178-1.044.122l-.068.085c-.223.325-.178.773.122 1.045l2.098 1.907L4.5 8l-.1.006c-.395.05-.7.386-.7.794 0 .442.358.8.8.8h7.842l.107-.007c.657-.082.945-.918.431-1.385l-3.63-3.3z" transform="rotate(90 -55.5 98.5)"/>
        </g>
        <g fill-rule="nonzero">
            <path fill="#657786" d="M12.688 2.188H1.312c-.241 0-.437.195-.437.437v8.75c0 .242.196.438.438.438h11.374c.242 0 .438-.196.438-.438v-8.75c0-.242-.196-.438-.438-.438zm-.547 1.514v7.126H1.859V3.702l-.377-.294.537-.69.585.455h8.793l.585-.455.537.69-.378.294zm-.744-.53L7 6.59 2.603 3.172l-.585-.455-.537.69.377.294 4.67 3.631c.276.215.663.215.94 0l4.673-3.63.377-.294-.537-.69-.584.454z" transform="translate(44 15)"/>
        </g>
        <g fill-rule="nonzero">
            <path fill="#657786" d="M12.688 2.188H1.312c-.241 0-.437.195-.437.437v8.75c0 .242.196.438.438.438h11.374c.242 0 .438-.196.438-.438v-8.75c0-.242-.196-.438-.438-.438zm-10.829.984h10.282v1.64H1.859v-1.64zm10.282 7.656H1.859V6.016h10.282v4.812zM8.9 9.953h2.255c.06 0 .11-.05.11-.11V8.86c0-.06-.05-.109-.11-.109H8.9c-.06 0-.109.05-.109.11v.984c0 .06.05.11.11.11z" transform="translate(44 45)"/>
        </g>
        <g transform="translate(44 60)">
            <mask id="188njjtfcm" fill="#fff">
                <use xlink:href="#7hv7iurtak"/>
            </mask>
            <path fill="url(#d3ie7j6m6l)" d="M17.92 11.513l-.42-1.702c-.058-.23-.093-.576-.092-.914 0-.317.03-.633.08-.848l.4-1.708h.001c.027-.116.04-.233.04-.35-.001-.306-.083-.606-.224-.873-.142-.267-.346-.504-.612-.666l-1.502-.907c-.197-.117-.455-.327-.688-.557-.233-.23-.446-.486-.566-.68L13.412.817c-.162-.262-.399-.46-.664-.6C12.483.08 12.186 0 11.884 0c-.124 0-.248.014-.37.044L9.81.466c-.23.057-.576.091-.914.09-.316.001-.633-.029-.848-.08l-1.707-.4c-.117-.027-.235-.04-.351-.04-.306.001-.606.083-.873.224-.267.142-.504.346-.666.613l-.906 1.501c-.118.197-.327.455-.558.688-.23.233-.485.446-.68.566l-1.49.924c-.262.163-.462.4-.6.664-.138.266-.217.563-.218.865 0 .124.014.248.045.37l.421 1.703c.057.23.092.575.09.914.002.316-.028.633-.08.848l-.4 1.708v-.002c-.027.118-.04.236-.04.352.001.306.083.606.224.873.143.267.346.505.613.666l1.501.906c.197.118.455.328.688.558.234.23.446.485.566.68l.924 1.49c.163.262.4.462.664.6.266.138.563.217.865.218.124 0 .248-.014.37-.044l1.703-.422c.23-.057.576-.092.914-.091.317 0 .633.03.848.08l1.708.4c.116.028.233.04.35.04.306 0 .606-.082.874-.224.266-.141.504-.345.666-.612l.905-1.501c.118-.197.328-.455.558-.688.23-.233.486-.446.68-.566l1.491-.924c.261-.163.46-.4.6-.664.137-.266.216-.563.217-.865 0-.123-.044-.37-.044-.37" mask="url(#188njjtfcm)"/>
            <path fill="#FFF" fill-rule="nonzero" d="M6.5 13l.78-2.148h3.588l.78 2.148h1.5L9.872 4.432H8.276L5 13h1.5zm3.948-3.3H7.7l1.356-3.756h.048L10.448 9.7z" mask="url(#188njjtfcm)"/>
        </g>
        <g transform="translate(44 79)">
            <mask id="4xc2x9gh8o" fill="#fff">
                <use xlink:href="#mstastgqpn"/>
            </mask>
            <path fill="url(#d3ie7j6m6l)" d="M17.92 11.513l-.42-1.702c-.058-.23-.093-.576-.092-.914 0-.317.03-.633.08-.848l.4-1.708h.001c.027-.116.04-.233.04-.35-.001-.306-.083-.606-.224-.873-.142-.267-.346-.504-.612-.666l-1.502-.907c-.197-.117-.455-.327-.688-.557-.233-.23-.446-.486-.566-.68L13.412.817c-.162-.262-.399-.46-.664-.6C12.483.08 12.186 0 11.884 0c-.124 0-.248.014-.37.044L9.81.466c-.23.057-.576.091-.914.09-.316.001-.633-.029-.848-.08l-1.707-.4c-.117-.027-.235-.04-.351-.04-.306.001-.606.083-.873.224-.267.142-.504.346-.666.613l-.906 1.501c-.118.197-.327.455-.558.688-.23.233-.485.446-.68.566l-1.49.924c-.262.163-.462.4-.6.664-.138.266-.217.563-.218.865 0 .124.014.248.045.37l.421 1.703c.057.23.092.575.09.914.002.316-.028.633-.08.848l-.4 1.708v-.002c-.027.118-.04.236-.04.352.001.306.083.606.224.873.143.267.346.505.613.666l1.501.906c.197.118.455.328.688.558.234.23.446.485.566.68l.924 1.49c.163.262.4.462.664.6.266.138.563.217.865.218.124 0 .248-.014.37-.044l1.703-.422c.23-.057.576-.092.914-.091.317 0 .633.03.848.08l1.708.4c.116.028.233.04.35.04.306 0 .606-.082.874-.224.266-.141.504-.345.666-.612l.905-1.501c.118-.197.328-.455.558-.688.23-.233.486-.446.68-.566l1.491-.924c.261-.163.46-.4.6-.664.137-.266.216-.563.217-.865 0-.123-.044-.37-.044-.37" mask="url(#4xc2x9gh8o)"/>
            <path fill="#FFF" fill-rule="nonzero" d="M9.776 13.268c.912 0 1.632-.168 2.136-.504.588-.408.888-1.044.888-1.908 0-.576-.144-1.044-.42-1.38-.288-.348-.708-.576-1.272-.684.432-.168.756-.396.984-.708.228-.336.348-.744.348-1.224 0-.648-.228-1.164-.672-1.548-.48-.408-1.152-.612-2.004-.612H5.84v8.568h3.936zM9.392 8.3H7.244V5.852h2.172c.576 0 .984.096 1.248.288.24.18.372.48.372.888 0 .444-.132.768-.372.972-.252.192-.672.3-1.272.3zm.18 3.816H7.244V9.452h2.364c.624 0 1.08.108 1.368.324.276.216.42.564.42 1.056 0 .48-.192.816-.576 1.032-.3.168-.72.252-1.248.252z" mask="url(#4xc2x9gh8o)"/>
        </g>
        <g transform="translate(44 98)">
            <mask id="8jrqi1aneq" fill="#fff">
                <use xlink:href="#063nthjw2p"/>
            </mask>
            <path fill="url(#d3ie7j6m6l)" d="M17.92 11.513l-.42-1.702c-.058-.23-.093-.576-.092-.914 0-.317.03-.633.08-.848l.4-1.708h.001c.027-.116.04-.233.04-.35-.001-.306-.083-.606-.224-.873-.142-.267-.346-.504-.612-.666l-1.502-.907c-.197-.117-.455-.327-.688-.557-.233-.23-.446-.486-.566-.68L13.412.817c-.162-.262-.399-.46-.664-.6C12.483.08 12.186 0 11.884 0c-.124 0-.248.014-.37.044L9.81.466c-.23.057-.576.091-.914.09-.316.001-.633-.029-.848-.08l-1.707-.4c-.117-.027-.235-.04-.351-.04-.306.001-.606.083-.873.224-.267.142-.504.346-.666.613l-.906 1.501c-.118.197-.327.455-.558.688-.23.233-.485.446-.68.566l-1.49.924c-.262.163-.462.4-.6.664-.138.266-.217.563-.218.865 0 .124.014.248.045.37l.421 1.703c.057.23.092.575.09.914.002.316-.028.633-.08.848l-.4 1.708v-.002c-.027.118-.04.236-.04.352.001.306.083.606.224.873.143.267.346.505.613.666l1.501.906c.197.118.455.328.688.558.234.23.446.485.566.68l.924 1.49c.163.262.4.462.664.6.266.138.563.217.865.218.124 0 .248-.014.37-.044l1.703-.422c.23-.057.576-.092.914-.091.317 0 .633.03.848.08l1.708.4c.116.028.233.04.35.04.306 0 .606-.082.874-.224.266-.141.504-.345.666-.612l.905-1.501c.118-.197.328-.455.558-.688.23-.233.486-.446.68-.566l1.491-.924c.261-.163.46-.4.6-.664.137-.266.216-.563.217-.865 0-.123-.044-.37-.044-.37" mask="url(#8jrqi1aneq)"/>
            <path fill="#FFF" fill-rule="nonzero" d="M9.104 13.454c.924 0 1.716-.264 2.376-.792.708-.564 1.152-1.344 1.344-2.352h-1.368c-.168.648-.456 1.14-.864 1.464-.384.288-.888.444-1.5.444-.936 0-1.632-.3-2.076-.876-.408-.54-.612-1.32-.612-2.328 0-.984.204-1.752.624-2.304.456-.624 1.128-.924 2.028-.924.6 0 1.092.12 1.476.384.396.264.66.672.804 1.236h1.368c-.132-.864-.504-1.56-1.128-2.064-.648-.528-1.488-.792-2.496-.792-1.368 0-2.412.444-3.132 1.356C5.312 6.698 5 7.742 5 9.014c0 1.296.3 2.328.912 3.096.696.888 1.764 1.344 3.192 1.344z" mask="url(#8jrqi1aneq)"/>
        </g>
        <g fill-rule="nonzero">
            <path fill="#657786" d="M11.852 2.323L7.206.74C7.15.72 7.076.71 7 .71c-.075 0-.15.01-.206.03L2.148 2.323c-.114.038-.207.17-.207.29v6.595c0 .12.078.279.173.354l4.712 3.672c.048.037.11.056.173.056.063 0 .125-.019.172-.056l4.713-3.672c.094-.074.172-.232.172-.354V2.613c.003-.12-.09-.25-.204-.29zm-.778 6.623L7 12.12 2.926 8.946V3.099L7 1.71l4.074 1.39v5.846zM5.526 6.197c-.04-.056-.106-.09-.178-.09h-.754c-.09 0-.141.101-.09.174L6.234 8.66c.088.12.268.12.355 0l2.907-4.002c.052-.072 0-.174-.089-.174h-.754c-.07 0-.137.035-.178.09L6.41 7.417l-.885-1.219z" transform="translate(44 30)"/>
        </g>
        <g fill="#657786" fill-rule="nonzero">
            <path d="M10.938.875H3.061c-.482 0-.874.392-.874.875v10.5c0 .483.392.875.874.875h7.876c.482 0 .874-.392.874-.875V1.75c0-.483-.392-.875-.874-.875zm-.11 11.266H3.172V1.859h7.656v10.282zm-4.375-1.422c0 .302.245.547.547.547.302 0 .547-.245.547-.547 0-.302-.245-.547-.547-.547-.302 0-.547.245-.547.547z" transform="translate(44)"/>
        </g>
        <g fill-rule="nonzero">
            <path fill="#DB351F" d="M12.688 2.188H1.312c-.241 0-.437.195-.437.437v8.75c0 .242.196.438.438.438h11.374c.242 0 .438-.196.438-.438v-8.75c0-.242-.196-.438-.438-.438zm-.547 1.514v7.126H1.859V3.702l-.377-.294.537-.69.585.455h8.793l.585-.455.537.69-.378.294zm-.744-.53L7 6.59 2.603 3.172l-.585-.455-.537.69.377.294 4.67 3.631c.276.215.663.215.94 0l4.673-3.63.377-.294-.537-.69-.584.454z" transform="translate(59 15)"/>
        </g>
        <g fill-rule="nonzero">
            <path fill="#DB351F" d="M12.688 2.188H1.312c-.241 0-.437.195-.437.437v8.75c0 .242.196.438.438.438h11.374c.242 0 .438-.196.438-.438v-8.75c0-.242-.196-.438-.438-.438zm-10.829.984h10.282v1.64H1.859v-1.64zm10.282 7.656H1.859V6.016h10.282v4.812zM8.9 9.953h2.255c.06 0 .11-.05.11-.11V8.86c0-.06-.05-.109-.11-.109H8.9c-.06 0-.109.05-.109.11v.984c0 .06.05.11.11.11z" transform="translate(59 45)"/>
        </g>
        <g fill-rule="nonzero">
            <path fill="#DB351F" d="M11.852 2.323L7.206.74C7.15.72 7.076.71 7 .71c-.075 0-.15.01-.206.03L2.148 2.323c-.114.038-.207.17-.207.29v6.595c0 .12.078.279.173.354l4.712 3.672c.048.037.11.056.173.056.063 0 .125-.019.172-.056l4.713-3.672c.094-.074.172-.232.172-.354V2.613c.003-.12-.09-.25-.204-.29zm-.778 6.623L7 12.12 2.926 8.946V3.099L7 1.71l4.074 1.39v5.846zM5.526 6.197c-.04-.056-.106-.09-.178-.09h-.754c-.09 0-.141.101-.09.174L6.234 8.66c.088.12.268.12.355 0l2.907-4.002c.052-.072 0-.174-.089-.174h-.754c-.07 0-.137.035-.178.09L6.41 7.417l-.885-1.219z" transform="translate(59 30)"/>
        </g>
        <g fill-rule="nonzero">
            <path fill="#DB351F" d="M10.938.875H3.061c-.482 0-.874.392-.874.875v10.5c0 .483.392.875.874.875h7.876c.482 0 .874-.392.874-.875V1.75c0-.483-.392-.875-.874-.875zm-.11 11.266H3.172V1.859h7.656v10.282zm-4.375-1.422c0 .302.245.547.547.547.302 0 .547-.245.547-.547 0-.302-.245-.547-.547-.547-.302 0-.547.245-.547.547z" transform="translate(59)"/>
        </g>
        <g fill="#657786" fill-rule="nonzero">
            <path d="M27.383 11.817V5.379c0-.495-.408-.896-.912-.896h-.913v-2.69C25.558.803 24.74 0 23.732 0H1.826C.817 0 0 .803 0 1.793v23.31C0 25.6.409 26 .913 26H26.47c.504 0 .912-.401.912-.897v-6.437c1.092-.379 1.823-1.391 1.826-2.528v-1.793c-.003-1.137-.734-2.15-1.826-2.528zM1.826 1.793h21.906v2.69H1.826v-2.69zm23.732 22.414H1.826V6.276h23.732v5.38h-6.39c-1.512 0-2.738 1.203-2.738 2.689v1.793c0 1.485 1.226 2.69 2.738 2.69h6.39v5.379zm1.825-8.07c0 .496-.408.897-.912.897h-7.303c-.504 0-.912-.4-.912-.896v-1.793c0-.495.408-.897.912-.897h7.303c.504 0 .912.402.912.897v1.793z" transform="translate(44 146)"/>
            <path d="M19.168 14.345H20.994V16.138H19.168z" transform="translate(44 146)"/>
        </g>
        <path fill="#DB351F" fill-rule="nonzero" d="M52.598 173.249c.321-.332.84-.332 1.162 0 .291.3.318.772.079 1.104l-.08.095-5.131 5.303c-.292.302-.748.33-1.07.083l-.091-.083-3.227-3.333c-.32-.332-.32-.869 0-1.2.292-.301.748-.329 1.07-.082l.092.082 2.645 2.734 4.551-4.703z"/>
        <g>
            <g fill-rule="nonzero">
                <path fill="#DB351F" d="M31.36 27.14h-2.813v-2.812c0-.155-.127-.281-.281-.281h-1.688c-.155 0-.281.126-.281.281v2.813h-2.813c-.154 0-.28.126-.28.28v1.688c0 .155.126.282.28.282h2.813v2.812c0 .155.126.281.281.281h1.688c.154 0 .28-.126.28-.28V29.39h2.813c.155 0 .282-.127.282-.282v-1.687c0-.155-.127-.281-.282-.281zm-2.391-10.546c0-3.846-3.09-6.972-6.923-7.032-3.895-.06-7.14 3.136-7.14 7.032 0 2.208 1.02 4.176 2.609 5.467-1.115.516-2.141 1.227-3.038 2.123-1.926 1.923-3.016 4.461-3.086 7.168-.004.159.123.289.28.289h1.97c.15 0 .277-.12.28-.271.068-2.04.894-3.948 2.346-5.397 1.515-1.515 3.526-2.348 5.67-2.348 3.882 0 7.032-3.146 7.032-7.031zm-3.85 3.181c-.85.851-1.98 1.319-3.181 1.319-1.203 0-2.331-.468-3.182-1.319-.861-.86-1.329-2.007-1.319-3.227.011-1.153.472-2.268 1.277-3.094.843-.865 1.972-1.346 3.178-1.36 1.192-.01 2.348.453 3.199 1.286.872.855 1.35 1.997 1.35 3.214-.003 1.202-.471 2.33-1.322 3.181z" transform="translate(74)"/>
            </g>
            <path fill="#DB351F" d="M13.13 17.522c-.03-.306-.048-.615-.048-.928 0-.56.052-1.104.15-1.635.025-.127-.041-.257-.157-.31-.479-.214-.918-.51-1.298-.882-.907-.886-1.395-2.085-1.36-3.354.031-1.128.485-2.2 1.276-3.01.868-.889 2.036-1.374 3.277-1.36 1.121.01 2.204.443 3.023 1.21.278.26.517.548.717.858.07.109.208.154.327.112.619-.214 1.273-.366 1.944-.436.197-.021.31-.232.222-.408-1.143-2.26-3.477-3.821-6.177-3.863-3.896-.06-7.144 3.136-7.144 7.03 0 2.209 1.016 4.177 2.609 5.468-1.118.516-2.148 1.23-3.041 2.123-1.927 1.923-3.017 4.461-3.087 7.172-.004.158.123.288.281.288h1.972c.152 0 .278-.12.282-.27.066-2.04.893-3.948 2.345-5.397 1.033-1.034 2.299-1.75 3.68-2.099.134-.038.225-.168.208-.31z" opacity=".5" transform="translate(74)"/>
        </g>
        <path fill="#657786" fill-rule="nonzero" d="M88.34 50.301c0 .386-.46.699-.852.699-.014 0-.056 0-.07-.002-.015.001.141.002.126.002H74.709c-.392 0-.709-.313-.709-.699V37.699c0-.386.317-.699.709-.699.016 0 .033 0 .049.002l.049-.002h10.652c.385 0 .714.464.727.844.013.397-.31.835-.709.835h-9.23c-.22 0-.4.177-.4.396v9.836c0 .21.173.382.387.382h9.862c.235 0 .426-.188.426-.42v-4.181c0-.386.546-.7.937-.7.392 0 .88.314.88.7V50.3zm-6.566-3.315c-.316.312-.83.312-1.146 0l-.135-.133c-.316-.312-.316-.818 0-1.13l7.989-7.873c.316-.312.83-.312 1.146 0l.135.133c.316.312.316.817 0 1.13l-7.989 7.873z"/>
        <g fill="#657786" fill-rule="nonzero">
            <path d="M28.125 0H1.875C.839 0 0 .836 0 1.867v16.8c0 1.03.84 1.866 1.875 1.866h26.25c1.036 0 1.875-.835 1.875-1.866v-16.8C30 .836 29.16 0 28.125 0zm0 18.667H1.875v-16.8h26.25v16.8z" transform="translate(44 117)"/>
            <path d="M16.875 13.067h-3.75c-.518 0-.938-.418-.938-.934h-1.874c0 1.547 1.259 2.8 2.812 2.8h.938V16.8h1.874v-1.867h.938c1.553 0 2.813-1.253 2.813-2.8 0-1.546-1.26-2.8-2.813-2.8h-3.75c-.518 0-.938-.418-.938-.933 0-.515.42-.933.938-.933h3.75c.518 0 .938.418.938.933h1.875c0-1.546-1.26-2.8-2.813-2.8h-.938V3.733h-1.874V5.6h-.938c-1.553 0-2.813 1.254-2.813 2.8 0 1.546 1.26 2.8 2.813 2.8h3.75c.518 0 .938.418.938.933 0 .516-.42.934-.938.934zM.938 22.4H0c0 1.03.84 1.867 1.875 1.867h26.25c1.036 0 1.875-.836 1.875-1.867H.937zM.938 26.133H0C0 27.164.84 28 1.875 28h26.25C29.161 28 30 27.164 30 26.133H.937z" transform="translate(44 117)"/>
        </g>
        <g fill-rule="nonzero">
            <path fill="#657786" d="M18.125 11.15c-2.2 3.313-5 5-8.125 5s-5.925-1.687-8.125-5.137c-.425-.572-.425-1.354 0-1.925C3.938 5.638 6.688 3.85 10 3.85c3.313 0 6.063 1.788 8.125 5.238.426.621.426 1.44 0 2.062zM10 13.5c1.4 0 2.661-.846 3.192-2.142.53-1.295.226-2.783-.77-3.765-.998-.983-2.49-1.266-3.777-.716C7.357 7.427 6.53 8.7 6.55 10.1c.007.908.374 1.777 1.02 2.415.648.637 1.522.992 2.43.985zm-1.963-3.45c0 1.084.88 1.962 1.963 1.962 1.084 0 1.963-.878 1.963-1.962S11.082 8.087 10 8.087c-1.084 0-1.963.88-1.963 1.963z" transform="translate(63 60)"/>
        </g>
        <g transform="translate(84 60)">
            <mask id="twm0dt2djs" fill="#fff">
                <use xlink:href="#p08i0d8bgr"/>
            </mask>
            <path fill="url(#d3ie7j6m6l)" d="M17.92 11.513l-.42-1.702c-.058-.23-.093-.576-.092-.914 0-.317.03-.633.08-.848l.4-1.708h.001c.027-.116.04-.233.04-.35-.001-.306-.083-.606-.224-.873-.142-.267-.346-.504-.612-.666l-1.502-.907c-.197-.117-.455-.327-.688-.557-.233-.23-.446-.486-.566-.68L13.412.817c-.162-.262-.399-.46-.664-.6C12.483.08 12.186 0 11.884 0c-.124 0-.248.014-.37.044L9.81.466c-.23.057-.576.091-.914.09-.316.001-.633-.029-.848-.08l-1.707-.4c-.117-.027-.235-.04-.351-.04-.306.001-.606.083-.873.224-.267.142-.504.346-.666.613l-.906 1.501c-.118.197-.327.455-.558.688-.23.233-.485.446-.68.566l-1.49.924c-.262.163-.462.4-.6.664-.138.266-.217.563-.218.865 0 .124.014.248.045.37l.421 1.703c.057.23.092.575.09.914.002.316-.028.633-.08.848l-.4 1.708v-.002c-.027.118-.04.236-.04.352.001.306.083.606.224.873.143.267.346.505.613.666l1.501.906c.197.118.455.328.688.558.234.23.446.485.566.68l.924 1.49c.163.262.4.462.664.6.266.138.563.217.865.218.124 0 .248-.014.37-.044l1.703-.422c.23-.057.576-.092.914-.091.317 0 .633.03.848.08l1.708.4c.116.028.233.04.35.04.306 0 .606-.082.874-.224.266-.141.504-.345.666-.612l.905-1.501c.118-.197.328-.455.558-.688.23-.233.486-.446.68-.566l1.491-.924c.261-.163.46-.4.6-.664.137-.266.216-.563.217-.865 0-.123-.044-.37-.044-.37" mask="url(#twm0dt2djs)"/>
            <path fill="#FFF" fill-rule="nonzero" d="M9.008 13.454c1.092 0 1.944-.228 2.544-.66.6-.444.9-1.056.9-1.824 0-.792-.372-1.404-1.116-1.848-.336-.192-1.08-.48-2.244-.84-.792-.252-1.284-.432-1.464-.528-.408-.216-.6-.516-.6-.876 0-.408.168-.708.528-.888.288-.156.696-.228 1.236-.228.624 0 1.104.108 1.416.348.312.228.54.612.66 1.14h1.392c-.084-.936-.432-1.632-1.032-2.076-.564-.42-1.356-.624-2.364-.624-.924 0-1.68.204-2.28.624-.648.432-.96 1.032-.96 1.788s.324 1.332.984 1.728c.252.144.912.384 1.968.72.948.288 1.5.48 1.668.564.528.264.804.624.804 1.08 0 .36-.192.636-.552.852-.36.204-.864.312-1.488.312-.708 0-1.224-.132-1.56-.372-.372-.276-.6-.744-.696-1.392H5.36c.06 1.092.456 1.884 1.176 2.388.588.408 1.416.612 2.472.612z" mask="url(#twm0dt2djs)"/>
        </g>
        <g transform="translate(84 79)">
            <mask id="fqcyre555u" fill="#fff">
                <use xlink:href="#r1pb0np8pt"/>
            </mask>
            <path fill="url(#d3ie7j6m6l)" d="M17.92 11.513l-.42-1.702c-.058-.23-.093-.576-.092-.914 0-.317.03-.633.08-.848l.4-1.708h.001c.027-.116.04-.233.04-.35-.001-.306-.083-.606-.224-.873-.142-.267-.346-.504-.612-.666l-1.502-.907c-.197-.117-.455-.327-.688-.557-.233-.23-.446-.486-.566-.68L13.412.817c-.162-.262-.399-.46-.664-.6C12.483.08 12.186 0 11.884 0c-.124 0-.248.014-.37.044L9.81.466c-.23.057-.576.091-.914.09-.316.001-.633-.029-.848-.08l-1.707-.4c-.117-.027-.235-.04-.351-.04-.306.001-.606.083-.873.224-.267.142-.504.346-.666.613l-.906 1.501c-.118.197-.327.455-.558.688-.23.233-.485.446-.68.566l-1.49.924c-.262.163-.462.4-.6.664-.138.266-.217.563-.218.865 0 .124.014.248.045.37l.421 1.703c.057.23.092.575.09.914.002.316-.028.633-.08.848l-.4 1.708v-.002c-.027.118-.04.236-.04.352.001.306.083.606.224.873.143.267.346.505.613.666l1.501.906c.197.118.455.328.688.558.234.23.446.485.566.68l.924 1.49c.163.262.4.462.664.6.266.138.563.217.865.218.124 0 .248-.014.37-.044l1.703-.422c.23-.057.576-.092.914-.091.317 0 .633.03.848.08l1.708.4c.116.028.233.04.35.04.306 0 .606-.082.874-.224.266-.141.504-.345.666-.612l.905-1.501c.118-.197.328-.455.558-.688.23-.233.486-.446.68-.566l1.491-.924c.261-.163.46-.4.6-.664.137-.266.216-.563.217-.865 0-.123-.044-.37-.044-.37" mask="url(#fqcyre555u)"/>
            <path fill="#FFF" fill-rule="nonzero" d="M7.48 13c.76 0 1.36-.14 1.78-.42.49-.34.74-.87.74-1.59 0-.48-.12-.87-.35-1.15-.24-.29-.59-.48-1.06-.57.36-.14.63-.33.82-.59.19-.28.29-.62.29-1.02 0-.54-.19-.97-.56-1.29-.4-.34-.96-.51-1.67-.51H4.2V13h3.28zm-.32-4.14H5.37V6.82h1.81c.48 0 .82.08 1.04.24.2.15.31.4.31.74 0 .37-.11.64-.31.81-.21.16-.56.25-1.06.25zm.15 3.18H5.37V9.82h1.97c.52 0 .9.09 1.14.27.23.18.35.47.35.88 0 .4-.16.68-.48.86-.25.14-.6.21-1.04.21z" mask="url(#fqcyre555u)"/>
            <path fill="#FFF" d="M10.5 8.5H14.5V9.5H10.5z" mask="url(#fqcyre555u)"/>
        </g>
        <g transform="translate(111 91)">
            <mask id="pfzxmaih9x" fill="#fff">
                <use xlink:href="#5f1nt7ssvv"/>
            </mask>
            <path fill="url(#ypf59heedw)" d="M20.907 13.432l-.491-1.986c-.067-.268-.107-.671-.107-1.066 0-.37.035-.739.094-.99l.467-1.992c.032-.135.046-.273.046-.409 0-.356-.095-.706-.26-1.018-.166-.311-.404-.589-.715-.777L18.19 4.136c-.23-.137-.53-.381-.802-.65s-.52-.567-.66-.794L15.647.953c-.19-.305-.465-.537-.774-.7-.31-.16-.657-.252-1.008-.253-.145 0-.29.016-.433.051l-1.986.492c-.268.067-.671.107-1.066.106-.37.001-.739-.034-.99-.093L7.4.089c-.136-.032-.274-.046-.41-.046-.356 0-.706.096-1.018.26-.311.166-.588.404-.777.715L4.137 2.77c-.137.23-.382.53-.65.802-.269.273-.567.52-.794.66L.953 5.312c-.305.19-.537.466-.699.775-.161.31-.253.656-.254 1.008 0 .145.017.29.052.433l.492 1.986c.066.268.107.671.106 1.066 0 .37-.034.739-.094.99L.09 13.561v-.002c-.032.137-.046.275-.046.411 0 .357.096.706.26 1.019.167.31.404.588.715.777l1.752 1.056c.23.138.53.382.802.651.273.269.521.567.66.794l1.08 1.739c.189.305.465.537.774.699.31.161.656.253 1.009.254.144 0 .289-.016.432-.052l1.986-.491c.268-.067.671-.107 1.066-.107.37 0 .74.034.99.094l1.992.467c.136.032.273.046.41.046.356 0 .706-.096 1.018-.26.31-.166.588-.404.777-.715l1.056-1.752c.138-.23.383-.53.652-.802.268-.272.566-.52.793-.66l1.739-1.079c.305-.19.537-.466.7-.775.16-.31.253-.656.253-1.008 0-.144-.052-.433-.052-.433" mask="url(#pfzxmaih9x)"/>
            <path fill="#FFF" fill-rule="nonzero" d="M3.536 13.304v-2.192h1.416c1.392 0 2.088-.592 2.088-1.768 0-1.168-.696-1.752-2.072-1.752H2.6v5.712h.936zm1.36-2.992h-1.36v-1.92h1.36c.408 0 .712.072.904.224.192.144.296.384.296.728s-.096.592-.288.744c-.192.144-.496.224-.912.224zm3.88 2.992v-2.328h1.48c.32 0 .568.064.736.208.16.136.256.36.288.672l.072.704c.032.32.112.568.248.744h1.016c-.192-.208-.312-.488-.344-.84l-.096-.92c-.064-.56-.344-.888-.84-1v-.016c.304-.08.552-.248.728-.504.16-.232.24-.496.24-.792 0-.544-.184-.96-.536-1.248-.336-.264-.8-.392-1.384-.392H7.84v5.712h.936zm1.48-3.128h-1.48V8.392h1.48c.384 0 .664.064.84.208.176.136.264.36.264.672 0 .288-.088.512-.264.672-.192.152-.472.232-.84.232zm5.696 3.24c.872 0 1.56-.28 2.064-.84.48-.536.72-1.24.72-2.12 0-.88-.24-1.592-.72-2.128-.504-.568-1.192-.848-2.064-.848-.88 0-1.568.28-2.064.856-.48.544-.712 1.248-.712 2.12 0 .864.232 1.568.712 2.112.496.56 1.184.848 2.064.848zm0-.824c-.592 0-1.056-.2-1.376-.592-.312-.384-.464-.896-.464-1.544 0-.656.152-1.168.464-1.552.328-.4.784-.6 1.376-.6.592 0 1.048.184 1.368.568.312.384.472.912.472 1.584s-.16 1.192-.472 1.568c-.32.376-.776.568-1.368.568z"/>
        </g>
        <g fill-rule="nonzero">
            <path fill="#DB351F" d="M23.208 19.34h-2.916v-2.917c0-.16-.132-.291-.292-.291h-1.75c-.16 0-.292.13-.292.291v2.917h-2.916c-.16 0-.292.131-.292.292v1.75c0 .16.131.291.292.291h2.916v2.917c0 .16.132.292.292.292H20c.16 0 .292-.132.292-.292v-2.917h2.916c.16 0 .292-.131.292-.291v-1.75c0-.16-.131-.292-.292-.292zM20.73 8.402c0-3.988-3.204-7.23-7.178-7.291-4.04-.062-7.405 3.252-7.405 7.291 0 2.29 1.057 4.332 2.705 5.67-1.156.536-2.22 1.272-3.15 2.202-1.998 1.994-3.128 4.626-3.2 7.434-.005.164.127.299.29.299h2.042c.157 0 .288-.124.292-.281.07-2.115.926-4.094 2.432-5.597 1.571-1.57 3.657-2.435 5.88-2.435 4.026 0 7.292-3.263 7.292-7.292zm-3.992 3.3c-.882.882-2.053 1.367-3.3 1.367-1.246 0-2.417-.485-3.299-1.367-.893-.893-1.378-2.082-1.367-3.347.01-1.196.488-2.351 1.323-3.208.875-.897 2.046-1.397 3.296-1.411 1.236-.011 2.436.47 3.318 1.334.904.886 1.4 2.071 1.4 3.332-.004 1.247-.489 2.418-1.371 3.3z" transform="translate(111 113)"/>
        </g>
        <g fill-rule="nonzero">
            <path fill="#DB351F" d="M8.166 8.798h9.673c.544 0 .99-.444.99-.99 0-.544-.444-.99-.99-.99H8.166c-.544 0-.99.444-.99.99 0 .543.444.99.99.99zm-.99 3.605c0 .544.444.99.99.99h7.22c.544 0 .991-.444.991-.99 0-.543-.444-.99-.99-.99H8.166c-.546 0-.99.444-.99.99z" transform="translate(111 140)"/>
            <path fill="#DB351F" d="M23.067 2.892c0-.7-.568-1.27-1.27-1.27H4.236c-.7 0-1.27.57-1.27 1.27V23.07c0 .7.57 1.27 1.27 1.27h7.803c.528-.008.952-.437.952-.965 0-.529-.424-.958-.952-.965H4.895V3.552h16.243V13.73c0 .533.431.965.965.965.533 0 .964-.432.964-.965V2.892z" transform="translate(111 140)"/>
            <path fill="#DB351F" d="M19.48 15.206c-.401-.4-1.062-.4-1.463 0l-2.435 2.435c-.403.404-.403 1.062 0 1.463.401.401 1.062.401 1.463 0l.667-.668v4.776c0 .569.465 1.034 1.034 1.034s1.033-.465 1.033-1.034v-4.776l.668.668c.401.401 1.061.401 1.463 0 .4-.401.4-1.061 0-1.463l-2.43-2.435z" transform="translate(111 140)"/>
        </g>
        <path fill="#657787" fill-rule="nonzero" d="M86.645 159.26c.291-.326.785-.348 1.102-.05.289.272.333.715.12 1.038l-.072.093-5.72 6.4c-.283.317-.754.343-1.068.079l-.082-.08-5.72-6.4c-.291-.325-.27-.831.048-1.13.289-.271.723-.278 1.018-.032l.084.081 5.145 5.757 5.145-5.757z"/>
        <path stroke="#657786" stroke-width="1.6" d="M87 117.8c-6.186 0-11.2 5.014-11.2 11.2 0 6.186 5.014 11.2 11.2 11.2 6.186 0 11.2-5.014 11.2-11.2 0-6.186-5.014-11.2-11.2-11.2zm0 0c6.186 0 11.2 5.014 11.2 11.2 0 6.186-5.014 11.2-11.2 11.2-6.186 0-11.2-5.014-11.2-11.2 0-6.186 5.014-11.2 11.2-11.2zm-.005 6.012c.002.01.005.023.005.045l-.001 4.343v.4l.001-4.743c0-.022.003-.036.005-.045zM87 128.6v.4h.4-.4l.001 5.143c0 .022-.003.036-.005.045.008-.01.005-.023.005-.045l-.001-4.344v-.8l-5.142.001c-.022 0-.036-.003-.045-.005.01.008.023.005.045.005H87v-.4zm5.189.405c.009.001.012.001.012-.005s-.003-.006-.012-.005zm-5.193 5.183c-.001.009-.001.012.005.012s.006-.003.005-.012z"/>
        <g fill-rule="nonzero">
            <path fill="#657786" d="M17.84 8.628l.285.46c.426.621.426 1.44 0 2.062-2.2 3.313-5 5-8.125 5-1.123 0-2.203-.218-3.229-.657l2.158-2.157c.343.11.704.167 1.071.164 1.4 0 2.661-.846 3.192-2.142.316-.772.336-1.612.089-2.374l2.675-2.676c.677.648 1.306 1.422 1.884 2.32zm-1.603-6.22L17.28 3.45c.078.079.078.205 0 .283L3.42 17.593c-.077.078-.204.078-.282 0L2.095 16.55c-.078-.079-.078-.205 0-.283l2.287-2.287c-.788-.68-1.529-1.52-2.215-2.525l-.292-.443c-.425-.57-.425-1.353 0-1.925C3.938 5.638 6.688 3.85 10 3.85c1.315 0 2.542.282 3.672.838l2.282-2.28c.078-.079.205-.079.283 0zm-7.592 4.47C7.357 7.426 6.53 8.7 6.55 10.1c.004.488.111.965.31 1.4l4.583-4.584c-.87-.4-1.885-.429-2.798-.039z" transform="translate(63 81)"/>
        </g>
        <path stroke="#657786" stroke-width="1.6" d="M72.121 102.814c-.026-.026-.1-.024-.169.045l-3.954 3.977-.567-.571-3.383-3.403c-.068-.068-.143-.07-.169-.045-.028.029-.026.113.045.184l3.943 3.967-.56.564-3.447 3.467c-.07.071-.073.155-.045.184.026.026.101.023.17-.045l4.013-4.039 4.018 4.042c.068.069.143.071.169.045.028-.028.025-.112-.045-.183l-4.012-4.035.56-.564 3.388-3.407c.07-.07.073-.155.045-.183z"/>
        <g fill-rule="nonzero">
            <path fill="#FFF" d="M8 1C4.134 1 1 4.134 1 8s3.134 7 7 7 7-3.134 7-7-3.134-7-7-7zm0 12.813c-3.21 0-5.813-2.604-5.813-5.813 0-3.21 2.604-5.813 5.813-5.813 3.21 0 5.813 2.604 5.813 5.813 0 3.21-2.604 5.813-5.813 5.813z" transform="translate(75 142)"/>
            <path fill="#FFF" d="M7.25 5.25c0 .414.336.75.75.75s.75-.336.75-.75S8.414 4.5 8 4.5s-.75.336-.75.75zM8.375 7h-.75c-.069 0-.125.056-.125.125v4.25c0 .069.056.125.125.125h.75c.069 0 .125-.056.125-.125v-4.25C8.5 7.056 8.444 7 8.375 7z" transform="translate(75 142)"/>
        </g>
        <g fill="#009368" fill-rule="nonzero">
            <path d="M16.714 9c0-4.26-3.454-7.714-7.714-7.714S1.286 4.74 1.286 9 4.74 16.714 9 16.714 16.714 13.26 16.714 9zM18 9c0 4.97-4.03 9-9 9s-9-4.03-9-9 4.03-9 9-9 9 4.03 9 9z" transform="translate(111 51)"/>
            <path d="M12.9 6.185c.292-.293.767-.293 1.06 0 .27.27.291.696.063.99l-.063.07-5.022 5.023c-.27.27-.696.291-.99.063l-.071-.063L4.72 9.111c-.293-.293-.293-.768 0-1.06.27-.271.695-.292.99-.063l.07.062 2.627 2.627 4.492-4.492z" transform="translate(111 51)"/>
        </g>
        <g transform="translate(111 70)">
            <path fill="url(#aoa34cqjoy)" fill-rule="nonzero" d="M17.083 17.059c-2.857 2.867-7.16 3.729-10.902 2.183C2.441 17.696 0 14.048 0 10 0 5.952 2.44 2.304 6.181.758 9.922-.788 14.226.074 17.083 2.941c3.89 3.903 3.89 10.215 0 14.118z"/>
            <mask id="wb1lrczcrA" fill="#fff">
                <use xlink:href="#5nwntploiz"/>
            </mask>
            <g fill-rule="nonzero" mask="url(#wb1lrczcrA)">
                <use fill="#000" filter="url(#f9dx6hpaxB)" xlink:href="#pwycyq5ufC"/>
                <use fill="url(#f4h7tu2gtD)" xlink:href="#pwycyq5ufC"/>
            </g>
            <g fill-rule="nonzero" mask="url(#wb1lrczcrA)">
                <use fill="#000" filter="url(#lavs87r9sE)" xlink:href="#pj6y2fuoxF"/>
                <use fill="url(#ur9ox5gbcG)" xlink:href="#pj6y2fuoxF"/>
            </g>
            <rect width="2" height="8.667" x="9" y="4" fill="#FFF" rx="1"/>
            <rect width="2" height="2" x="9" y="14" fill="#FFF" rx="1"/>
        </g>
        <g>
            <path d="M0 0H21V21H0z" transform="translate(0 176)"/>
            <path fill="#13171A" fill-rule="nonzero" d="M16.5 1.2c1.657 0 3 1.343 3 3v12.6c0 1.657-1.343 3-3 3h-12c-1.657 0-3-1.343-3-3V4.2c0-1.657 1.343-3 3-3h12zm0 1.6h-12c-.728 0-1.326.555-1.394 1.265L3.1 4.2v12.6c0 .674.476 1.236 1.11 1.37.12-2.344 1.521-4.348 3.516-5.328C6.676 12.02 6 10.739 6 9.3c0-2.485 2.015-4.5 4.5-4.5S15 6.815 15 9.3c0 2.414-1.901 4.384-4.288 4.495l-.212.005c-2.495 0-4.536 1.944-4.69 4.4H16.5c.728 0 1.326-.555 1.394-1.265l.006-.135V4.2c0-.728-.555-1.326-1.265-1.394L16.5 2.8zM16.2 15c.442 0 .8.358.8.8 0 .442-.358.8-.8.8h-5.4c-.442 0-.8-.358-.8-.8 0-.442.358-.8.8-.8h5.4zm-5.7-8.6c-1.602 0-2.9 1.298-2.9 2.9 0 1.602 1.298 2.9 2.9 2.9 1.602 0 2.9-1.298 2.9-2.9 0-1.602-1.298-2.9-2.9-2.9z" transform="translate(0 176)"/>
        </g>
        <g>
            <path d="M0 0H21V21H0z" transform="translate(22 176)"/>
            <path fill="#DB351F" fill-rule="nonzero" d="M16.5 1.2c1.657 0 3 1.343 3 3v12.6c0 1.657-1.343 3-3 3h-12c-1.657 0-3-1.343-3-3V4.2c0-1.657 1.343-3 3-3h12zm-6 3.6C8.015 4.8 6 6.815 6 9.3c0 1.44.676 2.72 1.727 3.542-1.575.773-2.795 2.188-3.29 3.943-.12.425.127.867.552.987.425.12.867-.127.987-.552.567-2.007 2.407-3.42 4.524-3.42l.212-.005C13.099 13.685 15 11.715 15 9.3c0-2.485-2.015-4.5-4.5-4.5zM16.2 15h-5.4c-.442 0-.8.358-.8.8 0 .442.358.8.8.8h5.4c.442 0 .8-.358.8-.8 0-.442-.358-.8-.8-.8zm-5.7-8.6c1.602 0 2.9 1.298 2.9 2.9 0 1.602-1.298 2.9-2.9 2.9-1.602 0-2.9-1.298-2.9-2.9 0-1.602 1.298-2.9 2.9-2.9z" transform="translate(22 176)"/>
        </g>
        <g transform="translate(111 167)">
            <circle cx="5" cy="5" r="5" fill="#009368"/>
            <path fill="#FFF" fill-rule="nonzero" d="M7.077 3.142c.19-.19.497-.19.686 0 .172.172.188.441.047.631l-.047.055-3.03 3.03c-.172.172-.442.188-.632.047l-.054-.047-1.905-1.905c-.19-.19-.19-.496 0-.686.172-.172.441-.187.631-.047l.055.047L4.39 5.83l2.687-2.688z"/>
        </g>
        <g transform="translate(122 167)">
            <circle cx="5" cy="5" r="5" fill="#DB351F"/>
            <rect width="6" height="1" x="2" y="4.5" fill="#FFF" rx=".5"/>
        </g>
        <path fill="#657786" fill-rule="nonzero" d="M129 192c.552 0 1 .448 1 1 0 .513-.386.936-.883.993L129 194h-17c-.552 0-1-.448-1-1 0-.513.386-.936.883-.993L112 192h17zm0-7c.552 0 1 .448 1 1 0 .513-.386.936-.883.993L129 187h-17c-.552 0-1-.448-1-1 0-.513.386-.936.883-.993L112 185h17zm0-7c.552 0 1 .448 1 1 0 .513-.386.936-.883.993L129 180h-17c-.552 0-1-.448-1-1 0-.513.386-.936.883-.993L112 178h17z"/>
        <path fill="#13171A" fill-rule="nonzero" d="M85.583 168c.246 0 .395.097.448.291l.016.09.338 2.365c.429.18.839.406 1.23.677l.292.21 2.239-.887c.222-.073.39-.04.504.102l.045.067 1.817 3.127c.099.197.079.373-.06.527l-.067.065-1.901 1.479c.056.338.085.633.085.887 0 .19-.016.404-.048.642l-.037.245 1.901 1.48c.173.147.227.317.162.508l-.035.083-1.817 3.127c-.098.197-.25.264-.457.203l-.092-.034-2.24-.888c-.405.293-.81.541-1.216.744l-.305.144-.338 2.366c-.024.222-.146.346-.365.374l-.1.006h-3.591c-.222 0-.368-.097-.439-.291l-.026-.09-.338-2.365c-.428-.18-.838-.406-1.23-.677l-.29-.21-2.24.887c-.222.073-.39.04-.504-.102l-.046-.067-1.817-3.127c-.098-.197-.078-.373.06-.527l.067-.065 1.902-1.479c-.029-.338-.043-.633-.043-.887 0-.19.008-.404.024-.642l.019-.245-1.902-1.48c-.172-.147-.226-.317-.162-.508l.035-.083 1.817-3.127c.124-.197.28-.264.467-.203l.083.034 2.24.888c.405-.293.81-.541 1.216-.744l.304-.144.338-2.366c.05-.222.174-.346.375-.374l.09-.006h3.592zm-.953 1.573h-1.684l-.323 2.258-.796.353c-.323.144-.652.327-.987.55l-.252.175-.699.505-2.148-.85-.825 1.42 1.812 1.41-.07.85c-.025.297-.037.55-.037.756 0 .155.007.336.02.542l.017.215.07.849-1.813 1.409.826 1.42 2.174-.86.708.541c.299.229.609.42.932.577l.244.11.82.346.327 2.277h1.683l.322-2.257.795-.353c.324-.144.653-.327.988-.55l.251-.175.7-.505 2.148.852.825-1.422-1.88-1.462.154-.925c.043-.258.063-.47.063-.629 0-.128-.013-.288-.04-.48l-.023-.149-.154-.925 1.881-1.462-.826-1.42-2.175.86-.707-.54c-.3-.229-.61-.42-.932-.577l-.244-.11-.821-.346-.324-2.278zm-.84 3.985c1.902 0 3.442 1.541 3.442 3.442 0 1.9-1.54 3.442-3.441 3.442-1.901 0-3.442-1.541-3.442-3.442 0-1.9 1.54-3.442 3.442-3.442zm0 1.574c-1.031 0-1.868.836-1.868 1.868s.837 1.868 1.869 1.868 1.868-.836 1.868-1.868-.836-1.868-1.868-1.868z"/>
        <g fill="#657787" fill-rule="nonzero">
            <path d="M13.446 6.397l.084.073c.267.266.29.683.073.976l-.073.084-6 6c-.266.267-.683.29-.976.073l-.084-.073-6-6c-.293-.293-.293-.767 0-1.06.266-.267.683-.29.976-.073l.084.073L7 11.939l5.47-5.47c.266-.266.683-.29.976-.072zm0-6l.084.073c.267.266.29.683.073.976l-.073.084-6 6c-.266.267-.683.29-.976.073L6.47 7.53l-6-6C.177 1.237.177.763.47.47c.266-.267.683-.29.976-.073L1.53.47 7 5.939l5.47-5.47c.266-.266.683-.29.976-.072z" transform="rotate(-180 29 108)"/>
        </g>
        <g fill="#657787" fill-rule="nonzero">
            <path d="M13.446 6.397l.084.073c.267.266.29.683.073.976l-.073.084-6 6c-.266.267-.683.29-.976.073l-.084-.073-6-6c-.293-.293-.293-.767 0-1.06.266-.267.683-.29.976-.073l.084.073L7 11.939l5.47-5.47c.266-.266.683-.29.976-.072zm0-6l.084.073c.267.266.29.683.073.976l-.073.084-6 6c-.266.267-.683.29-.976.073L6.47 7.53l-6-6C.177 1.237.177.763.47.47c.266-.267.683-.29.976-.073L1.53.47 7 5.939l5.47-5.47c.266-.266.683-.29.976-.072z" transform="translate(59 202)"/>
        </g>
    </g>
</svg>
