<svg xmlns="http://www.w3.org/2000/svg" width="14" height="11" viewBox="0 0 14 11">
    <g fill="none" fill-rule="evenodd">
        <g fill-rule="nonzero">
            <g>
                <g>
                    <path fill="#DB351F" d="M1.571 7.554c-.095.191-.095.417 0 .608 1.11 2.41 3.463 4.006 6.113 4.145l-5.59-5.6c-.193.27-.368.553-.523.847zm12.805-.095c-.675-1.093-2.69-4.021-6.379-4.021-1.328-.008-2.628.38-3.735 1.112L2.912 3.2 1.837 4.274 3.083 5.52l1.682 1.712L8.663 11.1l1.017 1.026 1.692 1.692 1.074-1.074-1.207-1.207c1.359-.731 2.463-1.859 3.166-3.232.136-.268.126-.588-.029-.846zm-4.268 2.947L9.024 9.312c.561-.412.829-1.115.683-1.795-.146-.681-.678-1.213-1.359-1.359-.68-.146-1.384.122-1.795.683L5.469 5.757c.799-.966 2.077-1.396 3.297-1.109 1.22.288 2.173 1.242 2.457 2.463.285 1.22-.147 2.498-1.115 3.295z" transform="translate(-1630 -243) translate(703 218) translate(926 22)"/>
                </g>
            </g>
        </g>
    </g>
</svg>
