<?xml version="1.0" encoding="UTF-8"?>
<svg width="24px" height="24px" viewBox="0 0 24 24" version="1.1" xmlns="http://www.w3.org/2000/svg" xmlns:xlink="http://www.w3.org/1999/xlink">
    <!-- Generator: Sketch 60.1 (88133) - https://sketch.com -->
    <title>编组 5</title>
    <desc>Created with Sketch.</desc>
    <g id="页面-1" stroke="none" stroke-width="1" fill="none" fill-rule="evenodd">
        <g id="主页-管理1-编辑备份" transform="translate(-1113.000000, -761.000000)" fill="#657786" fill-rule="nonzero">
            <g id="编组-5" transform="translate(1113.000000, 761.000000)">
                <path d="M12,0 C18.627417,0 24,5.372583 24,12 C24,18.627417 18.627417,24 12,24 C5.372583,24 0,18.627417 0,12 C0,5.372583 5.372583,0 12,0 Z M12,1.6 C6.2562386,1.6 1.6,6.2562386 1.6,12 C1.6,17.7437614 6.2562386,22.4 12,22.4 C17.7437614,22.4 22.4,17.7437614 22.4,12 C22.4,6.2562386 17.7437614,1.6 12,1.6 Z" id="椭圆形"></path>
                <path d="M12,6 C12.4418278,6 12.8,6.38375593 12.8,6.85714286 L12.8,17.1428571 C12.8,17.6162441 12.4418278,18 12,18 C11.5581722,18 11.2,17.6162441 11.2,17.1428571 L11.2,6.85714286 C11.2,6.38375593 11.5581722,6 12,6 Z" id="路径" transform="translate(12.000000, 12.000000) rotate(-270.000000) translate(-12.000000, -12.000000) "></path>
                <path d="M12,6 C12.4418278,6 12.8,6.38375593 12.8,6.85714286 L12.8,17.1428571 C12.8,17.6162441 12.4418278,18 12,18 C11.5581722,18 11.2,17.6162441 11.2,17.1428571 L11.2,6.85714286 C11.2,6.38375593 11.5581722,6 12,6 Z" id="路径"></path>
            </g>
        </g>
    </g>
</svg>