<svg xmlns="http://www.w3.org/2000/svg" width="22" height="23" viewBox="0 0 22 23">
    <path fill="#FAC542" d="M10.842 22.066c2.996 0 5.552-1.058 7.668-3.173 2.116-2.116 3.174-4.664 3.174-7.643 0-2.98-1.058-5.527-3.174-7.643C16.394 1.492 13.838.434 10.842.434c-2.996 0-5.56 1.066-7.694 3.199C1.05 5.732 0 8.27 0 11.25c0 2.98 1.058 5.527 3.174 7.643 2.116 2.115 4.672 3.173 7.668 3.173zm0-2.132c-2.387 0-4.427-.847-6.12-2.54-1.692-1.692-2.538-3.74-2.538-6.144s.846-4.452 2.539-6.145c1.692-1.692 3.732-2.539 6.119-2.539 2.387 0 4.426.847 6.119 2.54 1.693 1.692 2.539 3.74 2.539 6.144s-.846 4.452-2.54 6.145c-1.692 1.692-3.731 2.539-6.118 2.539zm-2.975-7.59V10.16H5.684v2.184h2.183zm4.06 0V10.16H9.744v2.184h2.183zm4.07 0V10.16h-2.183v2.184h2.183z"/>
</svg>
