<svg xmlns="http://www.w3.org/2000/svg" xmlns:xlink="http://www.w3.org/1999/xlink" width="34" height="35" viewBox="0 0 34 35">
    <defs>
        <path id="prefix__a" d="M19.688 0c2.889 0 5.23 2.342 5.23 5.23l.001 12.64c-4.21 1.669-7.29 5.572-7.778 10.246H5.303c-2.888 0-5.23-2.343-5.23-5.231V5.23C.073 2.34 2.415 0 5.303 0h14.385z"/>
    </defs>
    <g fill="none" fill-rule="evenodd">
        <path fill="#D1DBE5" d="M19.615 0c2.89 0 5.231 2.342 5.231 5.23v12.116c-4.509 1.215-7.946 5.503-8.439 10.77H5.231C2.34 28.115 0 25.772 0 22.884V5.23C0 2.34 2.342 0 5.23 0h14.385z" opacity=".275"/>
        <g transform="translate(1.889 1.962)">
            <mask id="prefix__b" fill="#fff">
                <use xlink:href="#prefix__a"/>
            </mask>
            <use fill="#D1DBE5" xlink:href="#prefix__a"/>
            <path fill="#F6F8FA" fill-rule="nonzero" d="M6.611 13.077c-4.696 0-8.5 3.804-8.5 8.5 0 4.695 3.804 8.5 8.5 8.5s8.5-3.805 8.5-8.5c0-4.696-3.804-8.5-8.5-8.5zm-.275 14.027h-.164c-.587 0-1.062-.476-1.062-1.063s.475-1.062 1.062-1.062h.164c.587 0 1.063.475 1.063 1.062 0 .587-.476 1.063-1.063 1.063zm1.048-3h-2.27c-.117-1.238.364-2.463 1.41-3.354l.174-.174c.814-.698 1.25-1.108 1.25-1.643 0-.715-.59-1.071-1.062-1.11-.599 0-1.495.262-1.494 1.69h-2.06c0-1.315.515-2.413 1.328-2.956.62-.464 1.504-.664 2.317-.664 1.976.117 3.003 1.22 3.08 3.04.077.776-.368 1.608-1.336 2.499-1.008.697-1.453 1.59-1.337 2.673z" mask="url(#prefix__b)" opacity=".5"/>
        </g>
        <path fill="#D1DBE5" fill-rule="nonzero" d="M21.43 34.682l8.095-3.85 3.849-8.095c.237-.499.025-1.095-.474-1.333-.271-.129-.587-.129-.858 0l-8.096 3.85-3.85 8.095c-.236.499-.024 1.095.475 1.333.271.129.587.129.858 0zm.25-1.583l3.486-6.625 3.139 3.138-6.626 3.487z"/>
        <rect width="18.308" height="1.962" x="5.231" y="7.192" fill="#F6F8FA" rx=".981"/>
    </g>
</svg>
