<svg xmlns="http://www.w3.org/2000/svg" xmlns:xlink="http://www.w3.org/1999/xlink" width="30" height="30" viewBox="0 0 30 30">
    <defs>
        <path id="prefix__a" d="M0.021 0.02L19.336 0.02 19.336 19.336 0.021 19.336z"/>
    </defs>
    <g fill="none" fill-rule="evenodd">
        <g transform="translate(10.664 10.664)">
            <mask id="prefix__b" fill="#fff">
                <use xlink:href="#prefix__a"/>
            </mask>
            <path fill="#D6DCE0" d="M14.107 19.078L8.98 13.951l-2.485 2.486c-.215.215-.527.303-.824.234-.297-.07-.535-.288-.631-.577L.066 1.178C-.039.862.043.514.278.278c.235-.234.584-.32.9-.212L16.094 5.04c.289.096.507.334.577.631.07.296-.019.608-.234.823L13.951 8.98l5.128 5.128c.343.343.343.9 0 1.243l-3.729 3.728c-.343.344-.9.344-1.243 0" mask="url(#prefix__b)"/>
        </g>
        <path fill="#D6DCE0" d="M11.426 7.031c-.486 0-.88-.393-.88-.879V.88c0-.486.394-.879.88-.879s.879.393.879.879v5.273c0 .486-.393.88-.88.88M7.076 8.319l-3.73-3.73c-.343-.343-.343-.9 0-1.242.344-.344.9-.344 1.243 0l3.73 3.729c.343.343.343.9 0 1.243-.344.343-.9.343-1.243 0M3.347 19.505c-.344-.343-.344-.9 0-1.243l3.729-3.73c.343-.342.9-.342 1.243 0 .343.344.343.9 0 1.244l-3.73 3.729c-.343.343-.9.343-1.242 0M14.533 8.319c-.343-.344-.343-.9 0-1.243l3.73-3.73c.342-.343.899-.343 1.242 0 .343.344.343.9 0 1.243l-3.73 3.73c-.343.343-.899.343-1.242 0M6.152 12.305H.88c-.486 0-.879-.393-.879-.88 0-.485.393-.878.879-.878h5.273c.486 0 .88.393.88.879s-.394.879-.88.879"/>
    </g>
</svg>
