<svg xmlns="http://www.w3.org/2000/svg" xmlns:xlink="http://www.w3.org/1999/xlink" width="20" height="24" viewBox="0 0 20 24">
    <defs>
        <path id="a" d="M1121.809 554.652v-2.52c-1.758-.312-3.233-1.161-4.424-2.548-1.192-1.387-1.787-2.998-1.787-4.834 0-1.836.595-3.447 1.787-4.834 1.191-1.387 2.666-2.236 4.424-2.549v4.863l5.683-5.566-5.683-5.684v3.868c-2.461.312-4.532 1.406-6.211 3.28-1.68 1.876-2.52 4.083-2.52 6.622 0 2.54.84 4.746 2.52 6.621 1.68 1.875 3.75 2.969 6.21 3.281zM1133 543.52a9.809 9.809 0 0 0-2.05-4.864l-1.759 1.758a7.516 7.516 0 0 1 1.29 3.106H1133zm-2.05 7.324a9.809 9.809 0 0 0 2.05-4.864h-2.52a7.516 7.516 0 0 1-1.289 3.106l1.758 1.758zm-6.622 3.808a10.09 10.09 0 0 0 4.863-1.992l-1.816-1.816a7.498 7.498 0 0 1-3.047 1.289v2.52z"/>
    </defs>
    <g fill="none" fill-rule="nonzero" transform="translate(-1113 -531)">
        <use fill="#313534" xlink:href="#a"/>
        <use fill="#DB351F" xlink:href="#a"/>
    </g>
</svg>
