<svg xmlns="http://www.w3.org/2000/svg" width="20" height="20" viewBox="0 0 20 20">
    <g fill="#009368" fill-rule="nonzero">
        <path d="M16.06 16.035a8.529 8.529 0 1 0-12.06 0 8.53 8.53 0 0 0 12.06 0zm1.023 1.024A10 10 0 1 1 2.917 2.94 10 10 0 0 1 17.083 17.06z"/>
        <path d="M13.909 6.7a.706.706 0 0 1 .726-.284c.275.06.49.28.55.562a.738.738 0 0 1-.28.742l-5.528 5.65a.814.814 0 0 1-1.133 0l-3.15-3.195a.738.738 0 0 1-.278-.742.722.722 0 0 1 .55-.562c.275-.06.56.052.725.285l2.651 2.767 5.167-5.222z"/>
    </g>
</svg>
