<svg xmlns="http://www.w3.org/2000/svg" width="27" height="34" viewBox="0 0 27 34">
    <path fill="#DB351F" fill-rule="nonzero" d="M18.993 8.087V2.433a1 1 0 0 1 1.71-.704L27 8.087h-8.007zM4 0l12.5.001a1.5 1.5 0 0 1 1.5 1.5V9.09h9V32a2 2 0 0 1-2 2H2a2 2 0 0 1-2-2V4l.004-.2A4 4 0 0 1 4 0zm2.346 18.332H2.541v8.81h1.756v-3.35h2.049c1.575 0 3.024-.83 3.024-2.8 0-2.224-1.547-2.66-3.024-2.66zm7.15 0H10.47v8.81h3.039c2.801 0 3.763-1.731 3.763-4.138v-.549c0-2.434-.725-4.123-3.777-4.123zm10.955 0h-5.924v8.81h1.756v-3.814h3.75v-1.562h-3.75v-1.872h4.168v-1.562zm-10.955 1.506c1.519 0 2.007.76 2.007 2.617v.535c0 1.633-.363 2.674-1.993 2.674h-1.283v-5.826h1.269zm-7.373-.043c.92 0 1.491.282 1.491 1.267 0 1.013-.64 1.28-1.491 1.28H4.297v-2.547h1.826z"/>
</svg>
