<svg xmlns="http://www.w3.org/2000/svg" width="24" height="24" viewBox="0 0 24 24">
    <g fill="#657786" fill-rule="nonzero">
        <path d="M22.286 12C22.286 6.32 17.68 1.714 12 1.714 6.32 1.714 1.714 6.32 1.714 12c0 5.68 4.605 10.286 10.286 10.286 5.68 0 10.286-4.605 10.286-10.286zM24 12c0 6.627-5.373 12-12 12S0 18.627 0 12 5.373 0 12 0s12 5.373 12 12z"/>
        <path d="M6.857 12.857a.857.857 0 0 1 0-1.714h10.286a.857.857 0 0 1 0 1.714H6.857z"/>
        <path d="M11.143 6.857a.857.857 0 0 1 1.714 0v10.286a.857.857 0 0 1-1.714 0V6.857z"/>
    </g>
</svg>
