<svg xmlns="http://www.w3.org/2000/svg" width="142" height="20" viewBox="0 0 142 20">
    <g fill="none" fill-rule="evenodd">
        <g fill-rule="nonzero">
            <g>
                <path fill="#3476AD" d="M45.036 4.985h4.539c.852 0 1.495.101 1.93.303.418.187.765.502.992.9.24.448.358.952.34 1.46.011.715-.203 1.414-.612 2-.375.562-.907 1.001-1.53 1.264-.617.254-1.474.38-2.558.38h-1.37l-.786 3.68h-3.105l2.16-9.987zm2.166 4.327h1.053c.438.02.867-.13 1.196-.421.297-.256.468-.63.467-1.022 0-.599-.324-.898-.973-.898h-1.214l-.529 2.34zM53.663 9.726c.152-.662.566-1.235 1.148-1.587.596-.372 1.522-.558 2.776-.558 1.42 0 2.38.178 2.876.535.499.357.78.943.748 1.556-.048.758-.174 1.51-.375 2.242-.182.672-.299 1.361-.348 2.057.003.34.063.678.177 1h-2.703c-.062-.271-.094-.548-.095-.826-.651.633-1.523.99-2.431.994-.912 0-1.569-.21-1.969-.632-.387-.396-.603-.93-.6-1.484 0-.64.179-1.131.535-1.474.37-.342.825-.578 1.318-.684.707-.147 1.422-.253 2.141-.316.541-.042 1.078-.127 1.606-.252.047-.16.074-.325.082-.49-.002-.186-.109-.355-.275-.436-.225-.12-.478-.176-.733-.165-.266-.01-.53.043-.773.154-.239.152-.422.378-.52.644l-2.585-.278zm4.497 2.01c-1.276.214-2.025.403-2.248.567-.2.125-.326.341-.333.577-.01.21.077.412.236.55.173.141.39.216.614.21.386-.013.754-.162 1.04-.421.342-.293.571-.787.689-1.482h.002zM70.92 7.743l-4.583 8.148c-.45.797-.882 1.33-1.293 1.602-.453.283-.981.425-1.516.408-.688 0-1.373-.094-2.035-.28l.225-1.867c.287.117.595.178.905.179.54 0 .967-.32 1.28-.96l-1.39-7.23h2.738l.387 5.021h.027l2.46-5.02h2.795zM78.975 8.808c.417-.403.902-.73 1.431-.968.438-.174.906-.262 1.377-.259.654 0 1.145.174 1.474.522.324.34.5.794.49 1.263.001.289-.028.577-.088.86l-1.027 4.747H79.84l.667-3.082c.169-.786.261-1.264.28-1.405.02-.14.028-.254.028-.313 0-.377-.18-.562-.533-.562-.404-.004-.786.188-1.023.515-.27.346-.486.89-.644 1.636l-.689 3.215H75.14l.655-3.032c.17-.812.268-1.294.29-1.444.017-.113.027-.227.03-.341.02-.153-.033-.306-.142-.414-.11-.108-.264-.158-.416-.135-.34.025-.658.18-.889.431-.311.28-.541.772-.69 1.474l-.75 3.467h-2.795l1.553-7.23h2.581l-.225 1.036.027.028c.795-.818 1.687-1.228 2.678-1.228.424-.008.842.103 1.207.32.34.203.597.523.722.9zM92.773 13.12c-.354.67-.907 1.211-1.584 1.552-.77.338-1.607.5-2.448.471-1.427 0-2.441-.32-3.042-.962-.6-.637-.923-1.485-.901-2.36-.004-.632.14-1.255.42-1.821.527-1.052 1.452-1.85 2.57-2.215.534-.145 1.086-.216 1.64-.21 1.35 0 2.317.293 2.9.88.584.57.904 1.357.883 2.172-.025.488-.086.974-.184 1.453h-5.513c.078.966.512 1.45 1.3 1.45.51.013.993-.232 1.283-.652l2.676.242zm-2.316-2.392c.037-.137.053-.279.048-.42.025-.318-.098-.628-.332-.843-.227-.19-.517-.291-.813-.282-.35.004-.686.14-.939.383-.321.314-.548.712-.655 1.148l2.69.014zM97.619 8.861c.695-.822 1.72-1.291 2.796-1.28.651 0 1.142.167 1.473.501.325.326.502.77.49 1.23-.042.578-.133 1.152-.273 1.715l-.842 3.946h-2.779l.714-3.369c.11-.461.195-.928.257-1.398 0-.4-.183-.598-.546-.598-.427.01-.825.222-1.069.573-.352.494-.587 1.061-.688 1.659l-.68 3.133H93.68l1.564-7.23h2.594l-.238 1.09.019.028zM109.19 7.743l-.422 1.983h-1.45l-.53 2.554c-.038.112-.056.23-.055.347 0 .329.215.492.646.49.288-.021.575-.065.857-.13l-.421 1.984c-.61.092-1.224.148-1.84.168-.776 0-1.327-.186-1.65-.558-.31-.331-.485-.767-.49-1.221.04-.392.106-.781.199-1.164l.518-2.472h-.994l.408-1.983h1.015l.24-1.13 3.099-1.548-.573 2.678 1.442.002z" transform="translate(-315 -409) translate(315 409)"/>
                <path fill="#E53B91" d="M119.063 14.973h-3.025l-.137-1.634h-3.257l-.768 1.634h-3.327l5.643-9.988h3.29l1.581 9.988zm-3.368-3.754l-.308-3.638h-.025l-1.718 3.638h2.05zM128.105 9.476l-2.596.278c-.077-.435-.402-.654-.976-.655-.267-.017-.533.047-.762.185-.151.089-.248.247-.26.421.001.17.087.329.23.421.152.112.558.21 1.223.31 1.068.16 1.778.4 2.13.72.357.329.55.798.53 1.282 0 .745-.346 1.38-1.037 1.907-.69.527-1.743.79-3.158.79-1.153 0-1.995-.168-2.526-.503-.53-.336-.844-.89-.94-1.664l2.736-.237c.116.586.502.879 1.158.877.281.007.56-.062.806-.197.217-.104.355-.324.352-.565.02-.188-.08-.368-.25-.45-.31-.11-.63-.186-.954-.223-1.077-.169-1.806-.424-2.188-.765-.373-.322-.583-.793-.572-1.286.006-.447.153-.881.42-1.24.331-.438.783-.771 1.3-.958.682-.253 1.407-.372 2.134-.351.967 0 1.709.14 2.226.42.516.281.84.775.974 1.483zM132.977 7.743l-1.554 7.23h-2.785l1.554-7.23h2.785zm.57-2.758l-.395 1.908h-2.769l.388-1.908h2.776zM134.286 9.726c.152-.662.566-1.235 1.148-1.587.596-.372 1.521-.558 2.774-.558 1.422 0 2.381.178 2.878.535.498.358.778.944.746 1.556-.048.758-.174 1.51-.375 2.242-.182.673-.298 1.361-.348 2.057.003.34.063.679.177 1h-2.7c-.063-.271-.094-.548-.095-.826-.653.634-1.525.99-2.434.994-.912 0-1.569-.21-1.969-.632-.387-.396-.603-.93-.6-1.484 0-.64.179-1.131.535-1.474.37-.342.825-.578 1.318-.684.706-.147 1.42-.253 2.139-.316.542-.042 1.08-.127 1.608-.252.046-.16.072-.325.08-.49-.002-.186-.109-.355-.275-.436-.226-.12-.479-.176-.733-.165-.266-.01-.53.043-.773.154-.238.152-.421.379-.52.644l-2.58-.278zm4.497 2.01c-1.276.214-2.025.403-2.248.567-.2.125-.325.341-.333.577-.01.21.078.413.238.55.173.141.391.216.615.21.385-.013.753-.162 1.038-.421.346-.293.576-.787.69-1.482z" transform="translate(-315 -409) translate(315 409)"/>
                <path fill="#3476AD" d="M21.139 10.124s2.21-2.947.421-6.26c-1.79-3.315-6.752-1.352-8.472.675C11.282 6.665.196 19.947.196 19.947S6.335 10.74 10.324 5.276c3.99-5.463 7.308-5.77 10.07-4.91 2.762.861 5.844 6.503.745 9.758z" transform="translate(-315 -409) translate(315 409)"/>
                <path fill="#E53B91" d="M16.665 5.81s-3.393 1.432-3.526 5.192c-.133 3.76 5.152 4.569 7.657 3.686 2.631-.928 18.899-6.812 18.899-6.812s-9.941 4.86-16.141 7.579c-6.2 2.718-9.22 1.303-11.17-.842-1.952-2.146-1.76-8.56 4.281-8.802z" transform="translate(-315 -409) translate(315 409)"/>
            </g>
        </g>
    </g>
</svg>
