<svg xmlns="http://www.w3.org/2000/svg" xmlns:xlink="http://www.w3.org/1999/xlink" width="18" height="17" viewBox="0 0 18 17">
    <defs>
        <path id="prefix__a" d="M0 0.124L8.904 0.124 8.904 16.861 0 16.861z"/>
    </defs>
    <g fill="none" fill-rule="evenodd">
        <path fill="#E6ECF0" d="M0 0H1264V946H0z" transform="translate(-490 -23)"/>
        <path fill="#F6F8FA" stroke="#E6ECF0" d="M199.5 0.5H985.5V59.5H199.5z" transform="translate(-490 -23)"/>
        <g transform="translate(-490 -23) translate(490 23)">
            <path fill="#657786" d="M11.777 12c-.2 0-.401-.073-.553-.22-.302-.29-.298-.756.008-1.04.782-.731 1.214-1.704 1.214-2.74 0-1.036-.432-2.009-1.214-2.739-.306-.286-.31-.751-.008-1.041.3-.29.793-.294 1.099-.008C13.404 5.22 14 6.566 14 8c0 1.434-.596 2.78-1.677 3.788-.152.141-.349.212-.546.212"/>
            <path fill="#657786" d="M14 14.29c0-.19.075-.372.207-.505 1.535-1.546 2.38-3.6 2.38-5.785s-.845-4.24-2.38-5.786c-.276-.277-.276-.728 0-1.006s.723-.277.999 0C17.008 3.023 18 5.435 18 8c0 2.557-.987 4.963-2.78 6.776-.128.138-.31.224-.514.224-.39 0-.706-.318-.706-.71z"/>
            <mask id="prefix__b" fill="#fff">
                <use xlink:href="#prefix__a"/>
            </mask>
            <path fill="#657786" d="M3.538 5.313H.672c-.37 0-.672.32-.672.718v4.923c0 .397.301.718.672.718h2.866l4.724 5.047c.178.19.465.19.642 0V.266c-.177-.19-.464-.19-.642 0L3.538 5.313z" mask="url(#prefix__b)"/>
        </g>
    </g>
</svg>
