<svg xmlns="http://www.w3.org/2000/svg" width="22" height="22" viewBox="0 0 22 22">
    <g fill="none" fill-rule="evenodd">
        <g>
            <path d="M0.5 0.5H21.5V21.5H0.5z"/>
            <g fill="#13171A" fill-rule="nonzero">
                <g>
                    <path d="M7.2.606V2.29C4.002 3.45 1.8 6.508 1.8 10c0 4.529 3.671 8.2 8.2 8.2 3.545 0 6.565-2.25 7.71-5.4h1.684c-1.205 4.048-4.955 7-9.394 7C4.588 19.8.2 15.412.2 10c0-4.369 2.883-8.17 7-9.394zM19.8 10c0 .27-.01.536-.032.8H18.16c.018-.181.03-.364.035-.55L18.2 10h1.6zM10 .2v1.6c-.269 0-.536.013-.8.038V.232c.138-.01.275-.02.413-.025L10 .2z" transform="translate(1 1)"/>
                </g>
                <g>
                    <path d="M9.8-.8H-.812L-.796.277c.15 5.195 4.324 9.369 9.507 9.519l1.089.016V-.8zM8.2.799v7.363l-.208-.022C4.271 7.687 1.312 4.729.86.998L.84.8H8.2z" transform="translate(1 1) rotate(-180 9.5 5)"/>
                </g>
            </g>
        </g>
    </g>
</svg>
