<?xml version="1.0" encoding="UTF-8"?>
<svg width="30px" height="30px" viewBox="0 0 30 30" version="1.1" xmlns="http://www.w3.org/2000/svg" xmlns:xlink="http://www.w3.org/1999/xlink">
    <title>编组 5</title>
    <defs>
        <filter id="filter-1">
            <feColorMatrix in="SourceGraphic" type="matrix" values="0 0 0 0 0.858824 0 0 0 0 0.207843 0 0 0 0 0.121569 0 0 0 1.000000 0"></feColorMatrix>
        </filter>
    </defs>
    <g id="页面-1" stroke="none" stroke-width="1" fill="none" fill-rule="evenodd">
        <g id="IB-资产-货币交易列表-SELL进行中-标记已付款" transform="translate(-1631.000000, -15.000000)">
            <g id="icon/右导航/对话" transform="translate(1631.000000, 15.000000)" filter="url(#filter-1)">
                <g fill="#657787" fill-rule="nonzero" id="形状">
                    <path d="M15,2.5 C21.9035594,2.5 27.5,7.53679656 27.5,13.75 C27.5,19.9632034 21.9035594,25 15,25 C13.8635874,25 12.7625942,24.8635164 11.7161531,24.6077688 L7.24098802,27.1912034 C6.64312224,27.5363814 5.87863424,27.3315375 5.53345627,26.7336717 C5.42374585,26.5436477 5.36598802,26.3280925 5.36598802,26.1086717 L5.36520131,20.9178162 C3.57552334,18.9714471 2.5,16.4737644 2.5,13.75 C2.5,7.53679656 8.09644063,2.5 15,2.5 Z M15,4.375 C9.09050286,4.375 4.375,8.61895258 4.375,13.75 C4.375,15.9228277 5.21587004,17.9852474 6.74541874,19.6487122 C7.01809746,19.9452647 7.18678832,20.3203262 7.22946569,20.717414 L7.24020129,20.917532 L7.24,25.025 L10.7787356,22.9839235 C11.1372096,22.7769828 11.552273,22.6954306 11.9589552,22.7485504 L12.1612971,22.786376 C13.0771809,23.0102157 14.0291322,23.125 15,23.125 C20.9094971,23.125 25.625,18.8810474 25.625,13.75 C25.625,8.61895258 20.9094971,4.375 15,4.375 Z M17.5,15.9375 C18.017767,15.9375 18.4375,16.357233 18.4375,16.875 C18.4375,17.3496197 18.0848076,17.7418637 17.6272132,17.8039417 L17.5,17.8125 L12.5,17.8125 C11.982233,17.8125 11.5625,17.392767 11.5625,16.875 C11.5625,16.4003803 11.9151924,16.0081363 12.3727868,15.9460583 L12.5,15.9375 L17.5,15.9375 Z M20,12.1875 C20.517767,12.1875 20.9375,12.607233 20.9375,13.125 C20.9375,13.5996197 20.5848076,13.9918637 20.1272132,14.0539417 L20,14.0625 L10,14.0625 C9.48223305,14.0625 9.0625,13.642767 9.0625,13.125 C9.0625,12.6503803 9.41519235,12.2581363 9.8727868,12.1960583 L10,12.1875 L20,12.1875 Z"></path>
                </g>
            </g>
        </g>
    </g>
</svg>