<svg xmlns="http://www.w3.org/2000/svg" xmlns:xlink="http://www.w3.org/1999/xlink" width="140" height="31" viewBox="0 0 140 31">
    <defs>
        <path id="prefix__a" d="M0.181 0.086L12.696 0.086 12.696 13.834 0.181 13.834z"/>
        <path id="prefix__c" d="M0.932 1.105L12.264 1.105 12.264 22.786 0.932 22.786z"/>
    </defs>
    <g fill="none" fill-rule="evenodd">
        <path fill="#0E1F3D" d="M74.056 15.465c.532 0 .986-.105 1.365-.315.379-.208.568-.62.568-1.232 0-.611-.19-1.022-.568-1.232-.379-.208-.833-.313-1.365-.313H68.91v3.092h5.147zm-8.796 7.394v-.436c.596 0 .895-.144.895-.434V11.02c0-.29-.299-.436-.895-.436v-.434h8.506c1.547 0 2.763.286 3.65.858.884.57 1.327 1.542 1.327 2.91 0 1.371-.443 2.342-1.328 2.912-.886.573-2.102.86-3.65.86H68.91v4.3c0 .29.258.434.773.434v.436H65.26zM89.11 15.803c.58 0 1.063-.045 1.45-.133.387-.088.693-.213.919-.374.224-.161.387-.35.482-.57.096-.216.145-.452.145-.711 0-.258-.049-.496-.145-.713-.095-.218-.258-.406-.482-.567-.226-.161-.532-.286-.92-.376-.386-.087-.87-.133-1.449-.133h-4.18v3.577h4.18zm.627-5.654c.775 0 1.476.068 2.103.206.63.136 1.168.354 1.619.651.451.298.798.685 1.04 1.16.242.475.362 1.06.362 1.751 0 1.065-.314 1.878-.944 2.442-.627.564-1.473.943-2.536 1.135l3.214 4.592c.112.16.246.257.399.289.152.033.294.048.422.048v.436h-4.519v-.436c.146 0 .271-.024.376-.072.103-.048.157-.112.157-.193 0-.08-.034-.173-.097-.277-.065-.105-.161-.245-.29-.424l-2.659-3.77H84.93v4.302c0 .146.052.254.157.326.105.073.294.108.567.108v.436h-4.18v-.436c.467 0 .701-.145.701-.434v-10.97c0-.29-.234-.436-.701-.436v-.434h8.263zM98.993 22.423c.418 0 .629-.145.629-.434V11.02c0-.29-.21-.436-.63-.436v-.434h4.012v.434c-.418 0-.63.146-.63.436v10.97c0 .289.212.434.63.434v.436h-4.011v-.436zM107.16 22.423c.128 0 .242-.035.338-.108.097-.072.146-.181.146-.326V10.97c0-.144-.05-.245-.146-.302-.096-.056-.21-.085-.338-.085v-.434h4.518v.434c-.08 0-.164.025-.254.073-.088.05-.133.122-.133.218 0 .08.033.185.098.314.063.13.136.265.216.41l3.456 6.283 3.48-6.21c.113-.21.196-.375.254-.496.056-.12.085-.23.085-.326 0-.177-.105-.266-.315-.266v-.434h4.47v.434c-.128 0-.24.029-.338.085-.096.057-.145.158-.145.302v11.02c0 .144.049.253.145.325.098.073.21.108.338.108v.436h-3.793v-.436c.435 0 .652-.145.652-.434v-8.022h-.049l-4.856 8.892h-.073l-4.76-8.917h-.048v8.047c0 .289.226.434.676.434v.436h-3.624v-.436z" transform="translate(0 -1)"/>
        <g transform="translate(0 -1) translate(127.059 9.484)">
            <mask id="prefix__b" fill="#fff">
                <use xlink:href="#prefix__a"/>
            </mask>
            <path fill="#0E1F3D" d="M12.118 3.274c0-.176-.07-.31-.205-.399-.139-.087-.375-.132-.714-.132H3.37V5.74h4.736c.322 0 .572-.044.75-.132.176-.088.265-.319.265-.69h.435v3.771h-.435c0-.37-.09-.608-.266-.713-.177-.106-.427-.157-.75-.157H3.37v3.334h8.07c.242 0 .439-.057.593-.17.153-.112.23-.266.23-.459h.435v3.311h-.435c0-.241-.077-.379-.23-.41-.154-.034-.35-.049-.593-.049H.18v-.435c.112 0 .213-.035.302-.108.087-.072.132-.182.132-.326V1.536c0-.147-.045-.255-.132-.328C.394 1.136.293 1.1.181 1.1V.666H11.2c.339 0 .575-.053.714-.16.135-.103.205-.244.205-.42h.434v3.188h-.434z" mask="url(#prefix__b)"/>
        </g>
        <path fill="#0E1F3D" d="M3.286 21.99c0 .145.048.253.146.325.096.073.208.108.338.108v.436H0v-.436c.354 0 .53-.144.53-.434V11.02c0-.29-.176-.436-.53-.436v-.434h3.77v.434c-.13 0-.242.037-.338.109-.098.072-.146.182-.146.327v4.591l5.001-3.938c.226-.195.404-.351.533-.472.128-.12.193-.221.193-.303 0-.111-.036-.191-.108-.24-.074-.049-.158-.074-.254-.074v-.434h5.074v.434c-.29 0-.58.123-.87.363l-5.557 4.422 5.074 5.872c.21.242.454.48.736.713.283.233.56.39.834.47v.436h-4.47v-.436c.21 0 .314-.055.314-.168 0-.08-.112-.258-.339-.533l-4.132-4.759-2.029 1.57v3.456zM29.915 10.584c-.323 0-.557.116-.702.35-.144.234-.25.424-.314.567l-4.276 9.4c-.146.323-.267.581-.363.773-.096.194-.144.33-.144.412 0 .08.02.145.06.192.04.05.092.097.156.146v.435h-3.696v-.435c.143-.064.217-.177.217-.338 0-.081-.06-.246-.182-.495-.12-.25-.27-.56-.447-.932l-4.35-9.446c-.08-.178-.192-.307-.337-.387-.146-.081-.354-.161-.628-.242v-.435h4.326v.435c-.115 0-.223.028-.327.084-.105.057-.157.165-.157.326 0 .178.068.404.205.678.136.273.302.612.495 1.014l3.093 6.646 3.02-6.55c.194-.418.375-.793.545-1.122.17-.33.253-.561.253-.69 0-.257-.225-.386-.677-.386v-.435h4.23v.435zM39.345 20.636c1.016 0 1.743-.157 2.187-.472.442-.314.664-.728.664-1.244 0-.515-.222-.931-.664-1.244-.444-.314-1.17-.47-2.187-.47H34.73v3.43h4.614zm0-5.51c.726 0 1.324-.093 1.8-.277.476-.186.713-.576.713-1.172 0-.595-.237-.987-.712-1.173-.477-.184-1.075-.276-1.801-.276H34.73v2.898h4.614zm-.483-4.977c.742 0 1.458.06 2.15.18.693.122 1.304.315 1.837.58.532.267.958.614 1.28 1.04.323.427.484.954.484 1.583 0 .757-.234 1.34-.701 1.752-.467.41-1.023.728-1.667.953v.05c.757.225 1.397.583 1.92 1.075.524.49.787 1.196.787 2.114 0 .482-.105.93-.314 1.34-.21.412-.52.772-.93 1.076-.412.306-.915.545-1.512.713-.596.168-1.272.254-2.029.254H31.3v-.435c.45 0 .675-.146.675-.435v-10.97c0-.29-.226-.435-.675-.435v-.435h7.562zM50.693 10.156L43.879 31.837 48.396 31.837 55.211 10.156z" transform="translate(0 -1)"/>
        <g transform="translate(0 -1) translate(52.941 .072)">
            <mask id="prefix__d" fill="#fff">
                <use xlink:href="#prefix__c"/>
            </mask>
            <path fill="#0E1F3D" d="M7.746 1.104L0.932 22.786 5.45 22.786 12.264 1.104z" mask="url(#prefix__d)"/>
        </g>
    </g>
</svg>
