<?xml version="1.0" encoding="UTF-8"?>
<svg width="149px" height="24px" viewBox="0 0 149 24" version="1.1" xmlns="http://www.w3.org/2000/svg" xmlns:xlink="http://www.w3.org/1999/xlink">
    <!-- Generator: Sketch 60.1 (88133) - https://sketch.com -->
    <title>编组 5备份</title>
    <desc>Created with Sketch.</desc>
    <defs>
        <polygon id="path-1" points="0 9.80165987e-05 13.2652908 9.80165987e-05 13.2652908 23.999902 0 23.999902"></polygon>
        <polygon id="path-3" points="0.0844821195 0.1176 13.3494349 0.1176 13.3494349 21.6 0.0844821195 21.6"></polygon>
        <polygon id="path-5" points="0 24 109.899607 24 109.899607 0 0 0"></polygon>
    </defs>
    <g id="页面-1" stroke="none" stroke-width="1" fill="none" fill-rule="evenodd">
        <g id="编组-5备份">
            <g id="编组">
                <path d="M14.9207074,12 C14.9207074,14.42976 12.9493537,16.40016 10.517345,16.40016 C8.08581659,16.40016 6.11446288,14.42976 6.11446288,12 C6.11446288,9.57024 8.08581659,7.59984 10.517345,7.59984 C12.9493537,7.59984 14.9207074,9.57024 14.9207074,12" id="Fill-1" fill="#F0821E"></path>
                <g>
                    <mask id="mask-2" fill="white">
                        <use xlink:href="#path-1"></use>
                    </mask>
                    <g id="Clip-4"></g>
                    <path d="M6.33331004,12 L12.622524,4.51056 C13.5976332,3.34896 13.4463231,1.61712 12.2838777,0.64224 C11.1214323,-0.33216 9.38833188,-0.18048 8.41274236,0.98064 L0.641650655,10.23504 C0.634445415,10.24368 0.629161572,10.2528 0.621956332,10.26144 C0.585930131,10.30512 0.553266376,10.35024 0.520122271,10.39584 C0.4989869,10.42512 0.477371179,10.45392 0.457196507,10.48368 C0.427895197,10.52832 0.400995633,10.57392 0.374576419,10.61952 C0.354882096,10.65312 0.334227074,10.68672 0.315973799,10.7208 C0.294358079,10.76208 0.275624454,10.80432 0.255930131,10.84656 C0.237196507,10.88736 0.217502183,10.92768 0.200689956,10.96896 C0.185799127,11.00592 0.173310044,11.04336 0.159860262,11.0808 C0.143528384,11.12832 0.126235808,11.17536 0.111825328,11.22288 C0.101737991,11.25744 0.0940524017,11.29248 0.0854061135,11.32752 C0.0724366812,11.3784 0.0589868996,11.42928 0.0493799127,11.48064 C0.0426550218,11.51616 0.0383318777,11.55216 0.0330480349,11.58816 C0.0253624454,11.63856 0.0171965066,11.68896 0.0123930131,11.73984 C0.00855021834,11.78016 0.00758951965,11.82048 0.00566812227,11.8608 C0.00326637555,11.90736 -9.6069869e-05,11.95344 -9.6069869e-05,12 C-9.6069869e-05,12.04656 0.00326637555,12.09264 0.00566812227,12.1392 C0.00758951965,12.17952 0.00855021834,12.21984 0.0123930131,12.26016 C0.0171965066,12.31104 0.0253624454,12.36144 0.0330480349,12.41184 C0.0383318777,12.44784 0.0426550218,12.48384 0.0493799127,12.51936 C0.0589868996,12.57072 0.0724366812,12.6216 0.0854061135,12.67248 C0.0940524017,12.70752 0.101737991,12.74256 0.111825328,12.77712 C0.126235808,12.82464 0.143528384,12.87168 0.160340611,12.9192 C0.173310044,12.95664 0.185799127,12.99408 0.200689956,13.03104 C0.217502183,13.07232 0.237196507,13.11264 0.255930131,13.15344 C0.275624454,13.19568 0.294358079,13.23792 0.315973799,13.2792 C0.334227074,13.31328 0.354882096,13.34688 0.374576419,13.38048 C0.400995633,13.42608 0.427895197,13.47168 0.457196507,13.51632 C0.477371179,13.54608 0.4989869,13.57488 0.520122271,13.60416 C0.553266376,13.64976 0.585930131,13.69488 0.621956332,13.73856 C0.629161572,13.7472 0.634445415,13.75632 0.641650655,13.76496 L8.41274236,23.01936 C9.38833188,24.18048 11.1214323,24.33216 12.2838777,23.35776 C13.4463231,22.38288 13.5976332,20.65104 12.622524,19.48944 L6.33331004,12 Z" id="Fill-3" fill="#CCCCCC" mask="url(#mask-2)"></path>
                </g>
                <g transform="translate(7.685590, 2.400000)">
                    <mask id="mask-4" fill="white">
                        <use xlink:href="#path-3"></use>
                    </mask>
                    <g id="Clip-6"></g>
                    <path d="M13.3441048,9.4608 C13.3421834,9.42048 13.3412227,9.38016 13.3373799,9.34032 C13.3325764,9.28896 13.3239301,9.23808 13.3162445,9.1872 C13.3109607,9.15168 13.3071179,9.11616 13.300393,9.08064 C13.2903057,9.02928 13.2768559,8.97792 13.2638865,8.92656 C13.2552402,8.892 13.2475546,8.85744 13.2374672,8.82288 C13.2235371,8.77488 13.2062445,8.72784 13.1894323,8.6808 C13.1759825,8.64336 13.1639738,8.60592 13.149083,8.56896 C13.1322707,8.52768 13.1125764,8.48688 13.0933624,8.44608 C13.0741485,8.40432 13.0549345,8.36208 13.0337991,8.3208 C13.0150655,8.28672 12.9948908,8.25312 12.9747162,8.21952 C12.9482969,8.17392 12.9218777,8.12832 12.8925764,8.08368 C12.8724017,8.05392 12.850786,8.02512 12.8291703,7.99584 C12.7965066,7.95024 12.7638428,7.90512 12.7278166,7.86144 C12.7206114,7.8528 12.7148472,7.84368 12.7076419,7.83504 L6.22724891,0.1176 C6.28441048,0.96432 6.02982533,1.8336 5.44187773,2.53392 L3.63768559,4.6824 C6.00868996,5.06784 7.81864629,7.12224 7.81864629,9.6 C7.81864629,12.35184 5.58598253,14.58288 2.83213974,14.58288 L0.727248908,17.08944 C-0.247860262,18.25104 -0.0965502183,19.98288 1.0658952,20.95776 C2.22834061,21.93216 3.96144105,21.78096 4.93703057,20.61936 L12.7076419,11.36496 C12.7148472,11.35632 12.7206114,11.3472 12.7278166,11.33856 C12.7638428,11.29488 12.7965066,11.24976 12.8291703,11.20416 C12.850786,11.17488 12.8724017,11.14608 12.8925764,11.11632 C12.9218777,11.07168 12.9482969,11.02608 12.9747162,10.98048 C12.9948908,10.94688 13.0150655,10.91328 13.0337991,10.8792 C13.0549345,10.83792 13.0741485,10.79568 13.0933624,10.75392 C13.1125764,10.71312 13.1322707,10.67232 13.149083,10.63104 C13.1639738,10.59408 13.1759825,10.55712 13.1894323,10.51968 C13.2062445,10.47216 13.2235371,10.42512 13.2374672,10.37712 C13.2475546,10.34256 13.2552402,10.308 13.2638865,10.27344 C13.2768559,10.22208 13.2903057,10.17072 13.300393,10.11936 C13.3071179,10.08384 13.3109607,10.04832 13.3162445,10.0128 C13.3239301,9.96192 13.3325764,9.91104 13.3373799,9.86016 C13.3412227,9.81984 13.3421834,9.77952 13.3441048,9.7392 C13.3465066,9.69264 13.349869,9.64656 13.3494349,9.6 C13.349869,9.55344 13.3465066,9.50736 13.3441048,9.4608" id="Fill-5" fill="#4D4D4D" mask="url(#mask-4)"></path>
                </g>
                <path d="M31.1329782,15.186336 C31.4990044,14.939616 31.6820175,14.554176 31.6820175,14.030016 C31.6820175,13.019616 30.9576507,12.514656 29.5093974,12.514656 L26.6844629,12.514656 L26.6844629,15.556416 L29.5093974,15.556416 C30.2255983,15.556416 30.7674323,15.433536 31.1329782,15.186336 L31.1329782,15.186336 Z M26.6844629,8.870976 L26.6844629,11.809056 L29.2351179,11.809056 C29.8826288,11.809056 30.3821921,11.683776 30.7328472,11.433216 C31.0835022,11.182656 31.25931,10.818336 31.25931,10.340256 C31.25931,9.861696 31.0835022,9.497376 30.7328472,9.247296 C30.3821921,8.996256 29.8826288,8.870976 29.2351179,8.870976 L26.6844629,8.870976 Z M32.099441,12.774816 C32.3852489,13.118016 32.528393,13.559616 32.528393,14.099136 C32.528393,14.793216 32.2747686,15.327456 31.7675197,15.700896 C31.2612314,16.075296 30.5118865,16.262016 29.5209258,16.262016 L25.8385677,16.262016 L25.8385677,8.165856 L29.2922795,8.165856 C30.1842882,8.165856 30.8755109,8.346816 31.3673886,8.709216 C31.8592664,9.071616 32.1047249,9.584736 32.1047249,10.247136 C32.1047249,10.694976 31.9966463,11.074656 31.7795284,11.386656 C31.5619301,11.699136 31.2631528,11.932896 30.8817555,12.086496 C31.4072576,12.202176 31.8136332,12.432096 32.099441,12.774816 L32.099441,12.774816 Z" id="Fill-7" fill="#4B4B4B"></path>
                <mask id="mask-6" fill="white">
                    <use xlink:href="#path-5"></use>
                </mask>
                <g id="Clip-10"></g>
                <polygon id="Fill-9" fill="#4B4B4B" mask="url(#mask-6)" points="34.2892576 16.26192 35.101048 16.26192 35.101048 7.68 34.2892576 7.68"></polygon>
                <path d="M40.9733188,15.296256 C41.3124454,15.099456 41.5771179,14.820096 41.7682969,14.457696 C41.9585153,14.095296 42.0541048,13.682976 42.0541048,13.220256 C42.0541048,12.757056 41.9585153,12.345216 41.7682969,11.982816 C41.5771179,11.619936 41.3124454,11.340576 40.9733188,11.143776 C40.6341921,10.946976 40.2508734,10.848576 39.8238428,10.848576 C39.3968122,10.848576 39.0139738,10.946976 38.6748472,11.143776 C38.3357205,11.340576 38.0686463,11.619936 37.8741048,11.982816 C37.6800437,12.345216 37.5825328,12.757056 37.5825328,13.220256 C37.5825328,13.682976 37.6800437,14.095296 37.8741048,14.457696 C38.0686463,14.820096 38.3357205,15.099456 38.6748472,15.296256 C39.0139738,15.493056 39.3968122,15.591456 39.8238428,15.591456 C40.2508734,15.591456 40.6341921,15.493056 40.9733188,15.296256 M38.2574236,15.920736 C37.7919651,15.655296 37.4264192,15.286656 37.1598253,14.816256 C36.8922707,14.346336 36.759214,13.814016 36.759214,13.220256 C36.759214,12.626496 36.8922707,12.094656 37.1598253,11.624256 C37.4264192,11.153856 37.7919651,10.787136 38.2574236,10.525056 C38.7219214,10.263456 39.2445415,10.131936 39.8238428,10.131936 C40.4031441,10.131936 40.9252838,10.263456 41.3907424,10.525056 C41.8557205,10.787136 42.2198253,11.153856 42.4830568,11.624256 C42.7458079,12.094656 42.8774236,12.626496 42.8774236,13.220256 C42.8774236,13.814016 42.7458079,14.346336 42.4830568,14.816256 C42.2198253,15.286656 41.8557205,15.655296 41.3907424,15.920736 C40.9252838,16.186656 40.4031441,16.320096 39.8238428,16.320096 C39.2445415,16.320096 38.7219214,16.186656 38.2574236,15.920736" id="Fill-11" fill="#F0821E" mask="url(#mask-6)"></path>
                <path d="M47.8799738,10.525536 C48.3487948,10.787616 48.7167424,11.155776 48.9833362,11.630016 C49.2504105,12.104256 49.3839476,12.638016 49.3839476,13.231776 C49.3839476,13.825536 49.2504105,14.357376 48.9833362,14.827776 C48.7167424,15.298176 48.3487948,15.664896 47.8799738,15.926976 C47.4106725,16.188576 46.8794061,16.320096 46.2842533,16.320096 C45.7659563,16.320096 45.3028996,16.217856 44.895083,16.013856 C44.4872664,15.809376 44.1654323,15.510336 43.9291004,15.116736 L44.534821,14.701056 C44.7336856,15.001536 44.9849083,15.227136 45.2894498,15.377376 C45.594952,15.527616 45.926393,15.603456 46.2842533,15.603456 C46.7189694,15.603456 47.1099738,15.505056 47.456786,15.308256 C47.8035983,15.111456 48.0745153,14.832096 48.2685764,14.469216 C48.4631179,14.106816 48.5601485,13.694976 48.5601485,13.231776 C48.5601485,12.761376 48.4631179,12.346656 48.2685764,11.988576 C48.0745153,11.630016 47.8035983,11.352576 47.456786,11.155776 C47.1099738,10.958976 46.7189694,10.860576 46.2842533,10.860576 C45.926393,10.860576 45.594952,10.934016 45.2894498,11.080416 C44.9849083,11.226816 44.7336856,11.450976 44.534821,11.751456 L43.9291004,11.335296 C44.1654323,10.941696 44.4891878,10.642656 44.9008472,10.438176 C45.3125066,10.234176 45.7741223,10.131936 46.2842533,10.131936 C46.8794061,10.131936 47.4106725,10.263456 47.8799738,10.525536" id="Fill-12" fill="#4B4B4B" mask="url(#mask-6)"></path>
                <polygon id="Fill-13" fill="#4B4B4B" mask="url(#mask-6)" points="53.1119869 13.208688 51.6939956 14.527248 51.6939956 16.261968 50.8822052 16.261968 50.8822052 7.680048 51.6939956 7.680048 51.6939956 13.497648 55.284607 10.178448 56.2909389 10.178448 53.7181878 12.664848 56.5315939 16.261968 55.53631 16.261968"></polygon>
                <polygon id="Fill-14" fill="#4B4B4B" mask="url(#mask-6)" points="59.1269214 8.906016 56.3139956 8.906016 56.3139956 8.165856 62.7862227 8.165856 62.7862227 8.906016 59.9732969 8.906016 59.9732969 16.262016 59.1269214 16.262016"></polygon>
                <path d="M65.4338603,10.443984 C65.8114148,10.236144 66.2783144,10.131984 66.8350393,10.131984 L66.8350393,10.929744 L66.6404978,10.918224 C66.0073974,10.918224 65.5121572,11.115024 65.1538166,11.508144 C64.795476,11.901744 64.6163057,12.452784 64.6163057,13.162704 L64.6163057,16.262064 L63.8040349,16.262064 L63.8040349,10.178064 L64.5817205,10.178064 L64.5817205,11.369424 C64.7728996,10.960944 65.0563057,10.652784 65.4338603,10.443984" id="Fill-15" fill="#4B4B4B" mask="url(#mask-6)"></path>
                <path d="M71.282738,15.354144 C71.6103362,15.141984 71.8543537,14.835744 72.0147904,14.434464 L72.0147904,13.439904 L70.1279782,13.439904 C69.0985895,13.439904 68.5841354,13.802784 68.5841354,14.527104 C68.5841354,14.881824 68.7171921,15.161184 68.9842664,15.365664 C69.2508603,15.570144 69.6245721,15.672384 70.1049214,15.672384 C70.562214,15.672384 70.9546594,15.566304 71.282738,15.354144 M72.1973231,10.727424 C72.6166681,11.124384 72.8265808,11.712864 72.8265808,12.491424 L72.8265808,16.262304 L72.0493755,16.262304 L72.0493755,15.313824 C71.8658821,15.630144 71.5973668,15.876384 71.242869,16.053984 C70.8883712,16.231584 70.4671048,16.319904 69.9790699,16.319904 C69.3080218,16.319904 68.7743537,16.158144 68.3785459,15.834144 C67.9817773,15.510624 67.783393,15.082464 67.783393,14.550624 C67.783393,14.033664 67.9683275,13.617504 68.3381965,13.301184 C68.7075852,12.984864 69.2969738,12.826944 70.1049214,12.826944 L72.0147904,12.826944 L72.0147904,12.456384 C72.0147904,11.932704 71.8697249,11.533824 71.5800742,11.259744 C71.2904236,10.986144 70.8672358,10.848864 70.3109913,10.848864 C69.9295939,10.848864 69.5635677,10.912704 69.2129127,11.039904 C68.8622576,11.167104 68.5610786,11.342784 68.3093755,11.565984 L67.9438297,10.953504 C68.2483712,10.691424 68.6143974,10.488864 69.0414279,10.345824 C69.4679782,10.203264 69.9180655,10.132224 70.3907293,10.132224 C71.1756201,10.132224 71.7784585,10.330464 72.1973231,10.727424" id="Fill-16" fill="#4B4B4B" mask="url(#mask-6)"></path>
                <path d="M79.8994367,10.796976 C80.3456812,11.240496 80.5685633,11.886096 80.5685633,12.734256 L80.5685633,16.262256 L79.7567729,16.262256 L79.7567729,12.815376 C79.7567729,12.183216 79.600179,11.701296 79.2874716,11.369136 C78.9747642,11.037936 78.529,10.872336 77.9496987,10.872336 C77.3017074,10.872336 76.7886943,11.067216 76.4111397,11.456496 C76.0340655,11.845776 75.8457686,12.383856 75.8457686,13.069776 L75.8457686,16.262256 L75.0334978,16.262256 L75.0334978,10.178256 L75.8111834,10.178256 L75.8111834,11.300016 C76.0321441,10.929936 76.3390873,10.642896 76.7320131,10.438416 C77.1244585,10.234416 77.5798297,10.132176 78.0981266,10.132176 C78.8527555,10.132176 79.4536725,10.353936 79.8994367,10.796976" id="Fill-17" fill="#4B4B4B" mask="url(#mask-6)"></path>
                <path d="M82.9872664,16.105776 C82.5410218,15.963216 82.1922882,15.784176 81.9405852,15.567696 L82.3066114,14.920176 C82.5583144,15.120816 82.8748646,15.284496 83.2557817,15.412176 C83.6366987,15.539376 84.0329869,15.602736 84.4451266,15.602736 C84.9941659,15.602736 85.3995808,15.515856 85.6628122,15.342576 C85.9260437,15.169296 86.057179,14.924496 86.057179,14.608176 C86.057179,14.384976 85.9846463,14.209296 85.8400611,14.081616 C85.695476,13.954416 85.5124629,13.857936 85.2915022,13.792656 C85.0700611,13.727376 84.777048,13.663536 84.4105415,13.602096 C83.9229869,13.509456 83.5300611,13.414896 83.2327249,13.318416 C82.9353886,13.222416 82.6817642,13.057776 82.4728122,12.826896 C82.2628996,12.595536 82.1577031,12.275856 82.1577031,11.866896 C82.1577031,11.358096 82.3671354,10.941456 82.7869607,10.617456 C83.2058253,10.293936 83.7894498,10.132176 84.5368734,10.132176 C84.925476,10.132176 85.3140786,10.184016 85.7026812,10.287696 C86.0917642,10.392336 86.4116769,10.529136 86.6633799,10.698576 L86.3093624,11.358096 C85.8136419,11.010576 85.2223319,10.837296 84.5368734,10.837296 C84.0180961,10.837296 83.6275721,10.929936 83.364821,11.115216 C83.1011092,11.300016 82.9699738,11.542896 82.9699738,11.843856 C82.9699738,12.074736 83.0444279,12.260016 83.1928559,12.399216 C83.3417642,12.537936 83.5266987,12.640176 83.7476594,12.705456 C83.9686201,12.770736 84.2731616,12.838416 84.6622445,12.908016 C85.1425939,13.000656 85.5273537,13.092816 85.8174847,13.185456 C86.1071354,13.277616 86.3545153,13.436016 86.5605852,13.659216 C86.766655,13.883376 86.8694498,14.192016 86.8694498,14.584656 C86.8694498,15.116976 86.6499301,15.539376 86.2118515,15.851856 C85.7732926,16.163856 85.1651703,16.319856 84.3879651,16.319856 C83.8999301,16.319856 83.4330306,16.248816 82.9872664,16.105776" id="Fill-18" fill="#4B4B4B" mask="url(#mask-6)"></path>
                <path d="M93.2333581,10.796976 C93.6796026,11.240496 93.9024847,11.886096 93.9024847,12.734256 L93.9024847,16.262256 L93.0906943,16.262256 L93.0906943,12.815376 C93.0906943,12.183216 92.9341004,11.701296 92.621393,11.369136 C92.3086856,11.037936 91.8629214,10.872336 91.2836201,10.872336 C90.6356288,10.872336 90.1226157,11.067216 89.7455415,11.456496 C89.3679869,11.845776 89.17969,12.383856 89.17969,13.069776 L89.17969,16.262256 L88.3674192,16.262256 L88.3674192,7.679856 L89.17969,7.679856 L89.17969,11.242416 C89.4006507,10.887696 89.7051921,10.614096 90.0942751,10.421136 C90.4833581,10.228656 90.9291223,10.132176 91.432048,10.132176 C92.1866769,10.132176 92.7875939,10.353936 93.2333581,10.796976" id="Fill-19" fill="#4B4B4B" mask="url(#mask-6)"></path>
                <path d="M107.990266,15.296256 C108.333236,15.099456 108.601751,14.820096 108.796293,14.457696 C108.990834,14.095296 109.087865,13.682976 109.087865,13.220256 C109.087865,12.757056 108.990834,12.345216 108.796293,11.982816 C108.601751,11.619936 108.333236,11.340576 107.990266,11.143776 C107.647297,10.946976 107.2659,10.848576 106.846555,10.848576 C106.419044,10.848576 106.036205,10.946976 105.697079,11.143776 C105.357952,11.340576 105.091358,11.619936 104.896817,11.982816 C104.702275,12.345216 104.605245,12.757056 104.605245,13.220256 C104.605245,13.682976 104.702275,14.095296 104.896817,14.457696 C105.091358,14.820096 105.357952,15.099456 105.697079,15.296256 C106.036205,15.493056 106.419044,15.591456 106.846555,15.591456 C107.2659,15.591456 107.647297,15.493056 107.990266,15.296256 M108.436031,10.519296 C108.893323,10.777536 109.251664,11.141856 109.511052,11.612256 C109.769961,12.082656 109.899655,12.618816 109.899655,13.220256 C109.899655,13.821216 109.769961,14.357376 109.511052,14.827776 C109.251664,15.298176 108.893323,15.664416 108.436031,15.926496 C107.978738,16.188576 107.467646,16.320096 106.903716,16.320096 C106.40079,16.320096 105.948782,16.212096 105.548651,15.996096 C105.14852,15.780096 104.826205,15.468096 104.582188,15.059136 L104.582188,16.262016 L103.804983,16.262016 L103.804983,7.680096 L104.616773,7.680096 L104.616773,11.335296 C104.868476,10.941696 105.19031,10.642656 105.583236,10.438176 C105.975201,10.234176 106.415681,10.131936 106.903716,10.131936 C107.467646,10.131936 107.978738,10.261056 108.436031,10.519296" id="Fill-20" fill="#4B4B4B" mask="url(#mask-6)"></path>
                <polygon id="Fill-21" fill="#4B4B4B" mask="url(#mask-6)" points="95.7028821 16.32 98.3789083 10.236 99.2137555 10.236 101.877773 16.32 101.032358 16.32 98.7790393 11.1384 96.5036245 16.32"></polygon>
            </g>
            <path d="M119.256627,4 L141.5,4 C145.642136,4 149,7.35786438 149,11.5 C149,15.6421356 145.642136,19 141.5,19 L110,19 L110,19 L119.256627,4 Z" id="矩形备份-13" fill="#4D4D4D"></path>
            <text id="Bank" font-family="PingFangSC-Semibold, PingFang SC" font-size="8" font-weight="500" line-spacing="10" fill="#FFFFFF">
                <tspan x="122" y="14.5">Bank</tspan>
            </text>
        </g>
    </g>
</svg>