<svg xmlns="http://www.w3.org/2000/svg" xmlns:xlink="http://www.w3.org/1999/xlink" width="364" height="217" viewBox="0 0 364 217">
    <defs>
        <linearGradient id="prefix__b" x1="0%" x2="100%" y1="32.23%" y2="67.77%">
            <stop offset="0%" stop-color="#85500C"/>
            <stop offset="58.525%" stop-color="#E0A164"/>
            <stop offset="100%" stop-color="#85500C"/>
        </linearGradient>
        <linearGradient id="prefix__d" x1="56.185%" x2="-14.864%" y1="0%" y2="79.762%">
            <stop offset="0%" stop-color="#905A16" stop-opacity="0"/>
            <stop offset="100%" stop-color="#6B3B00"/>
        </linearGradient>
        <linearGradient id="prefix__e" x1="105.657%" x2="39.03%" y1="-31.065%" y2="107.283%">
            <stop offset="0%" stop-color="#6B3B00"/>
            <stop offset="100%" stop-color="#905A16" stop-opacity="0"/>
        </linearGradient>
        <path id="prefix__f" d="M0.154 0.073L10.792 0.073 10.792 11.759 0.154 11.759z"/>
        <path id="prefix__h" d="M0.792 0.939L10.424 0.939 10.424 19.368 0.792 19.368z"/>
        <rect id="prefix__a" width="364" height="217" x="0" y="0" rx="15"/>
    </defs>
    <g fill="none" fill-rule="evenodd">
        <mask id="prefix__c" fill="#fff">
            <use xlink:href="#prefix__a"/>
        </mask>
        <use fill="url(#prefix__b)" xlink:href="#prefix__a"/>
        <g mask="url(#prefix__c)">
            <g>
                <path fill="url(#prefix__d)" d="M100.922 185L0.5 504 67.078 504 167.5 185z" transform="translate(136.5 -138)"/>
                <path fill="url(#prefix__e)" d="M260.922 0L160.5 319 227.078 319 327.5 0z" transform="translate(136.5 -138)"/>
            </g>
        </g>
        <g mask="url(#prefix__c)">
            <g>
                <path fill="#FFF" d="M62.948 13.145c.452 0 .838-.09 1.16-.267.322-.177.483-.527.483-1.048 0-.52-.161-.868-.483-1.047-.322-.177-.708-.266-1.16-.266h-4.375v2.628h4.375zM55.47 19.43v-.37c.507 0 .76-.123.76-.37V9.367c0-.246-.253-.37-.76-.37v-.37h7.23c1.315 0 2.349.244 3.102.73.752.485 1.129 1.31 1.129 2.474 0 1.165-.377 1.99-1.13 2.475-.752.487-1.786.73-3.101.73h-4.128v3.656c0 .246.219.369.657.369v.37h-3.76zM75.744 13.432c.492 0 .903-.037 1.232-.113.329-.075.589-.18.78-.318.192-.136.33-.297.41-.483.083-.184.124-.386.124-.606 0-.219-.041-.42-.123-.606-.081-.184-.22-.345-.41-.481-.192-.137-.452-.243-.781-.32-.33-.074-.74-.113-1.232-.113H72.19v3.04h3.553zm.533-4.806c.658 0 1.254.059 1.787.176.535.116.993.3 1.376.553.384.253.679.582.884.986.206.404.308.902.308 1.489 0 .905-.267 1.595-.802 2.075-.533.48-1.252.802-2.156.965l2.732 3.903c.095.137.209.218.339.245.129.029.25.041.359.041v.371h-3.841v-.37c.124 0 .23-.02.319-.061.088-.041.134-.095.134-.165 0-.069-.03-.146-.083-.235-.055-.09-.137-.209-.246-.36l-2.26-3.205H72.19v3.656c0 .124.044.216.133.277.089.063.25.093.482.093v.37h-3.553v-.37c.397 0 .596-.123.596-.37V9.367c0-.246-.2-.37-.596-.37v-.37h7.024zM84.144 19.06c.356 0 .535-.124.535-.37V9.367c0-.246-.18-.37-.535-.37v-.37h3.41v.37c-.356 0-.535.124-.535.37v9.325c0 .245.179.369.535.369v.37h-3.41v-.37zM91.086 19.06c.109 0 .206-.03.288-.092.082-.061.124-.154.124-.277V9.325c0-.123-.042-.21-.124-.257-.082-.048-.18-.072-.288-.072v-.37h3.84v.37c-.068 0-.14.02-.215.062-.075.042-.113.103-.113.185 0 .068.028.157.083.267.054.11.116.225.184.348l2.937 5.34 2.958-5.277c.096-.18.167-.32.216-.422.048-.102.072-.195.072-.277 0-.151-.09-.226-.267-.226v-.37h3.799v.37c-.11 0-.204.024-.287.072-.082.048-.123.134-.123.257v9.366c0 .123.04.216.123.277.083.062.178.092.287.092v.37h-3.224v-.37c.37 0 .554-.124.554-.37v-6.818h-.041L97.74 19.43h-.062l-4.046-7.58h-.041v6.84c0 .246.192.37.575.37v.37h-3.081v-.37z" transform="translate(26 30)"/>
                <g transform="translate(26 30) translate(108 8.061)">
                    <mask id="prefix__g" fill="#fff">
                        <use xlink:href="#prefix__f"/>
                    </mask>
                    <path fill="#FFF" d="M10.3 2.783c0-.15-.06-.263-.174-.34-.118-.073-.32-.111-.607-.111H2.865v2.546H6.89c.274 0 .486-.037.637-.112.15-.075.226-.271.226-.586h.37v3.205h-.37c0-.315-.076-.517-.226-.606-.151-.09-.363-.134-.637-.134H2.865v2.834h6.859c.206 0 .373-.048.504-.144.13-.095.196-.226.196-.39h.369v2.814h-.37c0-.205-.065-.322-.195-.35-.131-.027-.298-.04-.504-.04H.154v-.37c.095 0 .18-.03.257-.092.074-.061.112-.154.112-.277V1.305c0-.124-.038-.216-.112-.278C.335.966.249.935.154.935v-.37h9.365c.288 0 .489-.044.607-.134.115-.088.174-.208.174-.358h.369v2.71h-.37z" mask="url(#prefix__g)"/>
                </g>
                <path fill="#FFF" d="M2.793 18.69c0 .125.041.217.124.278.082.062.177.092.287.092v.37H0v-.37c.301 0 .451-.123.451-.37V9.367c0-.246-.15-.37-.45-.37v-.37h3.203v.37c-.11 0-.205.03-.287.092-.083.062-.124.155-.124.278v3.903L7.044 9.92c.192-.165.343-.298.453-.401.11-.102.164-.188.164-.257 0-.095-.03-.163-.092-.205-.063-.041-.134-.062-.216-.062v-.37h4.313v.37c-.246 0-.493.104-.74.308l-4.723 3.759 4.313 4.99c.178.207.386.409.626.607s.475.332.71.4v.37h-3.8v-.37c.177 0 .266-.047.266-.143 0-.068-.095-.22-.288-.453l-3.512-4.045-1.725 1.334v2.938zM25.427 8.996c-.274 0-.473.099-.596.298-.123.199-.213.36-.267.482l-3.635 7.99c-.124.274-.227.494-.308.657-.082.165-.123.281-.123.35 0 .068.017.123.051.163.034.042.078.083.133.124v.37H17.54v-.37c.122-.054.185-.15.185-.287 0-.069-.05-.209-.155-.421l-.38-.792-3.697-8.029c-.068-.151-.164-.261-.287-.329-.124-.069-.3-.137-.534-.206v-.369h3.677v.369c-.097 0-.189.024-.278.072-.089.048-.133.14-.133.277 0 .151.058.343.174.576.116.232.257.52.421.862l2.63 5.649 2.566-5.567c.165-.356.32-.674.463-.954.144-.281.215-.477.215-.586 0-.219-.19-.329-.575-.329v-.369h3.595v.369zM33.443 17.54c.864 0 1.482-.133 1.859-.4.376-.268.565-.62.565-1.058 0-.438-.189-.792-.565-1.058-.377-.267-.995-.4-1.859-.4h-3.922v2.916h3.922zm0-4.683c.617 0 1.126-.079 1.531-.236.404-.158.605-.489.605-.996 0-.506-.201-.839-.605-.997-.405-.156-.914-.235-1.531-.235h-3.922v2.464h3.922zm-.41-4.23c.63 0 1.239.051 1.828.153.588.103 1.108.267 1.561.493.452.226.814.521 1.088.883.274.363.411.811.411 1.346 0 .643-.199 1.14-.596 1.49-.397.348-.869.618-1.417.81v.041c.644.192 1.188.496 1.633.914.445.417.668 1.017.668 1.797 0 .41-.089.791-.267 1.14-.178.35-.442.655-.791.914-.349.26-.777.463-1.284.606-.507.143-1.082.216-1.725.216h-7.537v-.37c.382 0 .574-.124.574-.37V9.366c0-.247-.192-.37-.574-.37v-.37h6.428zM43.089 8.632L37.297 27.061 41.137 27.061 46.929 8.632z" transform="translate(26 30)"/>
                <g transform="translate(26 30) translate(45 .061)">
                    <mask id="prefix__i" fill="#fff">
                        <use xlink:href="#prefix__h"/>
                    </mask>
                    <path fill="#FFF" d="M6.584 0.939L0.792 19.368 4.632 19.368 10.424 0.939z" mask="url(#prefix__i)"/>
                </g>
            </g>
        </g>
    </g>
</svg>
