<?xml version="1.0" encoding="utf-8"?>
<!-- Generator: Adobe Illustrator 23.0.4, SVG Export Plug-In . SVG Version: 6.00 Build 0)  -->
<svg version="1.1" id="图层_1" xmlns="http://www.w3.org/2000/svg" xmlns:xlink="http://www.w3.org/1999/xlink" x="0px" y="0px"
	 viewBox="0 0 35 35" style="enable-background:new 0 0 35 35;" xml:space="preserve">
<style type="text/css">
	.st0{opacity:0.4;enable-background:new    ;}
	.st1{fill:#DB351F;}
</style>
<title>loading</title>
<desc>Created with Sketch.</desc>
<g id="页面-1">
	<g id="Loading" transform="translate(-575.000000, -87.000000)">
		<g id="loading" transform="translate(575.000000, 87.000000)">
			<g id="椭圆形" class="st0">
				<path class="st1" d="M17.5,35C7.9,35,0,27.1,0,17.5S7.9,0,17.5,0S35,7.9,35,17.5S27.1,35,17.5,35z M17.5,4C10.1,4,4,10.1,4,17.5
					C4,24.9,10.1,31,17.5,31C24.9,31,31,24.9,31,17.5C31,10.1,24.9,4,17.5,4z"/>
			</g>
			<g id="形状结合">
				<path class="st1" d="M17.5,31c0.2,0,0.3,0,0.5,0l0,4c-0.2,0-0.3,0-0.5,0C8,35,0.3,27.4,0,18l4,0C4.3,25.2,10.2,31,17.5,31z"/>
			</g>
		</g>
	</g>
</g>
</svg>
