<svg xmlns="http://www.w3.org/2000/svg" width="175" height="16" viewBox="0 0 175 16">
    <g fill="none" fill-rule="evenodd">
        <g>
            <g>
                <path fill="#43A045" d="M4.233 8.213l1.021-3.271 1.044 3.27H4.233zm.06-7.4L.67 12.509H2.9l.741-2.39h3.235l.747 2.39h2.362L6.343.813h-2.05zM15.217 7.348l-.888-.323c-.575-.208-.99-.391-1.234-.544-.188-.116-.214-.225-.214-.325 0-.088.029-.224.275-.377.245-.152.61-.229 1.084-.229.71 0 1.485.148 2.301.439l.551.196V4.12l-.285-.092c-.79-.255-1.637-.384-2.517-.384-1.217 0-2.126.242-2.7.719-.597.495-.899 1.136-.899 1.905 0 .552.16 1.03.475 1.416.307.39.948.766 2.018 1.18l.905.356.45.182c.688.28.84.423.864.45.067.073.097.155.097.264 0 .183-.085.33-.268.464-.15.11-.476.24-1.186.24-.375 0-.845-.066-1.398-.196-.537-.126-1.055-.35-1.538-.663l-.637-.413v2.415l.26.103c1.104.438 2.198.66 3.25.66 1.244 0 2.178-.253 2.775-.751.619-.516.933-1.184.933-1.985 0-.624-.203-1.155-.604-1.578-.376-.397-.987-.745-1.87-1.064M22.498 3.861L18.181 3.861 18.181 5.768 20.364 5.768 20.364 12.509 24.688 12.509 24.688 10.603 22.498 10.603zM20.625 2.425c.272.195.544.294.81.294.269 0 .544-.099.815-.294.31-.222.473-.561.473-.981 0-.425-.164-.767-.473-.99-.547-.391-1.078-.391-1.625.001-.31.222-.472.564-.472.989 0 .42.163.76.472.981M31.423 8.68c-.351.608-.748 1.098-1.179 1.457-.415.346-.781.522-1.09.522-.243 0-.457-.136-.673-.427-.24-.321-.36-.83-.36-1.514 0-.965.238-1.73.707-2.272.461-.532 1.02-.79 1.71-.79.273 0 .57.032.885.096V8.68zM33.557 9.8V3.86H31.85c-.135-.012-.237-.023-.314-.033-.52-.053-.902-.079-1.168-.079-.944 0-1.752.234-2.404.696-.636.452-1.15 1.072-1.527 1.844-.373.765-.563 1.643-.563 2.607 0 1.25.301 2.21.895 2.85.602.65 1.3.98 2.074.98.542 0 1.133-.186 1.756-.553.337-.198.65-.452.935-.756.044.299.093.56.147.78l.077.312h2.266l-.187-.543c-.186-.543-.28-1.272-.28-2.167zM40.447 6.262L38.63 5.175c-.407-.227-.743-.476-.998-.741-.214-.22-.313-.483-.313-.825 0-.332.132-.599.415-.84.294-.252.697-.38 1.198-.38.705 0 1.443.145 2.194.43l.559.211V.92L41.393.83c-.764-.23-1.565-.347-2.38-.347-1.318 0-2.314.321-2.962.956-.649.637-.978 1.43-.978 2.36 0 1.268.715 2.33 2.126 3.16l1.436.827c.632.368 1.06.698 1.274.983.195.26.29.527.29.817 0 .244-.067.465-.204.675-.133.205-.34.367-.612.481-.298.125-.615.189-.942.189-.851 0-1.821-.258-2.883-.766l-.59-.282v2.271l.271.098c.655.235 1.196.393 1.609.47.415.076.855.115 1.31.115 1.46 0 2.552-.344 3.243-1.022.693-.68 1.045-1.506 1.045-2.456 0-1.25-.673-2.292-2-3.098M45.913 7.008c.14-.427.331-.763.572-1.001.31-.307.665-.457 1.085-.457.406 0 .706.133.944.418.214.257.338.606.369 1.04h-2.97zm1.714-3.364c-.781 0-1.5.207-2.138.615-.635.406-1.135.979-1.487 1.703-.344.711-.52 1.464-.52 2.237 0 .805.185 1.57.55 2.277.368.715.869 1.274 1.488 1.662.623.39 1.336.588 2.12.588.992 0 2.05-.262 3.148-.777l.236-.111V9.692l-.61.336c-.957.525-1.834.792-2.604.792-.395 0-.75-.094-1.053-.278-.303-.183-.553-.467-.745-.846-.139-.274-.23-.574-.271-.894h5.396v-.69c0-1.474-.318-2.595-.947-3.33-.645-.755-1.507-1.138-2.563-1.138zM56.715 3.644c-1.208 0-2.253.437-3.106 1.3-.852.86-1.284 1.952-1.284 3.244 0 .856.19 1.634.565 2.311.377.68.91 1.228 1.583 1.626.675.399 1.453.601 2.313.601.834 0 1.722-.156 2.638-.463l.28-.094v-2.121l-.544.184c-.896.303-1.29.396-1.461.42-.256.037-.521.056-.787.056-.811 0-1.383-.257-1.748-.783-.393-.568-.593-1.168-.593-1.786 0-.466.104-.927.308-1.37.192-.417.463-.726.806-.917.358-.2.745-.302 1.15-.302.66 0 1.43.198 2.286.587l.584.265V4.215l-.281-.094c-.944-.317-1.856-.477-2.709-.477M66.128 8.73c-.312.569-.703 1.047-1.163 1.423-.45.368-.86.555-1.22.555-.133 0-.251-.046-.374-.143-.13-.103-.214-.227-.263-.39-.034-.112-.092-.44-.092-1.37V3.861h-2.133v4.783c0 1.22.082 2.031.25 2.48.182.483.506.876.963 1.169.448.287.949.433 1.487.433.593 0 1.188-.184 1.768-.546.27-.169.53-.379.777-.628v.957h2.134V3.86h-2.134v4.87zM74.923 3.644l-.078.002-.128-.002c-.721 0-1.387.182-1.978.54-.198.12-.39.262-.573.424V3.86h-2.339v8.648h2.339V7.662c.402-.673.813-1.184 1.223-1.518.359-.293.721-.452 1.078-.477v1.838h2.29V3.968l-.29-.089c-.512-.156-1.031-.235-1.544-.235M101.166 4.066h-1.764l-2.2 5.355-2.638-5.355H92.46l3.735 7.731-.09.216c-.107.287-.294.636-.556 1.035-.251.382-.527.65-.82.795-.266.132-.573.207-.91.22-.281-.009-.581-.06-.892-.155l-.267-.083v.064l-.207-.064v1.591l.162.036c.327.073.703.11 1.115.11.04 0 .078 0 .116-.002l.09.002c.967 0 1.77-.27 2.386-.805.61-.53 1.227-1.554 1.89-3.131l3.16-7.56h-.206zM80.02 2.425c.271.195.543.294.809.294.034 0 .069-.002.103-.005.035.003.069.005.103.005.27 0 .544-.099.816-.294.309-.222.472-.561.472-.981 0-.425-.163-.767-.472-.99-.309-.22-.612-.317-.916-.288-.304-.029-.607.068-.915.289-.31.222-.473.564-.473.989 0 .42.163.76.473.981M82.098 10.603L82.098 3.861 81.892 3.861 77.781 3.861 77.575 3.861 77.575 5.767 77.781 5.767 79.758 5.767 79.758 12.509 79.964 12.509 84.082 12.509 84.288 12.509 84.288 10.603 84.082 10.603zM92.013 10.281l-.308.175c-.625.355-1.225.542-1.789.564-.268-.01-.506-.061-.704-.157-.215-.104-.383-.264-.513-.489-.09-.156-.198-.496-.198-1.233V6.214H92V4.718h-3.499V1.564h-1.928v3.154H84.608v1.496H86.573v2.949c0 .903.123 1.56.375 2.006.253.448.631.79 1.124 1.018.48.222 1.017.334 1.594.334l.105-.003c.034.001.067.003.101.003.269 0 .551-.026.839-.077.295-.052.747-.206 1.381-.472l.127-.052V10.28l-.206.117v-.117zM109.257 0H167.5c4.142 0 7.5 3.358 7.5 7.5 0 4.142-3.358 7.5-7.5 7.5H102l7.257-15z" transform="translate(-821 -268) translate(821 268)"/>
                <text fill="#FFF" font-family="PingFangSC-Semibold, PingFang SC" font-size="8" font-weight="500" transform="translate(-821 -268) translate(821 268)">
                    <tspan x="114" y="10.5">Bank Transfer</tspan>
                </text>
            </g>
        </g>
    </g>
</svg>
