<svg xmlns="http://www.w3.org/2000/svg" width="26" height="26" viewBox="0 0 26 26">
    <g fill="none">
        <path fill="#DB351F" d="M13.094 0C5.966 0 .188 5.779.188 12.906c0 7.127 5.778 12.906 12.906 12.906 7.127 0 12.905-5.779 12.905-12.906C26 5.779 20.221 0 13.094 0zm-.712 18.795l-.776.751c-.705.682-1.632 1.023-2.558 1.023-.925 0-1.85-.34-2.555-1.023-.686-.663-1.062-1.545-1.062-2.483 0-.938.376-1.82 1.062-2.484l2.854-2.762c1.774-1.715 3.813-1.963 5.193-.628.37.359.373.946.003 1.309-.369.362-.97.365-1.342.005-.812-.785-1.924.056-2.516.63L7.83 15.894c-.323.312-.5.728-.5 1.17 0 .44.177.855.5 1.168.673.65 1.766.65 2.437 0l.775-.751c.374-.36.974-.36 1.344.005.37.362.367.948-.004 1.309zm7.313-7.075l-3.046 2.946c-.94.91-1.93 1.37-2.867 1.37-.764 0-1.495-.307-2.135-.925-.371-.36-.375-.946-.003-1.31.369-.362.97-.364 1.342-.003.278.269.933.9 2.324-.446l3.045-2.946c.325-.312.501-.728.501-1.17 0-.44-.176-.856-.5-1.168-.606-.588-1.536-.871-2.247-.185l-.966.936c-.372.36-.973.358-1.344-.005-.368-.363-.367-.95.007-1.309l.967-.935c1.37-1.327 3.44-1.25 4.922.184.683.663 1.061 1.544 1.061 2.483 0 .939-.378 1.82-1.061 2.483z"/>
    </g>
</svg>
