<svg xmlns="http://www.w3.org/2000/svg" xmlns:xlink="http://www.w3.org/1999/xlink" width="181" height="40" viewBox="0 0 181 40">
    <defs>
        <path id="a" d="M.234.11h16.158v17.738H.234z"/>
        <path id="c" d="M.203.175h14.63v27.972H.204z"/>
    </defs>
    <g fill="none" fill-rule="evenodd">
        <path fill="#0E1F3D" d="M96.176 18.702c.687 0 1.273-.135 1.762-.405.49-.269.734-.8.734-1.59 0-.789-.245-1.318-.734-1.59-.489-.269-1.075-.404-1.762-.404h-6.645v3.99h6.645zm-11.357 9.54v-.562c.77 0 1.156-.186 1.156-.56V12.966c0-.373-.386-.562-1.156-.562v-.56h10.982c1.998 0 3.568.37 4.712 1.107 1.142.736 1.715 1.99 1.715 3.755 0 1.768-.573 3.02-1.715 3.757-1.144.739-2.714 1.108-4.712 1.108h-6.27v5.55c0 .373.333.56.998.56v.56h-5.71zM115.613 19.139c.747 0 1.371-.058 1.87-.172.5-.114.895-.275 1.187-.483.29-.208.5-.452.623-.734.124-.28.187-.585.187-.919 0-.332-.063-.639-.187-.92-.123-.28-.333-.523-.623-.731-.292-.208-.686-.369-1.186-.484-.5-.112-1.124-.172-1.871-.172h-5.397v4.615h5.397zm.81-7.295c.999 0 1.904.088 2.713.265.813.176 1.509.457 2.09.841a3.858 3.858 0 0 1 1.343 1.497c.313.612.468 1.368.468 2.258 0 1.374-.405 2.423-1.218 3.152-.81.727-1.902 1.215-3.275 1.463l4.15 5.925c.144.207.317.331.515.372.196.043.38.063.545.063v.563h-5.834v-.563c.188 0 .35-.03.484-.093.134-.062.204-.144.204-.249 0-.105-.044-.223-.126-.358a10.427 10.427 0 0 0-.374-.547l-3.433-4.863h-4.46v5.55c0 .188.068.327.203.42.135.094.38.14.732.14v.563h-5.397v-.563c.603 0 .905-.187.905-.56V12.967c0-.375-.302-.563-.905-.563v-.56h10.67zM128.371 27.68c.541 0 .813-.188.813-.56V12.966c0-.373-.272-.562-.813-.562v-.56h5.18v.56c-.54 0-.813.189-.813.562V27.12c0 .372.272.56.813.56v.562h-5.18v-.562zM138.916 27.68a.707.707 0 0 0 .437-.14c.125-.092.189-.233.189-.42V12.904c0-.187-.064-.317-.189-.39a.855.855 0 0 0-.437-.11v-.56h5.834v.56a.69.69 0 0 0-.328.095.304.304 0 0 0-.172.28c0 .104.043.239.126.406.082.167.177.341.28.528l4.46 8.107 4.494-8.011c.146-.272.254-.485.328-.641.073-.155.11-.296.11-.42 0-.23-.136-.344-.406-.344v-.56h5.77v.56a.853.853 0 0 0-.436.11c-.124.073-.187.203-.187.39V27.12c0 .187.063.328.187.42.126.095.27.14.436.14v.562h-4.897v-.562c.562 0 .842-.188.842-.56V16.77h-.063l-6.27 11.472h-.094l-6.146-11.504h-.062V27.12c0 .372.292.56.874.56v.562h-4.68v-.562z"/>
        <g transform="translate(164.608 10.986)">
            <mask id="b" fill="#fff">
                <use xlink:href="#a"/>
            </mask>
            <path fill="#0E1F3D" d="M15.645 4.224c0-.228-.09-.4-.264-.515-.18-.112-.485-.17-.922-.17H4.352v3.865h6.113c.417 0 .739-.056.968-.17.228-.114.343-.411.343-.89h.562v4.865h-.562c0-.478-.115-.785-.343-.92-.23-.136-.551-.203-.968-.203H4.352v4.302H14.77c.313 0 .567-.073.766-.219a.697.697 0 0 0 .297-.592h.56v4.271h-.56c0-.31-.1-.488-.297-.53a3.777 3.777 0 0 0-.766-.062H.234v-.561a.601.601 0 0 0 .39-.14c.113-.092.17-.234.17-.42V1.98c0-.189-.057-.328-.17-.422a.61.61 0 0 0-.39-.14v-.56h14.225c.437 0 .742-.068.922-.205a.651.651 0 0 0 .264-.543h.56v4.113h-.56z" mask="url(#b)"/>
        </g>
        <path fill="#0E1F3D" d="M4.805 27.12c0 .188.062.328.188.42a.7.7 0 0 0 .436.14v.562H.563v-.562c.457 0 .685-.187.685-.56V12.966c0-.373-.228-.562-.685-.562v-.56h4.866v.56a.71.71 0 0 0-.436.14c-.126.094-.188.235-.188.422v5.924l6.457-5.082c.292-.25.521-.452.688-.608.166-.155.25-.286.25-.39 0-.145-.048-.248-.14-.312a.585.585 0 0 0-.329-.094v-.56h6.552v.56c-.374 0-.75.158-1.124.468l-7.174 5.705 6.55 7.576c.271.313.587.62.952.92.364.3.721.504 1.077.607v.562h-5.772v-.562c.27 0 .405-.071.405-.217 0-.103-.144-.332-.437-.688l-5.335-6.14-2.62 2.025v4.46zM39.185 12.405c-.416 0-.718.15-.905.452a6.545 6.545 0 0 0-.406.732l-5.521 12.127c-.188.416-.345.75-.468.997-.124.25-.187.427-.187.532 0 .103.026.186.078.247.051.064.118.126.202.188v.562h-4.773v-.562a.442.442 0 0 0 .281-.435c0-.105-.077-.318-.235-.64-.155-.321-.348-.722-.577-1.201l-5.616-12.187a1.03 1.03 0 0 0-.436-.5 4.166 4.166 0 0 0-.81-.312v-.56h5.584v.56a.876.876 0 0 0-.422.109c-.135.073-.202.212-.202.42 0 .23.088.521.264.875.176.352.39.789.64 1.308l3.993 8.574 3.9-8.45c.25-.54.484-1.023.702-1.448.22-.426.327-.724.327-.889 0-.332-.29-.5-.873-.5v-.56h5.46v.56zM51.36 25.374c1.313 0 2.251-.202 2.824-.609.571-.405.858-.94.858-1.604 0-.665-.287-1.202-.858-1.606-.573-.405-1.511-.607-2.824-.607h-5.957v4.426h5.957zm0-7.108c.937 0 1.71-.12 2.326-.359.613-.24.919-.742.919-1.511 0-.768-.306-1.274-.92-1.514-.614-.236-1.388-.356-2.325-.356h-5.957v3.74h5.957zm-.622-6.422c.956 0 1.881.079 2.776.233.893.157 1.683.406 2.371.749.687.343 1.237.79 1.653 1.34.416.55.624 1.23.624 2.043 0 .976-.302 1.729-.905 2.26-.603.53-1.32.94-2.153 1.23v.063c.979.292 1.805.753 2.48 1.388.677.633 1.016 1.543 1.016 2.727 0 .623-.136 1.2-.406 1.73a3.98 3.98 0 0 1-1.201 1.388c-.53.395-1.18.703-1.95.92-.77.217-1.644.328-2.621.328H40.974v-.562c.58 0 .872-.188.872-.562V12.967c0-.375-.292-.562-.872-.562v-.561h9.764zM66.012 11.852l-8.798 27.973h5.833l8.798-27.973z"/>
        <g transform="translate(69.915 .093)">
            <mask id="d" fill="#fff">
                <use xlink:href="#c"/>
            </mask>
            <path fill="#0E1F3D" d="M9 .175L.204 28.147h5.833L14.834.175z" mask="url(#d)"/>
        </g>
    </g>
</svg>
