<svg xmlns="http://www.w3.org/2000/svg" width="21" height="21" viewBox="0 0 21 21">
    <g fill="none" fill-rule="evenodd">
        <g>
            <g>
                <g>
                    <path d="M0 0H21V21H0z" transform="translate(-22 -242) translate(22 242)"/>
                    <g fill="#DB351F">
                        <path d="M10 0c5.523 0 10 4.477 10 10s-4.477 10-10 10S0 15.523 0 10 4.477 0 10 0zM5.75 8.75c-.69 0-1.25.56-1.25 1.25s.56 1.25 1.25 1.25S7 10.69 7 10s-.56-1.25-1.25-1.25zm4.25 0c-.69 0-1.25.56-1.25 1.25s.56 1.25 1.25 1.25 1.25-.56 1.25-1.25-.56-1.25-1.25-1.25zm4.25 0c-.69 0-1.25.56-1.25 1.25s.56 1.25 1.25 1.25 1.25-.56 1.25-1.25-.56-1.25-1.25-1.25z" transform="translate(-22 -242) translate(22 242) translate(.5 .5)"/>
                    </g>
                </g>
            </g>
        </g>
    </g>
</svg>
