<svg xmlns="http://www.w3.org/2000/svg" xmlns:xlink="http://www.w3.org/1999/xlink" width="53" height="22" viewBox="0 0 53 22">
    <defs>
        <path id="a" d="M0 .112h21.518V21.63H0z"/>
    </defs>
    <g fill="none" fill-rule="evenodd">
        <g transform="translate(0 .261)">
            <mask id="b" fill="#fff">
                <use xlink:href="#a"/>
            </mask>
            <path fill="#000" d="M10.76.112C4.826.112 0 4.938 0 10.87 0 16.803 4.827 21.63 10.76 21.63c5.932 0 10.758-4.827 10.758-10.76C21.518 4.939 16.692.113 10.76.113" mask="url(#b)"/>
        </g>
        <path fill="#FFF" d="M10.349 12.553L7.645 6.262H5.273l-1.91 9.897h2.403l1.137-6.052 2.756 6.052v-.004h2.075l-.251 1.31h.936l.251-1.31h.619l-.251 1.31h.936l.251-1.31h.084c1.432 0 2.797-1.059 3.047-2.368l.064-.317c.25-1.309-.705-2.371-2.137-2.371h-.025c1.322-.112 2.533-1.116 2.762-2.335l.03-.16c.238-1.235-.61-2.243-1.918-2.333l.255-1.322h-.936l-.254 1.313h-.62l.254-1.313h-.936l-.253 1.313h-2.077l-.93 4.837h-.003"/>
        <path fill="#000" d="M12.956 10.136h1.316c.348.013.692-.078.988-.26.274-.19.456-.485.503-.814l.045-.23c.071-.374 0-.601-.208-.728a1.702 1.702 0 0 0-.899-.194h-1.317l-.428 2.226zM15.297 13.168a.795.795 0 0 0-.037-.474.743.743 0 0 0-.272-.331 1.36 1.36 0 0 0-.451-.194 2.501 2.501 0 0 0-.56-.064h-1.394l-.46 2.38h1.623c.173.002.347-.008.518-.03.148-.02.292-.059.43-.116a.854.854 0 0 0 .316-.242.95.95 0 0 0 .18-.418l.107-.511z"/>
        <path fill="#000" d="M12.954 10.135h1.316c.348.012.692-.079.988-.261.274-.19.456-.484.503-.813l.045-.231c.071-.373 0-.6-.208-.727a1.702 1.702 0 0 0-.899-.194h-1.317l-.428 2.226z"/>
        <path fill="#231F20" d="M39.033 4.488l-2.073 11.67a1.965 1.965 0 0 1-1.935 1.621h-.485c-1.053 0-1.744-.482-2.074-1.447L29.83 8.36l-1.373 7.795a1.965 1.965 0 0 1-1.935 1.623H24.98l2.056-11.667a1.965 1.965 0 0 1 1.935-1.624h.503c1.053 0 1.739.482 2.056 1.447l2.645 7.935 1.379-7.761a1.965 1.965 0 0 1 1.934-1.621h1.545zM49.306 6.81h-4.63l-.48 2.724h4.629l.481-2.723zm-.899 5.086H43.76l-.608 3.56h4.625l.63-3.56zM52.5 6.778l-.476 2.75c-.152.84-.488 1.355-1.009 1.545.317.153.476.503.476 1.05 0 .179-.018.37-.054.573l-.478 2.818c-.115.629-.433 1.164-.953 1.605-.52.44-1.098.66-1.733.66h-6.475c-.559 0-1.018-.18-1.38-.542-.363-.362-.543-.81-.543-1.343 0-.126.012-.26.038-.4l1.943-11.006h8.76c.558 0 1.018.181 1.38.544.362.363.543.81.543 1.346 0 .14-.013.273-.039.4z"/>
    </g>
</svg>
