<svg xmlns="http://www.w3.org/2000/svg" width="14" height="16" viewBox="0 0 14 16">
    <g fill="none" fill-rule="evenodd">
        <g>
            <g>
                <path d="M0 0H16V16H0z" transform="translate(-277 -327) translate(276 327)"/>
                <path fill="#DB351F" fill-rule="nonzero" d="M11.2 9.6c1.767 0 3.2 1.433 3.2 3.2v2.4c0 .442-.358.8-.8.8H2.4c-.442 0-.8-.358-.8-.8v-2.4c0-1.767 1.433-3.2 3.2-3.2h6.4zm0 1.28H4.8c-1.016 0-1.848.79-1.916 1.789l-.004.131v1.92h10.24V12.8c0-1.016-.79-1.848-1.789-1.916l-.131-.004zM8 .8c1.988 0 3.6 1.612 3.6 3.6S9.988 8 8 8 4.4 6.388 4.4 4.4 6.012.8 8 .8zm0 1.28c-1.281 0-2.32 1.039-2.32 2.32S6.719 6.72 8 6.72s2.32-1.039 2.32-2.32S9.281 2.08 8 2.08z" transform="translate(-277 -327) translate(276 327)"/>
            </g>
        </g>
    </g>
</svg>
