<svg xmlns="http://www.w3.org/2000/svg" width="21" height="21" viewBox="0 0 21 21">
    <g fill="none" fill-rule="evenodd">
        <path d="M0 0H21V21H0z"/>
        <path fill="#DB351F" fill-rule="nonzero" d="M12.488 20.5c.313 0 .486-.14.517-.423l.375-2.629c.564-.25 1.127-.579 1.69-.986l2.489.986c.282.126.485.063.61-.187l2.019-3.475c.125-.25.078-.47-.14-.657l-2.114-1.643c.063-.376.094-.704.094-.986 0-.282-.031-.61-.094-.986l2.113-1.643c.22-.188.266-.407.141-.657l-2.019-3.475c-.125-.219-.328-.281-.61-.187l-2.488.986c-.532-.407-1.096-.736-1.69-.986l-.376-2.63C12.974.642 12.8.5 12.488.5h-3.99c-.282 0-.454.14-.517.423l-.375 2.629c-.564.25-1.127.579-1.69.986l-2.489-.986c-.25-.126-.453-.063-.61.187L.798 7.214c-.125.25-.078.47.141.657l2.113 1.643c-.031.376-.047.704-.047.986 0 .282.016.61.047.986L.939 13.129c-.219.188-.266.407-.14.657l2.018 3.475c.125.219.329.281.61.187l2.489-.986c.532.407 1.095.736 1.69.986l.375 2.63c.063.281.235.422.517.422h3.99zm-1.995-6.479c-.954 0-1.776-.344-2.465-1.033C7.34 12.3 6.995 11.47 6.995 10.5s.345-1.8 1.033-2.488c.689-.689 1.51-1.033 2.465-1.033.955 0 1.776.344 2.465 1.033.688.688 1.033 1.518 1.033 2.488s-.345 1.8-1.033 2.488c-.689.689-1.51 1.033-2.465 1.033z"/>
    </g>
</svg>
