<svg xmlns="http://www.w3.org/2000/svg" width="16" height="16" viewBox="0 0 16 16">
    <g fill="none" fill-rule="evenodd">
        <g fill="#657787" fill-rule="nonzero">
            <path d="M285.635 477c.224 0 .36.086.408.259l.015.079.308 2.103c.39.16.763.36 1.12.601l.265.188 2.039-.789c.202-.065.355-.035.458.09l.042.06 1.654 2.78c.09.175.072.331-.055.468l-.06.058-1.732 1.314c.052.3.077.564.077.789 0 .169-.014.36-.043.57l-.034.219 1.732 1.314c.157.132.206.282.147.452l-.032.074-1.654 2.78c-.09.175-.229.235-.417.18l-.083-.03-2.04-.789c-.368.26-.738.48-1.107.661l-.277.128-.308 2.103c-.022.197-.133.308-.332.333l-.091.005h-3.27c-.202 0-.335-.086-.4-.259l-.023-.079-.308-2.103c-.39-.16-.763-.36-1.12-.601l-.265-.188-2.039.789c-.202.065-.355.035-.458-.09l-.042-.06-1.654-2.78c-.09-.175-.072-.331.055-.468l.06-.058 1.732-1.314c-.026-.3-.039-.564-.039-.789 0-.169.007-.36.022-.57l.017-.219-1.732-1.314c-.157-.132-.206-.282-.147-.452l.032-.074 1.654-2.78c.112-.175.254-.235.425-.18l.075.03 2.04.789c.368-.26.738-.48 1.107-.661l.277-.128.308-2.103c.045-.197.158-.308.34-.333l.083-.005h3.27zm-.868 1.398h-1.532l-.295 2.007-.724.314c-.295.128-.594.29-.899.49l-.23.155-.636.449-1.955-.757-.751 1.262 1.65 1.254-.065.755c-.023.265-.033.49-.033.673 0 .138.006.299.018.482l.015.19.064.756-1.65 1.252.752 1.263 1.98-.765.643.481c.273.203.555.374.849.513l.222.098.747.307.298 2.024h1.531l.294-2.006.724-.314c.295-.128.594-.29.899-.49l.23-.155.636-.449 1.956.758.751-1.264-1.712-1.3.14-.822c.04-.23.058-.417.058-.559 0-.113-.012-.256-.037-.426l-.02-.133-.14-.822 1.712-1.3-.752-1.263-1.98.766-.644-.481c-.273-.203-.555-.374-.849-.513l-.222-.098-.747-.307-.296-2.025zm-.763 3.543c1.73 0 3.133 1.37 3.133 3.059 0 1.69-1.403 3.06-3.133 3.06-1.731 0-3.134-1.37-3.134-3.06s1.403-3.06 3.134-3.06zm0 1.398c-.94 0-1.702.744-1.702 1.661s.762 1.66 1.702 1.66c.939 0 1.7-.743 1.7-1.66 0-.917-.761-1.66-1.7-1.66z" transform="translate(-276 -477)"/>
        </g>
    </g>
</svg>
