<svg xmlns="http://www.w3.org/2000/svg" width="26" height="22" viewBox="0 0 26 22">
    <path fill="#55ACEE" d="M26 2.574c-.97.442-2.004.732-3.063.86 1.122-.692 1.955-1.766 2.346-3.025-1.044.636-2.192 1.084-3.39 1.325C20.897.636 19.483.01 18.001.008c-2.945 0-5.333 2.449-5.333 5.47 0 .43.046.845.137 1.246-4.433-.229-8.363-2.405-10.996-5.717-.475.84-.723 1.788-.721 2.752 0 1.897.942 3.572 2.372 4.553-.849-.028-1.678-.262-2.416-.682v.067c0 2.65 1.839 4.862 4.28 5.362-.457.13-.93.195-1.404.193-.344 0-.68-.032-1.005-.097.678 2.173 2.648 3.755 4.982 3.797C5.682 18.746 2.832 19.564 0 19.219c2.427 1.602 5.27 2.455 8.177 2.456 9.813 0 15.178-8.333 15.178-15.562 0-.238-.006-.476-.015-.708 1.043-.772 1.947-1.734 2.66-2.831"/>
</svg>
